OpenSans-SemiBoldItalic.ufo
<glyph name="exclam" format="2">
  <advance width="557.5737704918033"/>
  <unicode hex="0021"/>
  <outline>
    <contour>
      <point x="150.47540983606558" y="444.3114754098361" type="line"/>
      <point x="345.4918032786885" y="444.3114754098361" type="line"/>
      <point x="600.1803278688525" y="1462.0" type="line"/>
      <point x="327.6229508196721" y="1462.0" type="line"/>
    </contour>
    <contour>
      <point x="163.27868852459017" y="-28.11475409836066" type="curve" smooth="yes"/>
      <point x="273.6885245901639" y="-28.11475409836066"/>
      <point x="334.40983606557376" y="56.114754098360656"/>
      <point x="334.40983606557376" y="150.72131147540983" type="curve" smooth="yes"/>
      <point x="334.40983606557376" y="231.57377049180326"/>
      <point x="283.88524590163934" y="276.7704918032787"/>
      <point x="210.04918032786884" y="276.7704918032787" type="curve" smooth="yes"/>
      <point x="84.45901639344261" y="276.7704918032787"/>
      <point x="33.91803278688524" y="187.91803278688525"/>
      <point x="33.91803278688524" y="96.60655737704919" type="curve" smooth="yes"/>
      <point x="33.91803278688524" y="25.72131147540984"/>
      <point x="73.80327868852459" y="-28.11475409836066"/>
    </contour>
  </outline>
</glyph>
<glyph name="quotedbl" format="2">
  <advance width="858.327868852459"/>
  <unicode hex="0022"/>
  <outline>
    <contour>
      <point x="587.8360655737705" y="934.0" type="line"/>
      <point x="740.0163934426229" y="934.0" type="line"/>
      <point x="892.688524590164" y="1462.0" type="line"/>
      <point x="660.7213114754098" y="1462.0" type="line"/>
    </contour>
    <contour>
      <point x="213.2622950819672" y="934.0" type="line"/>
      <point x="364.11475409836066" y="934.0" type="line"/>
      <point x="517.2295081967213" y="1462.0" type="line"/>
      <point x="284.8196721311475" y="1462.0" type="line"/>
    </contour>
  </outline>
</glyph>
<glyph name="numbersign" format="2">
  <advance width="1323.0"/>
  <unicode hex="0023"/>
  <outline>
    <contour>
      <point x="184.39344262295083" y="0.0" type="line"/>
      <point x="358.1475409836066" y="0.0" type="line"/>
      <point x="478.72131147540983" y="419.1475409836066" type="line"/>
      <point x="729.0163934426229" y="419.1475409836066" type="line"/>
      <point x="605.327868852459" y="0.0" type="line"/>
      <point x="784.6393442622951" y="0.0" type="line"/>
      <point x="904.5409836065573" y="419.1475409836066" type="line"/>
      <point x="1208.2295081967213" y="419.1475409836066" type="line"/>
      <point x="1223.8852459016393" y="585.5737704918033" type="line"/>
      <point x="951.9508196721312" y="585.5737704918033" type="line"/>
      <point x="1036.0" y="873.311475409836" type="line"/>
      <point x="1320.5737704918033" y="873.311475409836" type="line"/>
      <point x="1336.344262295082" y="1039.9508196721313" type="line"/>
      <point x="1084.5245901639344" y="1039.9508196721313" type="line"/>
      <point x="1204.4262295081967" y="1462.0" type="line"/>
      <point x="1031.7868852459017" y="1462.0" type="line"/>
      <point x="909.655737704918" y="1039.9508196721313" type="line"/>
      <point x="657.1475409836065" y="1039.9508196721313" type="line"/>
      <point x="778.6065573770492" y="1462.0" type="line"/>
      <point x="600.0655737704918" y="1462.0" type="line"/>
      <point x="479.39344262295083" y="1039.9508196721313" type="line"/>
      <point x="184.81967213114754" y="1039.9508196721313" type="line"/>
      <point x="169.60655737704917" y="873.311475409836" type="line"/>
      <point x="434.4262295081967" y="873.311475409836" type="line"/>
      <point x="348.2622950819672" y="585.5737704918033" type="line"/>
      <point x="67.36065573770492" y="585.5737704918033" type="line"/>
      <point x="52.147540983606554" y="419.1475409836066" type="line"/>
      <point x="301.29508196721315" y="419.1475409836066" type="line"/>
    </contour>
    <contour>
      <point x="525.688524590164" y="585.5737704918033" type="line"/>
      <point x="609.0655737704918" y="873.311475409836" type="line"/>
      <point x="859.1311475409836" y="873.311475409836" type="line"/>
      <point x="777.311475409836" y="585.5737704918033" type="line"/>
    </contour>
  </outline>
</glyph>
<glyph name="dollar" format="2">
  <advance width="1128.0"/>
  <unicode hex="0024"/>
  <outline>
    <contour>
      <point x="349.73770491803276" y="-119.0" type="line"/>
      <point x="485.8360655737705" y="-119.0" type="line"/>
      <point x="530.4098360655738" y="93.37704918032786" type="line"/>
      <point x="819.0983606557377" y="119.04918032786885"/>
      <point x="987.1803278688524" y="261.9672131147541"/>
      <point x="987.1803278688524" y="493.77049180327873" type="curve" smooth="yes"/>
      <point x="987.1803278688524" y="673.5737704918033"/>
      <point x="872.3770491803278" y="755.3442622950819"/>
      <point x="687.2622950819672" y="826.2295081967213" type="curve"/>
      <point x="766.4262295081967" y="1197.1311475409836" type="line"/>
      <point x="853.344262295082" y="1191.1311475409836"/>
      <point x="941.344262295082" y="1159.016393442623"/>
      <point x="1010.655737704918" y="1123.1311475409836" type="curve"/>
      <point x="1094.9180327868853" y="1306.639344262295" type="line"/>
      <point x="1006.7213114754098" y="1353.1803278688526"/>
      <point x="914.2622950819672" y="1378.1803278688524"/>
      <point x="807.1639344262295" y="1388.8360655737704" type="curve"/>
      <point x="841.8360655737705" y="1553.7704918032787" type="line"/>
      <point x="706.1803278688524" y="1553.7704918032787" type="line"/>
      <point x="668.9508196721312" y="1389.950819672131" type="line"/>
      <point x="414.91803278688525" y="1369.27868852459"/>
      <point x="227.6229508196721" y="1243.4262295081967"/>
      <point x="227.6229508196721" y="1006.2295081967213" type="curve" smooth="yes"/>
      <point x="227.6229508196721" y="823.1639344262295"/>
      <point x="346.88524590163934" y="732.0819672131148"/>
      <point x="519.311475409836" y="667.4262295081967" type="curve"/>
      <point x="434.37704918032784" y="279.655737704918" type="line"/>
      <point x="304.8032786885246" y="283.8688524590164"/>
      <point x="166.2622950819672" y="325.7213114754099"/>
      <point x="61.59016393442623" y="381.60655737704917" type="curve"/>
      <point x="61.59016393442623" y="172.45901639344262" type="line"/>
      <point x="152.22950819672133" y="127.03278688524591"/>
      <point x="271.57377049180326" y="100.59016393442623"/>
      <point x="396.5245901639344" y="93.14754098360656" type="curve"/>
    </contour>
    <contour>
      <point x="571.1475409836066" y="285.21311475409834" type="curve"/>
      <point x="643.1967213114755" y="616.8852459016393" type="line"/>
      <point x="720.8524590163935" y="585.6229508196722"/>
      <point x="758.967213114754" y="538.8196721311475"/>
      <point x="758.967213114754" y="471.6885245901639" type="curve" smooth="yes"/>
      <point x="758.967213114754" y="363.4918032786885"/>
      <point x="678.0" y="299.44262295081967"/>
    </contour>
    <contour>
      <point x="562.4918032786885" y="875.8852459016393" type="line"/>
      <point x="486.42622950819674" y="905.5737704918033"/>
      <point x="450.72131147540983" y="955.72131147541"/>
      <point x="450.72131147540983" y="1016.4262295081967" type="curve" smooth="yes"/>
      <point x="450.72131147540983" y="1130.393442622951"/>
      <point x="526.7704918032787" y="1185.2295081967213"/>
      <point x="629.655737704918" y="1197.1311475409836" type="curve"/>
    </contour>
  </outline>
</glyph>
<glyph name="percent" format="2">
  <advance width="1687.7868852459017"/>
  <unicode hex="0025"/>
  <outline>
    <contour>
      <point x="231.0" y="0.0" type="line"/>
      <point x="426.40983606557376" y="0.0" type="line"/>
      <point x="1511.081967213115" y="1462.0" type="line"/>
      <point x="1317.8852459016393" y="1462.0" type="line"/>
    </contour>
    <contour>
      <point x="398.11475409836066" y="565.0" type="curve" smooth="yes"/>
      <point x="711.4262295081967" y="565.0"/>
      <point x="805.3934426229508" y="979.9344262295083"/>
      <point x="805.3934426229508" y="1185.622950819672" type="curve" smooth="yes"/>
      <point x="805.3934426229508" y="1378.4590163934427"/>
      <point x="712.5409836065573" y="1483.0"/>
      <point x="545.0327868852459" y="1483.0" type="curve" smooth="yes"/>
      <point x="229.59016393442622" y="1483.0"/>
      <point x="142.31147540983608" y="1089.7704918032787"/>
      <point x="142.31147540983608" y="872.1803278688525" type="curve" smooth="yes"/>
      <point x="142.31147540983608" y="675.311475409836"/>
      <point x="233.62295081967216" y="565.0"/>
    </contour>
    <contour>
      <point x="414.88524590163934" y="731.8688524590165" type="curve" smooth="yes"/>
      <point x="359.4918032786885" y="731.8688524590165"/>
      <point x="332.6885245901639" y="777.688524590164"/>
      <point x="332.6885245901639" y="865.7704918032787" type="curve" smooth="yes"/>
      <point x="332.6885245901639" y="1022.2459016393442"/>
      <point x="391.21311475409834" y="1316.360655737705"/>
      <point x="530.8196721311475" y="1316.360655737705" type="curve" smooth="yes"/>
      <point x="585.4262295081968" y="1316.360655737705"/>
      <point x="614.016393442623" y="1276.4426229508197"/>
      <point x="614.016393442623" y="1184.688524590164" type="curve" smooth="yes"/>
      <point x="614.016393442623" y="1053.5737704918033"/>
      <point x="558.5901639344263" y="731.8688524590165"/>
    </contour>
    <contour>
      <point x="1200.1311475409836" y="-19.114754098360656" type="curve" smooth="yes"/>
      <point x="1508.9016393442623" y="-19.114754098360656"/>
      <point x="1604.8688524590164" y="392.1639344262295"/>
      <point x="1604.8688524590164" y="605.6065573770492" type="curve" smooth="yes"/>
      <point x="1604.8688524590164" y="794.344262295082"/>
      <point x="1512.016393442623" y="897.8852459016393"/>
      <point x="1343.950819672131" y="897.8852459016393" type="curve" smooth="yes"/>
      <point x="1033.4918032786886" y="897.8852459016393"/>
      <point x="940.672131147541" y="517.7213114754098"/>
      <point x="940.672131147541" y="277.9836065573771" type="curve" smooth="yes"/>
      <point x="940.672131147541" y="86.42622950819673"/>
      <point x="1031.983606557377" y="-19.114754098360656"/>
    </contour>
    <contour>
      <point x="1213.2459016393443" y="147.31147540983608" type="curve" smooth="yes"/>
      <point x="1158.4098360655737" y="147.31147540983608"/>
      <point x="1133.1639344262296" y="192.57377049180326"/>
      <point x="1133.1639344262296" y="281.65573770491807" type="curve" smooth="yes"/>
      <point x="1133.1639344262296" y="437.6885245901639"/>
      <point x="1190.1311475409836" y="731.2459016393442"/>
      <point x="1329.1803278688526" y="731.2459016393442" type="curve" smooth="yes"/>
      <point x="1384.344262295082" y="731.2459016393442"/>
      <point x="1413.377049180328" y="691.327868852459"/>
      <point x="1413.377049180328" y="599.5737704918032" type="curve" smooth="yes"/>
      <point x="1413.377049180328" y="470.1311475409836"/>
      <point x="1357.5081967213114" y="147.31147540983608"/>
    </contour>
  </outline>
</glyph>
<glyph name="ampersand" format="2">
  <advance width="1409.8688524590166"/>
  <unicode hex="0026"/>
  <outline>
    <contour>
      <point x="467.672131147541" y="-20.0" type="curve" smooth="yes"/>
      <point x="660.2950819672132" y="-20.0"/>
      <point x="789.7540983606558" y="42.60655737704918"/>
      <point x="908.5737704918033" y="132.5573770491803" type="curve"/>
      <point x="1003.4262295081968" y="0.0" type="line"/>
      <point x="1277.065573770492" y="0.0" type="line"/>
      <point x="1073.1803278688524" y="278.6393442622951" type="line"/>
      <point x="1197.4918032786886" y="403.3770491803279"/>
      <point x="1293.9344262295083" y="553.2131147540983"/>
      <point x="1369.2459016393443" y="732.7213114754098" type="curve"/>
      <point x="1136.1311475409836" y="732.7213114754098" type="line"/>
      <point x="1093.1311475409836" y="624.7213114754098"/>
      <point x="1040.8688524590166" y="524.1311475409836"/>
      <point x="957.0655737704918" y="437.72131147540983" type="curve"/>
      <point x="720.2622950819672" y="764.2622950819673" type="line"/>
      <point x="941.016393442623" y="865.7377049180327"/>
      <point x="1103.0983606557377" y="980.5737704918032"/>
      <point x="1103.0983606557377" y="1185.8032786885244" type="curve" smooth="yes"/>
      <point x="1103.0983606557377" y="1358.27868852459"/>
      <point x="984.9508196721312" y="1485.0"/>
      <point x="761.2786885245902" y="1485.0" type="curve" smooth="yes"/>
      <point x="511.04918032786884" y="1485.0"/>
      <point x="349.57377049180326" y="1330.967213114754"/>
      <point x="349.57377049180326" y="1093.4262295081967" type="curve" smooth="yes"/>
      <point x="349.57377049180326" y="992.1475409836065"/>
      <point x="386.8360655737705" y="895.2295081967213"/>
      <point x="439.5081967213115" y="809.2295081967213" type="curve"/>
      <point x="193.93442622950818" y="690.2295081967213"/>
      <point x="66.88524590163934" y="561.8852459016393"/>
      <point x="66.88524590163934" y="350.1967213114754" type="curve" smooth="yes"/>
      <point x="66.88524590163934" y="109.98360655737706"/>
      <point x="221.88524590163937" y="-20.0"/>
    </contour>
    <contour>
      <point x="507.09836065573774" y="176.36065573770492" type="curve" smooth="yes"/>
      <point x="385.1475409836066" y="176.36065573770492"/>
      <point x="305.5245901639345" y="256.8360655737705"/>
      <point x="305.5245901639345" y="369.72131147540983" type="curve" smooth="yes"/>
      <point x="305.5245901639345" y="523.2786885245902"/>
      <point x="408.88524590163934" y="598.2131147540983"/>
      <point x="534.8688524590165" y="665.9180327868853" type="curve"/>
      <point x="800.0" y="286.08196721311475" type="line"/>
      <point x="717.032786885246" y="225.7704918032787"/>
      <point x="627.4262295081967" y="176.36065573770492"/>
    </contour>
    <contour>
      <point x="629.672131147541" y="901.6065573770492" type="curve"/>
      <point x="589.9508196721312" y="958.7868852459017"/>
      <point x="568.0491803278688" y="1029.5737704918033"/>
      <point x="568.0491803278688" y="1102.2786885245903" type="curve" smooth="yes"/>
      <point x="568.0491803278688" y="1220.0327868852457"/>
      <point x="632.327868852459" y="1300.049180327869"/>
      <point x="748.2950819672132" y="1300.049180327869" type="curve" smooth="yes"/>
      <point x="830.2786885245902" y="1300.049180327869"/>
      <point x="881.7377049180327" y="1249.655737704918"/>
      <point x="881.7377049180327" y="1162.5081967213116" type="curve" smooth="yes"/>
      <point x="881.7377049180327" y="1034.655737704918"/>
      <point x="749.3770491803278" y="962.1803278688525"/>
    </contour>
  </outline>
</glyph>
<glyph name="parenleft" format="2">
  <advance width="638.2622950819672"/>
  <unicode hex="0028"/>
  <outline>
    <contour>
      <point x="226.34426229508196" y="-324.0" type="curve"/>
      <point x="407.95081967213116" y="-324.0" type="line"/>
      <point x="333.95081967213116" y="-150.24590163934425"/>
      <point x="292.0655737704918" y="47.622950819672134"/>
      <point x="292.0655737704918" y="272.2295081967213" type="curve" smooth="yes"/>
      <point x="292.0655737704918" y="752.4262295081968"/>
      <point x="499.95081967213116" y="1142.7704918032787"/>
      <point x="790.9508196721313" y="1462.0" type="curve"/>
      <point x="582.4590163934427" y="1462.0" type="line"/>
      <point x="257.8032786885246" y="1127.344262295082"/>
      <point x="78.45901639344262" y="757.344262295082"/>
      <point x="78.45901639344262" y="275.983606557377" type="curve" smooth="yes"/>
      <point x="78.45901639344262" y="53.19672131147541"/>
      <point x="129.68852459016395" y="-153.13114754098362"/>
    </contour>
  </outline>
</glyph>
<glyph name="parenright" format="2">
  <advance width="638.2622950819672"/>
  <unicode hex="0029"/>
  <outline>
    <contour>
      <point x="-153.1311475409836" y="-324.0" type="curve"/>
      <point x="54.245901639344275" y="-324.0" type="line"/>
      <point x="379.5737704918033" y="9.540983606557376"/>
      <point x="557.8032786885246" y="380.54098360655735"/>
      <point x="557.8032786885246" y="861.344262295082" type="curve" smooth="yes"/>
      <point x="557.8032786885246" y="1085.360655737705"/>
      <point x="506.5737704918033" y="1290.4590163934427"/>
      <point x="411.0327868852459" y="1462.0" type="curve"/>
      <point x="229.86885245901638" y="1462.0" type="line"/>
      <point x="303.42622950819674" y="1288.6885245901638"/>
      <point x="344.1967213114754" y="1089.8196721311476"/>
      <point x="344.1967213114754" y="865.7704918032787" type="curve" smooth="yes"/>
      <point x="344.1967213114754" y="386.57377049180326"/>
      <point x="137.4262295081967" y="-3.7704918032786887"/>
    </contour>
  </outline>
</glyph>
<glyph name="asterisk" format="2">
  <advance width="1122.688524590164"/>
  <unicode hex="002A"/>
  <outline>
    <contour>
      <point x="742.0819672131148" y="598.0655737704917" type="line"/>
      <point x="946.8360655737705" y="660.4754098360656" type="line"/>
      <point x="776.8032786885245" y="1020.4426229508197" type="line"/>
      <point x="1143.2295081967213" y="974.655737704918" type="line"/>
      <point x="1155.655737704918" y="1180.7213114754097" type="line"/>
      <point x="751.3770491803278" y="1156.7377049180327" type="line"/>
      <point x="868.8360655737706" y="1525.344262295082" type="line"/>
      <point x="656.311475409836" y="1567.4262295081967" type="line"/>
      <point x="618.8524590163934" y="1183.3770491803277" type="line"/>
      <point x="263.5737704918033" y="1362.3934426229507" type="line"/>
      <point x="193.7377049180328" y="1168.311475409836" type="line"/>
      <point x="543.704918032787" y="1066.8360655737704" type="line"/>
      <point x="251.42622950819674" y="801.0" type="line"/>
      <point x="412.72131147540983" y="658.7377049180328" type="line"/>
      <point x="640.3770491803278" y="970.1803278688524" type="line"/>
    </contour>
  </outline>
</glyph>
<glyph name="plus" format="2">
  <advance width="1171.0"/>
  <unicode hex="002B"/>
  <outline>
    <contour>
      <point x="705.5245901639344" y="810.9344262295082" type="line"/>
      <point x="705.5245901639344" y="1219.8852459016393" type="line"/>
      <point x="526.655737704918" y="1219.8852459016393" type="line"/>
      <point x="526.655737704918" y="810.9344262295082" type="line"/>
      <point x="127.95081967213115" y="810.9344262295082" type="line"/>
      <point x="127.95081967213115" y="632.6229508196722" type="line"/>
      <point x="526.655737704918" y="632.6229508196722" type="line"/>
      <point x="526.655737704918" y="227.0" type="line"/>
      <point x="705.5245901639344" y="227.0" type="line"/>
      <point x="705.5245901639344" y="632.6229508196722" type="line"/>
      <point x="1104.2295081967213" y="632.6229508196722" type="line"/>
      <point x="1104.2295081967213" y="810.9344262295082" type="line"/>
    </contour>
  </outline>
</glyph>
<glyph name="comma" format="2">
  <advance width="550.5573770491803"/>
  <unicode hex="002C"/>
  <outline>
    <contour>
      <point x="-94.19672131147541" y="-264.0" type="curve"/>
      <point x="81.75409836065576" y="-264.0" type="line"/>
      <point x="177.75409836065575" y="-115.0"/>
      <point x="281.65573770491807" y="70.0"/>
      <point x="348.2131147540984" y="215.0" type="curve"/>
      <point x="340.2131147540984" y="238.0" type="line"/>
      <point x="104.81967213114754" y="238.0" type="line"/>
      <point x="53.26229508196721" y="96.0"/>
      <point x="-22.639344262295083" y="-102.0"/>
    </contour>
  </outline>
</glyph>
<glyph name="hyphen" format="2">
  <advance width="648.9672131147541"/>
  <unicode hex="002D"/>
  <outline>
    <contour>
      <point x="47.68852459016393" y="446.8524590163934" type="line"/>
      <point x="549.3934426229508" y="446.8524590163934" type="line"/>
      <point x="592.9180327868852" y="650.0327868852459" type="line"/>
      <point x="91.77049180327869" y="650.0327868852459" type="line"/>
    </contour>
  </outline>
</glyph>
<glyph name="period" format="2">
  <advance width="550.5573770491803"/>
  <unicode hex="002E"/>
  <outline>
    <contour>
      <point x="161.60655737704917" y="-28.11475409836066" type="curve" smooth="yes"/>
      <point x="272.57377049180326" y="-28.11475409836066"/>
      <point x="334.40983606557376" y="55.00000000000001"/>
      <point x="334.40983606557376" y="151.8360655737705" type="curve" smooth="yes"/>
      <point x="334.40983606557376" y="232.68852459016392"/>
      <point x="285.0" y="276.7704918032787"/>
      <point x="212.27868852459017" y="276.7704918032787" type="curve" smooth="yes"/>
      <point x="85.57377049180327" y="276.7704918032787"/>
      <point x="33.91803278688524" y="187.91803278688525"/>
      <point x="33.91803278688524" y="94.37704918032787" type="curve" smooth="yes"/>
      <point x="33.91803278688524" y="24.606557377049185"/>
      <point x="73.80327868852459" y="-28.11475409836066"/>
    </contour>
  </outline>
</glyph>
<glyph name="slash" format="2">
  <advance width="787.8688524590165"/>
  <unicode hex="002F"/>
  <outline>
    <contour>
      <point x="-92.22950819672131" y="0.0" type="line"/>
      <point x="142.01639344262298" y="0.0" type="line"/>
      <point x="952.1311475409836" y="1462.0" type="line"/>
      <point x="719.0" y="1462.0" type="line"/>
    </contour>
  </outline>
</glyph>
<glyph name="zero" format="2">
  <advance width="1128.0"/>
  <unicode hex="0030"/>
  <outline>
    <contour>
      <point x="476.8032786885246" y="-20.0" type="curve" smooth="yes"/>
      <point x="918.0983606557378" y="-20.0"/>
      <point x="1101.0819672131147" y="509.83606557377055"/>
      <point x="1101.0819672131147" y="1013.1147540983605" type="curve" smooth="yes"/>
      <point x="1101.0819672131147" y="1327.622950819672"/>
      <point x="969.9180327868853" y="1485.0"/>
      <point x="718.8032786885246" y="1485.0" type="curve" smooth="yes"/>
      <point x="283.42622950819674" y="1485.0"/>
      <point x="94.42622950819671" y="933.0"/>
      <point x="94.42622950819671" y="472.57377049180326" type="curve" smooth="yes"/>
      <point x="94.42622950819671" y="157.11475409836066"/>
      <point x="221.4262295081967" y="-20.0"/>
    </contour>
    <contour>
      <point x="499.57377049180326" y="175.49180327868854" type="curve" smooth="yes"/>
      <point x="378.1475409836066" y="175.49180327868854"/>
      <point x="329.9836065573771" y="279.45901639344265"/>
      <point x="329.9836065573771" y="469.91803278688525" type="curve" smooth="yes"/>
      <point x="329.9836065573771" y="789.1311475409835"/>
      <point x="465.6229508196721" y="1288.5081967213114"/>
      <point x="701.2786885245902" y="1288.5081967213114" type="curve" smooth="yes"/>
      <point x="810.5901639344262" y="1288.5081967213114"/>
      <point x="863.8524590163935" y="1197.983606557377"/>
      <point x="863.8524590163935" y="1019.7704918032788" type="curve" smooth="yes"/>
      <point x="863.8524590163935" y="657.311475409836"/>
      <point x="735.9344262295083" y="175.49180327868854"/>
    </contour>
  </outline>
</glyph>
<glyph name="one" format="2">
  <advance width="1128.0"/>
  <unicode hex="0031"/>
  <outline>
    <contour>
      <point x="400.27868852459017" y="0.0" type="line"/>
      <point x="636.7213114754098" y="0.0" type="line"/>
      <point x="947.9508196721312" y="1462.0" type="line"/>
      <point x="750.2295081967213" y="1462.0" type="line"/>
      <point x="243.86885245901638" y="1145.7704918032787" type="line"/>
      <point x="349.55737704918033" y="975.3606557377049" type="line"/>
      <point x="536.1967213114754" y="1092.7868852459017" type="line" smooth="yes"/>
      <point x="585.8852459016393" y="1124.245901639344"/>
      <point x="635.7377049180328" y="1161.7704918032787"/>
      <point x="669.655737704918" y="1194.5901639344263" type="curve"/>
      <point x="644.327868852459" y="1111.6065573770493"/>
      <point x="609.7704918032787" y="973.1311475409835"/>
      <point x="588.0819672131148" y="871.360655737705" type="curve" smooth="yes"/>
    </contour>
  </outline>
</glyph>
<glyph name="two" format="2">
  <advance width="1128.0"/>
  <unicode hex="0032"/>
  <outline>
    <contour>
      <point x="-18.344262295081972" y="0.0" type="line"/>
      <point x="911.8852459016393" y="0.0" type="line"/>
      <point x="953.0655737704917" y="206.49180327868856" type="line"/>
      <point x="329.327868852459" y="206.49180327868856" type="line"/>
      <point x="329.327868852459" y="215.3770491803279" type="line"/>
      <point x="640.1311475409835" y="480.29508196721315" type="line" smooth="yes"/>
      <point x="937.8524590163935" y="734.1311475409836"/>
      <point x="1088.5245901639346" y="892.1967213114754"/>
      <point x="1088.5245901639346" y="1138.8196721311476" type="curve" smooth="yes"/>
      <point x="1088.5245901639346" y="1329.622950819672"/>
      <point x="956.8360655737705" y="1483.0"/>
      <point x="691.5737704918033" y="1483.0" type="curve" smooth="yes"/>
      <point x="500.9672131147541" y="1483.0"/>
      <point x="359.34426229508193" y="1405.262295081967"/>
      <point x="235.27868852459017" y="1303.311475409836" type="curve"/>
      <point x="347.8360655737705" y="1144.9016393442623" type="line"/>
      <point x="457.2295081967213" y="1230.622950819672"/>
      <point x="547.9180327868852" y="1282.967213114754"/>
      <point x="658.7377049180327" y="1282.967213114754" type="curve" smooth="yes"/>
      <point x="776.9344262295083" y="1282.967213114754"/>
      <point x="846.5245901639345" y="1211.1311475409836"/>
      <point x="846.5245901639345" y="1098.311475409836" type="curve" smooth="yes"/>
      <point x="846.5245901639345" y="941.2786885245902"/>
      <point x="745.2295081967213" y="830.7213114754098"/>
      <point x="489.3934426229508" y="601.327868852459" type="curve" smooth="yes"/>
      <point x="19.081967213114748" y="180.11475409836066" type="line"/>
    </contour>
  </outline>
</glyph>
<glyph name="three" format="2">
  <advance width="1128.0"/>
  <unicode hex="0033"/>
  <outline>
    <contour>
      <point x="417.1639344262295" y="-20.0" type="curve" smooth="yes"/>
      <point x="816.5081967213115" y="-20.0"/>
      <point x="985.5737704918032" y="203.42622950819674"/>
      <point x="985.5737704918032" y="434.4262295081967" type="curve" smooth="yes"/>
      <point x="985.5737704918032" y="615.295081967213"/>
      <point x="871.032786885246" y="717.8852459016393"/>
      <point x="719.0163934426229" y="746.327868852459" type="curve"/>
      <point x="719.0163934426229" y="754.8852459016393" type="line"/>
      <point x="953.0327868852459" y="797.0"/>
      <point x="1087.8360655737704" y="949.344262295082"/>
      <point x="1087.8360655737704" y="1154.573770491803" type="curve" smooth="yes"/>
      <point x="1087.8360655737704" y="1346.245901639344"/>
      <point x="955.0655737704918" y="1483.0"/>
      <point x="698.0" y="1483.0" type="curve" smooth="yes"/>
      <point x="501.3934426229508" y="1483.0"/>
      <point x="368.3934426229508" y="1421.8852459016393"/>
      <point x="247.4262295081967" y="1338.1147540983607" type="curve"/>
      <point x="350.45901639344265" y="1177.032786885246" type="line"/>
      <point x="438.8524590163935" y="1237.0819672131147"/>
      <point x="537.0819672131147" y="1287.622950819672"/>
      <point x="660.311475409836" y="1287.622950819672" type="curve" smooth="yes"/>
      <point x="779.7704918032787" y="1287.622950819672"/>
      <point x="849.3934426229508" y="1221.7213114754097"/>
      <point x="849.3934426229508" y="1117.0819672131147" type="curve" smooth="yes"/>
      <point x="849.3934426229508" y="931.3770491803278"/>
      <point x="669.4098360655738" y="841.8360655737705"/>
      <point x="478.1311475409836" y="841.8360655737705" type="curve" smooth="yes"/>
      <point x="371.6885245901639" y="841.8360655737705" type="line"/>
      <point x="334.04918032786884" y="660.9672131147541" type="line"/>
      <point x="468.1475409836066" y="660.9672131147541" type="line" smooth="yes"/>
      <point x="661.1311475409836" y="660.9672131147541"/>
      <point x="746.7704918032787" y="578.0491803278688"/>
      <point x="746.7704918032787" y="441.0327868852459" type="curve" smooth="yes"/>
      <point x="746.7704918032787" y="270.11475409836066"/>
      <point x="620.4590163934427" y="172.6065573770492"/>
      <point x="412.08196721311475" y="172.6065573770492" type="curve" smooth="yes"/>
      <point x="279.0491803278689" y="172.6065573770492"/>
      <point x="133.91803278688525" y="215.40983606557378"/>
      <point x="31.27868852459016" y="274.1639344262295" type="curve"/>
      <point x="31.27868852459016" y="59.0" type="line"/>
      <point x="134.7377049180328" y="8.229508196721312"/>
      <point x="262.2622950819672" y="-20.0"/>
    </contour>
  </outline>
</glyph>
<glyph name="four" format="2">
  <advance width="1128.0"/>
  <unicode hex="0034"/>
  <outline>
    <contour>
      <point x="551.0491803278688" y="0.0" type="line"/>
      <point x="777.7213114754098" y="0.0" type="line"/>
      <point x="845.7377049180327" y="319.1639344262295" type="line"/>
      <point x="1047.5081967213116" y="319.1639344262295" type="line"/>
      <point x="1089.5901639344263" y="514.5737704918033" type="line"/>
      <point x="888.3770491803278" y="514.5737704918033" type="line"/>
      <point x="1087.8360655737704" y="1462.0" type="line"/>
      <point x="834.8032786885246" y="1462.0" type="line"/>
      <point x="34.14754098360656" y="514.1475409836065" type="line"/>
      <point x="-4.377049180327873" y="319.1639344262295" type="line"/>
      <point x="619.0655737704918" y="319.1639344262295" type="line"/>
    </contour>
    <contour>
      <point x="261.5245901639345" y="514.5737704918033" type="line"/>
      <point x="684.327868852459" y="1010.8688524590164" type="line" smooth="yes"/>
      <point x="725.0819672131147" y="1059.3934426229507"/>
      <point x="786.9016393442622" y="1144.0"/>
      <point x="818.5737704918032" y="1197.4426229508197" type="curve"/>
      <point x="827.9016393442623" y="1197.4426229508197" type="line"/>
      <point x="804.4426229508197" y="1123.360655737705"/>
      <point x="755.6393442622951" y="948.5081967213115"/>
      <point x="727.5081967213114" y="819.4262295081967" type="curve" smooth="yes"/>
      <point x="660.5901639344262" y="514.5737704918033" type="line"/>
    </contour>
  </outline>
</glyph>
<glyph name="five" format="2">
  <advance width="1128.0"/>
  <unicode hex="0035"/>
  <outline>
    <contour>
      <point x="409.11475409836066" y="-20.0" type="curve" smooth="yes"/>
      <point x="846.0491803278688" y="-20.0"/>
      <point x="1006.2950819672132" y="248.5081967213115"/>
      <point x="1006.2950819672132" y="518.6229508196722" type="curve" smooth="yes"/>
      <point x="1006.2950819672132" y="770.5737704918032"/>
      <point x="842.8852459016393" y="906.9508196721312"/>
      <point x="610.1803278688524" y="906.9508196721312" type="curve" smooth="yes"/>
      <point x="545.9180327868853" y="906.9508196721312"/>
      <point x="496.2295081967213" y="897.3934426229508"/>
      <point x="454.75409836065575" y="888.6065573770492" type="curve"/>
      <point x="562.2622950819672" y="1254.622950819672" type="line"/>
      <point x="1067.4262295081967" y="1254.622950819672" type="line"/>
      <point x="1111.27868852459" y="1462.0" type="line"/>
      <point x="401.42622950819674" y="1462.0" type="line"/>
      <point x="198.88524590163934" y="754.0819672131148" type="line"/>
      <point x="287.27868852459017" y="686.672131147541" type="line"/>
      <point x="358.0163934426229" y="705.5737704918033"/>
      <point x="429.983606557377" y="721.9016393442622"/>
      <point x="511.9836065573771" y="721.9016393442622" type="curve" smooth="yes"/>
      <point x="681.983606557377" y="721.9016393442622"/>
      <point x="763.8524590163935" y="628.655737704918"/>
      <point x="763.8524590163935" y="489.8688524590164" type="curve" smooth="yes"/>
      <point x="763.8524590163935" y="328.8688524590164"/>
      <point x="664.5737704918032" y="175.26229508196724"/>
      <point x="396.27868852459017" y="175.26229508196724" type="curve" smooth="yes"/>
      <point x="270.8524590163935" y="175.26229508196724"/>
      <point x="152.31147540983605" y="217.14754098360658"/>
      <point x="54.31147540983606" y="275.9344262295082" type="curve"/>
      <point x="54.31147540983606" y="59.885245901639344" type="line"/>
      <point x="141.65573770491804" y="9.540983606557377"/>
      <point x="267.27868852459017" y="-20.0"/>
    </contour>
  </outline>
</glyph>
<glyph name="six" format="2">
  <advance width="1128.0"/>
  <unicode hex="0036"/>
  <outline>
    <contour>
      <point x="514.8852459016393" y="-20.0" type="curve" smooth="yes"/>
      <point x="894.9836065573771" y="-20.0"/>
      <point x="1037.7213114754097" y="310.42622950819674"/>
      <point x="1037.7213114754097" y="563.8360655737705" type="curve" smooth="yes"/>
      <point x="1037.7213114754097" y="802.3770491803278"/>
      <point x="908.4918032786886" y="933.2786885245902"/>
      <point x="707.4918032786886" y="933.2786885245902" type="curve" smooth="yes"/>
      <point x="564.7213114754098" y="933.2786885245902"/>
      <point x="454.57377049180326" y="863.9508196721312"/>
      <point x="381.44262295081967" y="765.0491803278688" type="curve"/>
      <point x="373.44262295081967" y="765.0491803278688" type="line"/>
      <point x="462.8032786885246" y="1126.4754098360656"/>
      <point x="644.5737704918033" y="1288.2786885245903"/>
      <point x="909.8852459016393" y="1288.2786885245903" type="curve" smooth="yes"/>
      <point x="980.344262295082" y="1288.2786885245903"/>
      <point x="1043.5245901639346" y="1278.27868852459"/>
      <point x="1090.2950819672133" y="1263.8360655737704" type="curve"/>
      <point x="1133.4918032786886" y="1459.1147540983607" type="line"/>
      <point x="1082.72131147541" y="1474.1147540983607"/>
      <point x="1006.7540983606557" y="1483.8852459016393"/>
      <point x="930.0" y="1483.8852459016393" type="curve" smooth="yes"/>
      <point x="712.8032786885246" y="1483.8852459016393"/>
      <point x="552.8032786885245" y="1418.311475409836"/>
      <point x="428.72131147540983" y="1298.8688524590164" type="curve" smooth="yes"/>
      <point x="217.91803278688525" y="1099.377049180328"/>
      <point x="110.85245901639342" y="745.311475409836"/>
      <point x="110.85245901639342" y="446.1475409836066" type="curve" smooth="yes"/>
      <point x="110.85245901639342" y="137.60655737704917"/>
      <point x="261.983606557377" y="-20.0"/>
    </contour>
    <contour>
      <point x="531.1147540983607" y="173.49180327868854" type="curve" smooth="yes"/>
      <point x="398.65573770491807" y="173.49180327868854"/>
      <point x="340.6393442622951" y="286.1475409836066"/>
      <point x="340.6393442622951" y="418.65573770491807" type="curve" smooth="yes"/>
      <point x="340.6393442622951" y="463.0327868852459"/>
      <point x="344.8688524590164" y="508.0819672131148"/>
      <point x="358.11475409836066" y="545.7704918032787" type="curve" smooth="yes"/>
      <point x="385.1475409836066" y="634.4262295081967"/>
      <point x="490.29508196721315" y="747.0"/>
      <point x="625.2459016393442" y="747.0" type="curve" smooth="yes"/>
      <point x="746.344262295082" y="747.0"/>
      <point x="805.2786885245902" y="671.6229508196722"/>
      <point x="805.2786885245902" y="544.7377049180328" type="curve" smooth="yes"/>
      <point x="805.2786885245902" y="357.65573770491807"/>
      <point x="709.5409836065573" y="173.49180327868854"/>
    </contour>
  </outline>
</glyph>
<glyph name="seven" format="2">
  <advance width="1128.0"/>
  <unicode hex="0037"/>
  <outline>
    <contour>
      <point x="127.04918032786884" y="0.0" type="line"/>
      <point x="388.327868852459" y="0.0" type="line"/>
      <point x="1147.016393442623" y="1296.4262295081967" type="line"/>
      <point x="1180.2131147540983" y="1462.0" type="line"/>
      <point x="247.57377049180326" y="1462.0" type="line"/>
      <point x="204.39344262295083" y="1258.2950819672133" type="line"/>
      <point x="879.0983606557377" y="1258.2950819672133" type="line"/>
    </contour>
  </outline>
</glyph>
<glyph name="colon" format="2">
  <advance width="550.5573770491803"/>
  <unicode hex="003A"/>
  <outline>
    <contour>
      <point x="332.4590163934426" y="827.4262295081967" type="curve" smooth="yes"/>
      <point x="443.4262295081967" y="827.4262295081967"/>
      <point x="505.2622950819672" y="909.4262295081967"/>
      <point x="505.2622950819672" y="1006.9344262295082" type="curve" smooth="yes"/>
      <point x="505.2622950819672" y="1088.9016393442623"/>
      <point x="456.29508196721315" y="1131.7540983606557"/>
      <point x="383.0163934426229" y="1131.7540983606557" type="curve" smooth="yes"/>
      <point x="256.42622950819674" y="1131.7540983606557"/>
      <point x="204.7704918032787" y="1043.016393442623"/>
      <point x="204.7704918032787" y="947.8032786885246" type="curve" smooth="yes"/>
      <point x="204.7704918032787" y="879.7049180327868"/>
      <point x="244.65573770491804" y="827.4262295081967"/>
    </contour>
    <contour>
      <point x="161.60655737704917" y="-28.11475409836066" type="curve" smooth="yes"/>
      <point x="272.57377049180326" y="-28.11475409836066"/>
      <point x="334.40983606557376" y="55.00000000000001"/>
      <point x="334.40983606557376" y="151.8360655737705" type="curve" smooth="yes"/>
      <point x="334.40983606557376" y="232.68852459016392"/>
      <point x="285.0" y="276.7704918032787"/>
      <point x="212.27868852459017" y="276.7704918032787" type="curve" smooth="yes"/>
      <point x="85.57377049180327" y="276.7704918032787"/>
      <point x="33.91803278688524" y="187.91803278688525"/>
      <point x="33.91803278688524" y="94.37704918032787" type="curve" smooth="yes"/>
      <point x="33.91803278688524" y="24.606557377049185"/>
      <point x="73.80327868852459" y="-28.11475409836066"/>
    </contour>
  </outline>
</glyph>
<glyph name="semicolon" format="2">
  <advance width="550.5573770491803"/>
  <unicode hex="003B"/>
  <outline>
    <contour>
      <point x="-100.88524590163935" y="-264.0" type="curve"/>
      <point x="75.06557377049182" y="-264.0" type="line"/>
      <point x="171.06557377049182" y="-115.0"/>
      <point x="274.96721311475414" y="70.0"/>
      <point x="341.5245901639344" y="215.0" type="curve"/>
      <point x="333.5245901639344" y="238.0" type="line"/>
      <point x="97.57377049180327" y="238.0" type="line"/>
      <point x="46.57377049180328" y="96.0"/>
      <point x="-29.885245901639344" y="-102.0"/>
    </contour>
    <contour>
      <point x="332.4590163934426" y="827.4262295081967" type="curve" smooth="yes"/>
      <point x="443.42622950819674" y="827.4262295081967"/>
      <point x="505.26229508196724" y="909.4262295081967"/>
      <point x="505.26229508196724" y="1006.9344262295082" type="curve" smooth="yes"/>
      <point x="505.26229508196724" y="1088.9016393442623"/>
      <point x="456.29508196721315" y="1131.7540983606557"/>
      <point x="383.016393442623" y="1131.7540983606557" type="curve" smooth="yes"/>
      <point x="256.42622950819674" y="1131.7540983606557"/>
      <point x="204.77049180327867" y="1043.016393442623"/>
      <point x="204.77049180327867" y="947.8032786885246" type="curve" smooth="yes"/>
      <point x="204.77049180327867" y="879.7049180327868"/>
      <point x="244.65573770491804" y="827.4262295081967"/>
    </contour>
  </outline>
</glyph>
<glyph name="less" format="2">
  <advance width="1171.0"/>
  <unicode hex="003C"/>
  <outline>
    <contour>
      <point x="1105.344262295082" y="222.50819672131146" type="line"/>
      <point x="1105.344262295082" y="416.91803278688525" type="line"/>
      <point x="372.29508196721315" y="721.8852459016393" type="line"/>
      <point x="1105.344262295082" y="1065.0819672131147" type="line"/>
      <point x="1105.344262295082" y="1260.4918032786884" type="line"/>
      <point x="127.95081967213113" y="772.8524590163934" type="line"/>
      <point x="127.95081967213113" y="652.704918032787" type="line"/>
    </contour>
  </outline>
</glyph>
<glyph name="equal" format="2">
  <advance width="1171.0"/>
  <unicode hex="003D"/>
  <outline>
    <contour>
      <point x="135.19672131147541" y="832.0819672131148" type="line"/>
      <point x="1097.5409836065573" y="832.0819672131148" type="line"/>
      <point x="1097.5409836065573" y="1008.950819672131" type="line"/>
      <point x="135.19672131147541" y="1008.950819672131" type="line"/>
    </contour>
    <contour>
      <point x="135.19672131147541" y="432.4918032786885" type="line"/>
      <point x="1097.5409836065573" y="432.4918032786885" type="line"/>
      <point x="1097.5409836065573" y="610.8032786885246" type="line"/>
      <point x="135.19672131147541" y="610.8032786885246" type="line"/>
    </contour>
  </outline>
</glyph>
<glyph name="at" format="2">
  <advance width="1744.081967213115"/>
  <unicode hex="0040"/>
  <outline>
    <contour>
      <point x="793.7540983606558" y="-186.0" type="curve" smooth="yes"/>
      <point x="955.6885245901639" y="-186.0"/>
      <point x="1111.9180327868853" y="-150.9016393442623"/>
      <point x="1247.6065573770493" y="-96.0" type="curve"/>
      <point x="1247.6065573770493" y="60.45901639344263" type="line"/>
      <point x="1116.4262295081967" y="9.918032786885249"/>
      <point x="973.4918032786886" y="-25.54098360655737"/>
      <point x="817.1967213114754" y="-25.54098360655737" type="curve" smooth="yes"/>
      <point x="455.4262295081967" y="-25.54098360655737"/>
      <point x="285.45901639344265" y="199.63934426229508"/>
      <point x="285.45901639344265" y="516.4262295081968" type="curve" smooth="yes"/>
      <point x="285.45901639344265" y="973.1967213114754"/>
      <point x="592.9016393442623" y="1302.426229508197"/>
      <point x="1033.5737704918033" y="1302.426229508197" type="curve" smooth="yes"/>
      <point x="1383.0819672131147" y="1302.426229508197"/>
      <point x="1523.8196721311476" y="1104.8852459016393"/>
      <point x="1523.8196721311476" y="836.0" type="curve" smooth="yes"/>
      <point x="1523.8196721311476" y="611.0655737704918"/>
      <point x="1417.2622950819673" y="364.1475409836066"/>
      <point x="1258.327868852459" y="364.1475409836066" type="curve" smooth="yes"/>
      <point x="1213.0655737704917" y="364.1475409836066"/>
      <point x="1178.032786885246" y="388.72131147540983"/>
      <point x="1178.032786885246" y="457.2295081967213" type="curve" smooth="yes"/>
      <point x="1178.032786885246" y="502.45901639344265"/>
      <point x="1188.9180327868853" y="545.9180327868853"/>
      <point x="1208.377049180328" y="617.7377049180328" type="curve" smooth="yes"/>
      <point x="1308.8032786885246" y="1007.639344262295" type="line"/>
      <point x="1232.9344262295083" y="1037.5245901639344"/>
      <point x="1144.967213114754" y="1065.4262295081967"/>
      <point x="1006.8852459016393" y="1065.4262295081967" type="curve" smooth="yes"/>
      <point x="707.9672131147541" y="1065.4262295081967"/>
      <point x="487.2295081967213" y="816.0819672131147"/>
      <point x="487.2295081967213" y="508.42622950819674" type="curve" smooth="yes"/>
      <point x="487.2295081967213" y="308.3770491803279"/>
      <point x="593.0819672131147" y="211.68852459016392"/>
      <point x="744.5245901639345" y="211.68852459016392" type="curve" smooth="yes"/>
      <point x="875.983606557377" y="211.68852459016392"/>
      <point x="959.2459016393443" y="281.50819672131144"/>
      <point x="1017.8032786885245" y="378.1967213114754" type="curve"/>
      <point x="1026.688524590164" y="378.1967213114754" type="line"/>
      <point x="1042.8852459016393" y="279.5409836065574"/>
      <point x="1109.9344262295083" y="211.68852459016392"/>
      <point x="1242.5737704918033" y="211.68852459016392" type="curve" smooth="yes"/>
      <point x="1521.5737704918033" y="211.68852459016392"/>
      <point x="1705.1311475409836" y="498.72131147540983"/>
      <point x="1705.1311475409836" y="845.5737704918032" type="curve" smooth="yes"/>
      <point x="1705.1311475409836" y="1201.2295081967213"/>
      <point x="1488.1475409836064" y="1460.8852459016393"/>
      <point x="1059.688524590164" y="1460.8852459016393" type="curve" smooth="yes"/>
      <point x="504.8688524590164" y="1460.8852459016393"/>
      <point x="101.47540983606557" y="1053.672131147541"/>
      <point x="101.47540983606557" y="502.22950819672127" type="curve" smooth="yes"/>
      <point x="101.47540983606557" y="89.91803278688525"/>
      <point x="356.8524590163934" y="-186.0"/>
    </contour>
    <contour>
      <point x="788.6065573770492" y="364.1475409836066" type="curve" smooth="yes"/>
      <point x="720.0983606557378" y="364.1475409836066"/>
      <point x="675.0983606557377" y="408.06557377049177"/>
      <point x="675.0983606557377" y="521.5409836065573" type="curve" smooth="yes"/>
      <point x="675.0983606557377" y="715.7049180327868"/>
      <point x="798.5409836065573" y="914.0819672131147"/>
      <point x="989.4262295081967" y="914.0819672131147" type="curve" smooth="yes"/>
      <point x="1034.4590163934427" y="914.0819672131147"/>
      <point x="1068.606557377049" y="905.6229508196722"/>
      <point x="1094.2786885245903" y="896.8360655737705" type="curve"/>
      <point x="1031.1475409836066" y="657.0" type="line" smooth="yes"/>
      <point x="983.6885245901639" y="483.18032786885243"/>
      <point x="908.5409836065573" y="364.1475409836066"/>
    </contour>
  </outline>
</glyph>
<glyph name="A" format="2">
  <advance width="1210.754098360656"/>
  <unicode hex="0041"/>
  <anchor x="487.77049180327873" y="0.0" name="bottom"/>
  <anchor x="799.2131147540983" y="1462.0" name="top"/>
  <anchor x="1363.8688524590166" y="1462.0" name="topright"/>
  <outline>
    <contour>
      <point x="-119.65573770491804" y="0.0" type="line"/>
      <point x="134.01639344262298" y="0.0" type="line"/>
      <point x="342.80327868852464" y="407.6393442622951" type="line"/>
      <point x="826.9508196721312" y="407.6393442622951" type="line"/>
      <point x="868.2295081967213" y="0.0" type="line"/>
      <point x="1100.5737704918033" y="0.0" type="line"/>
      <point x="934.6229508196722" y="1462.0" type="line"/>
      <point x="662.5081967213115" y="1462.0" type="line"/>
    </contour>
    <contour>
      <point x="447.18032786885243" y="613.5737704918033" type="line"/>
      <point x="619.672131147541" y="956.0655737704918" type="line" smooth="yes"/>
      <point x="673.4918032786885" y="1059.688524590164"/>
      <point x="719.8688524590164" y="1158.1147540983607"/>
      <point x="756.4590163934427" y="1249.393442622951" type="curve"/>
      <point x="762.0163934426229" y="1249.393442622951" type="line"/>
      <point x="761.8032786885246" y="1157.262295081967"/>
      <point x="772.1475409836065" y="1045.4918032786886"/>
      <point x="780.3770491803278" y="952.1147540983605" type="curve" smooth="yes"/>
      <point x="810.2786885245902" y="613.5737704918033" type="line"/>
    </contour>
  </outline>
</glyph>
<glyph name="B" format="2">
  <advance width="1247.1475409836066"/>
  <unicode hex="0042"/>
  <anchor x="581.8360655737705" y="0.0" name="bottom"/>
  <anchor x="816.3114754098361" y="1462.0" name="top"/>
  <anchor x="1399.2622950819673" y="1462.0" name="topright"/>
  <outline>
    <contour>
      <point x="70.27868852459017" y="0.0" type="line"/>
      <point x="561.6229508196722" y="0.0" type="line" smooth="yes"/>
      <point x="887.6229508196722" y="0.0"/>
      <point x="1129.2622950819673" y="151.1311475409836"/>
      <point x="1129.2622950819673" y="464.7377049180328" type="curve" smooth="yes"/>
      <point x="1129.2622950819673" y="620.2131147540983"/>
      <point x="1034.344262295082" y="716.7704918032787"/>
      <point x="901.344262295082" y="752.8852459016393" type="curve"/>
      <point x="901.344262295082" y="762.0" type="line"/>
      <point x="1101.5573770491803" y="801.655737704918"/>
      <point x="1225.9180327868853" y="932.4262295081968"/>
      <point x="1225.9180327868853" y="1130.8688524590164" type="curve" smooth="yes"/>
      <point x="1225.9180327868853" y="1364.4262295081967"/>
      <point x="1053.0655737704917" y="1462.0"/>
      <point x="779.0819672131148" y="1462.0" type="curve" smooth="yes"/>
      <point x="379.27868852459017" y="1462.0" type="line"/>
    </contour>
    <contour>
      <point x="349.016393442623" y="200.26229508196724" type="line"/>
      <point x="448.29508196721315" y="665.4262295081967" type="line"/>
      <point x="648.967213114754" y="665.4262295081967" type="line" smooth="yes"/>
      <point x="816.5573770491803" y="665.4262295081967"/>
      <point x="885.4754098360655" y="582.4590163934425"/>
      <point x="885.4754098360655" y="463.8524590163935" type="curve" smooth="yes"/>
      <point x="885.4754098360655" y="294.0983606557377"/>
      <point x="767.1967213114754" y="200.26229508196724"/>
      <point x="572.4918032786885" y="200.26229508196724" type="curve" smooth="yes"/>
    </contour>
    <contour>
      <point x="488.70491803278685" y="859.032786885246" type="line"/>
      <point x="574.4262295081967" y="1262.0655737704917" type="line"/>
      <point x="757.0819672131147" y="1262.0655737704917" type="line" smooth="yes"/>
      <point x="913.8852459016393" y="1262.0655737704917"/>
      <point x="980.5901639344261" y="1201.1311475409836"/>
      <point x="980.5901639344261" y="1089.3934426229507" type="curve" smooth="yes"/>
      <point x="980.5901639344261" y="930.1967213114755"/>
      <point x="854.4918032786885" y="859.032786885246"/>
      <point x="688.4262295081967" y="859.032786885246" type="curve" smooth="yes"/>
    </contour>
  </outline>
</glyph>
<glyph name="C" format="2">
  <advance width="1224.5737704918033"/>
  <unicode hex="0043"/>
  <anchor x="638.2786885245902" y="0.0" name="bottom"/>
  <anchor x="901.9180327868852" y="1462.0" name="top"/>
  <anchor x="1377.688524590164" y="1462.0" name="topright"/>
  <outline>
    <contour>
      <point x="664.016393442623" y="-20.0" type="curve" smooth="yes"/>
      <point x="827.4098360655738" y="-20.0"/>
      <point x="944.1147540983607" y="12.180327868852462"/>
      <point x="1039.4918032786886" y="48.08196721311475" type="curve"/>
      <point x="1039.4918032786886" y="252.344262295082" type="line"/>
      <point x="931.5081967213115" y="212.91803278688525"/>
      <point x="820.967213114754" y="184.81967213114757"/>
      <point x="709.295081967213" y="184.81967213114757" type="curve" smooth="yes"/>
      <point x="495.80327868852464" y="184.81967213114757"/>
      <point x="382.72131147540983" y="318.45901639344265"/>
      <point x="382.72131147540983" y="554.5081967213115" type="curve" smooth="yes"/>
      <point x="382.72131147540983" y="886.655737704918"/>
      <point x="549.9180327868853" y="1279.3934426229507"/>
      <point x="923.3934426229508" y="1279.3934426229507" type="curve" smooth="yes"/>
      <point x="1045.2786885245903" y="1279.3934426229507"/>
      <point x="1135.934426229508" y="1241.967213114754"/>
      <point x="1219.2295081967213" y="1196.327868852459" type="curve"/>
      <point x="1312.1475409836066" y="1391.7049180327867" type="line"/>
      <point x="1198.1967213114756" y="1453.344262295082"/>
      <point x="1082.7540983606557" y="1483.8852459016393"/>
      <point x="923.3934426229508" y="1483.8852459016393" type="curve" smooth="yes"/>
      <point x="384.8524590163935" y="1483.8852459016393"/>
      <point x="136.37704918032787" y="980.7704918032787"/>
      <point x="136.37704918032787" y="545.1967213114755" type="curve" smooth="yes"/>
      <point x="136.37704918032787" y="197.42622950819674"/>
      <point x="325.62295081967216" y="-20.0"/>
    </contour>
  </outline>
</glyph>
<glyph name="E" format="2">
  <advance width="1078.2295081967213"/>
  <unicode hex="0045"/>
  <anchor x="492.2950819672131" y="0.0" name="bottom"/>
  <anchor x="756.2295081967213" y="1462.0" name="top"/>
  <anchor x="1230.7868852459017" y="1462.0" name="topright"/>
  <outline>
    <contour>
      <point x="70.27868852459017" y="0.0" type="line"/>
      <point x="844.9180327868853" y="0.0" type="line"/>
      <point x="888.327868852459" y="203.6065573770492" type="line"/>
      <point x="349.016393442623" y="203.6065573770492" type="line"/>
      <point x="447.4098360655738" y="661.4262295081967" type="line"/>
      <point x="950.6065573770492" y="661.4262295081967" type="line"/>
      <point x="992.2295081967213" y="863.0327868852459" type="line"/>
      <point x="489.59016393442624" y="863.0327868852459" type="line"/>
      <point x="573.3114754098361" y="1259.27868852459" type="line"/>
      <point x="1111.5081967213116" y="1259.27868852459" type="line"/>
      <point x="1154.9180327868853" y="1462.0" type="line"/>
      <point x="379.27868852459017" y="1462.0" type="line"/>
    </contour>
  </outline>
</glyph>
<glyph name="F" format="2">
  <advance width="1025.688524590164"/>
  <unicode hex="0046"/>
  <anchor x="396.45901639344265" y="0.0" name="bottom"/>
  <anchor x="707.4590163934427" y="1462.0" name="top"/>
  <anchor x="1178.2459016393443" y="1462.0" name="topright"/>
  <outline>
    <contour>
      <point x="70.27868852459017" y="0.0" type="line"/>
      <point x="306.72131147540983" y="0.0" type="line"/>
      <point x="433.2950819672131" y="600.2950819672132" type="line"/>
      <point x="935.2786885245902" y="600.2950819672132" type="line"/>
      <point x="979.016393442623" y="802.5737704918033" type="line"/>
      <point x="477.59016393442624" y="802.5737704918033" type="line"/>
      <point x="573.3114754098361" y="1259.27868852459" type="line"/>
      <point x="1110.8524590163936" y="1259.27868852459" type="line"/>
      <point x="1153.1475409836066" y="1462.0" type="line"/>
      <point x="379.27868852459017" y="1462.0" type="line"/>
    </contour>
  </outline>
</glyph>
<glyph name="H" format="2">
  <advance width="1411.1475409836066"/>
  <unicode hex="0048"/>
  <anchor x="606.8852459016393" y="0.0" name="bottom"/>
  <anchor x="785.0655737704917" y="731.0" name="center"/>
  <anchor x="893.1967213114754" y="1462.0" name="top"/>
  <anchor x="1563.262295081967" y="1462.0" name="topright"/>
  <outline>
    <contour>
      <point x="71.3934426229508" y="0.0" type="line"/>
      <point x="307.8360655737705" y="0.0" type="line"/>
      <point x="447.4098360655738" y="659.4262295081967" type="line"/>
      <point x="1014.2786885245902" y="659.4262295081967" type="line"/>
      <point x="874.704918032787" y="0.0" type="line"/>
      <point x="1111.032786885246" y="0.0" type="line"/>
      <point x="1420.032786885246" y="1462.0" type="line"/>
      <point x="1184.704918032787" y="1462.0" type="line"/>
      <point x="1058.1311475409836" y="863.9180327868852" type="line"/>
      <point x="490.7049180327869" y="863.9180327868852" type="line"/>
      <point x="617.8360655737705" y="1462.0" type="line"/>
      <point x="380.3934426229508" y="1462.0" type="line"/>
    </contour>
  </outline>
</glyph>
<glyph name="J" format="2">
  <advance width="611.672131147541"/>
  <unicode hex="004A"/>
  <anchor x="-151.1639344262295" y="-407.1475409836065" name="bottom"/>
  <anchor x="508.016393442623" y="1462.0" name="top"/>
  <anchor x="764.344262295082" y="1462.0" name="topright"/>
  <outline>
    <contour>
      <point x="-151.1639344262295" y="-407.1475409836065" type="curve" smooth="yes"/>
      <point x="98.81967213114754" y="-407.1475409836065"/>
      <point x="255.91803278688525" y="-286.96721311475414"/>
      <point x="320.672131147541" y="16.147540983606564" type="curve" smooth="yes"/>
      <point x="627.5737704918033" y="1462.0" type="line"/>
      <point x="390.57377049180326" y="1462.0" type="line"/>
      <point x="89.77049180327869" y="46.32786885245903" type="line" smooth="yes"/>
      <point x="52.77049180327869" y="-128.7868852459016"/>
      <point x="-38.14754098360656" y="-201.77049180327867"/>
      <point x="-163.57377049180326" y="-201.77049180327867" type="curve" smooth="yes"/>
      <point x="-223.0" y="-201.77049180327867"/>
      <point x="-273.7704918032787" y="-192.88524590163934"/>
      <point x="-316.9836065573771" y="-181.77049180327867" type="curve"/>
      <point x="-320.327868852459" y="-381.81967213114757" type="line"/>
      <point x="-281.4754098360655" y="-396.26229508196724"/>
      <point x="-224.57377049180326" y="-407.1475409836065"/>
    </contour>
  </outline>
</glyph>
<glyph name="L" format="2">
  <advance width="1015.295081967213"/>
  <unicode hex="004C"/>
  <anchor x="459.42622950819674" y="0.0" name="bottom"/>
  <anchor x="586.9180327868852" y="731.0" name="center"/>
  <anchor x="542.1147540983607" y="1462.0" name="top"/>
  <anchor x="974.7540983606558" y="1462.0" name="topright"/>
  <outline>
    <contour>
      <point x="70.27868852459017" y="0.0" type="line"/>
      <point x="844.9180327868853" y="0.0" type="line"/>
      <point x="888.327868852459" y="204.72131147540986" type="line"/>
      <point x="349.016393442623" y="204.72131147540986" type="line"/>
      <point x="616.1639344262296" y="1462.0" type="line"/>
      <point x="379.27868852459017" y="1462.0" type="line"/>
    </contour>
  </outline>
</glyph>
<glyph name="O" format="2">
  <advance width="1484.967213114754"/>
  <unicode hex="004F"/>
  <anchor x="661.7868852459017" y="0.0" name="bottom"/>
  <anchor x="822.311475409836" y="731.0" name="center"/>
  <anchor x="936.655737704918" y="1462.0" name="top"/>
  <anchor x="1637.5245901639344" y="1462.0" name="topright"/>
  <outline>
    <contour>
      <point x="679.3770491803278" y="-20.0" type="curve" smooth="yes"/>
      <point x="1179.377049180328" y="-20.0"/>
      <point x="1421.409836065574" y="428.672131147541"/>
      <point x="1421.409836065574" y="921.8360655737705" type="curve" smooth="yes"/>
      <point x="1421.409836065574" y="1266.8852459016393"/>
      <point x="1233.1639344262294" y="1485.0"/>
      <point x="891.4262295081967" y="1485.0" type="curve" smooth="yes"/>
      <point x="399.0" y="1485.0"/>
      <point x="136.37704918032787" y="1025.327868852459"/>
      <point x="136.37704918032787" y="542.5737704918033" type="curve" smooth="yes"/>
      <point x="136.37704918032787" y="198.7704918032787"/>
      <point x="327.1639344262295" y="-20.0"/>
    </contour>
    <contour>
      <point x="692.4590163934425" y="184.81967213114757" type="curve" smooth="yes"/>
      <point x="498.45901639344265" y="184.81967213114757"/>
      <point x="382.72131147540983" y="314.688524590164"/>
      <point x="382.72131147540983" y="544.8032786885246" type="curve" smooth="yes"/>
      <point x="382.72131147540983" y="947.7868852459017"/>
      <point x="578.4262295081967" y="1280.5081967213114"/>
      <point x="873.1147540983607" y="1280.5081967213114" type="curve" smooth="yes"/>
      <point x="1064.4262295081967" y="1280.5081967213114"/>
      <point x="1175.1803278688526" y="1145.672131147541"/>
      <point x="1175.1803278688526" y="920.5245901639345" type="curve" smooth="yes"/>
      <point x="1175.1803278688526" y="504.4262295081967"/>
      <point x="979.5081967213115" y="184.81967213114757"/>
    </contour>
  </outline>
</glyph>
<glyph name="P" format="2">
  <advance width="1199.9508196721313"/>
  <unicode hex="0050"/>
  <anchor x="483.1475409836065" y="0.0" name="bottom"/>
  <anchor x="774.6229508196722" y="1462.0" name="top"/>
  <anchor x="1353.065573770492" y="1462.0" name="topright"/>
  <outline>
    <contour>
      <point x="70.27868852459017" y="0.0" type="line"/>
      <point x="306.72131147540983" y="0.0" type="line"/>
      <point x="422.40983606557376" y="548.4262295081968" type="line"/>
      <point x="564.4754098360656" y="548.4262295081968" type="line" smooth="yes"/>
      <point x="958.8032786885246" y="548.4262295081968"/>
      <point x="1204.8196721311476" y="723.6721311475409"/>
      <point x="1204.8196721311476" y="1061.081967213115" type="curve" smooth="yes"/>
      <point x="1204.8196721311476" y="1300.590163934426"/>
      <point x="1076.9508196721313" y="1462.0"/>
      <point x="743.8032786885246" y="1462.0" type="curve" smooth="yes"/>
      <point x="379.27868852459017" y="1462.0" type="line"/>
    </contour>
    <contour>
      <point x="465.1475409836066" y="746.688524590164" type="line"/>
      <point x="574.4262295081967" y="1262.0655737704917" type="line"/>
      <point x="724.5573770491803" y="1262.0655737704917" type="line" smooth="yes"/>
      <point x="885.8852459016393" y="1262.0655737704917"/>
      <point x="964.8196721311475" y="1198.934426229508"/>
      <point x="964.8196721311475" y="1054.1967213114754" type="curve" smooth="yes"/>
      <point x="964.8196721311475" y="849.049180327869"/>
      <point x="817.8524590163935" y="746.688524590164"/>
      <point x="591.2622950819672" y="746.688524590164" type="curve" smooth="yes"/>
    </contour>
  </outline>
</glyph>
<glyph name="Q" format="2">
  <advance width="1484.967213114754"/>
  <unicode hex="0051"/>
  <anchor x="551.655737704918" y="-348.0" name="bottom"/>
  <anchor x="936.655737704918" y="1462.0" name="top"/>
  <anchor x="1637.5245901639344" y="1462.0" name="topright"/>
  <outline>
    <contour>
      <point x="911.2459016393443" y="-348.0" type="line"/>
      <point x="1200.5737704918033" y="-348.0" type="line"/>
      <point x="934.8688524590165" y="27.721311475409838" type="line"/>
      <point x="1254.2295081967213" y="152.65573770491804"/>
      <point x="1421.409836065574" y="519.7540983606557"/>
      <point x="1421.409836065574" y="921.8360655737705" type="curve" smooth="yes"/>
      <point x="1421.409836065574" y="1266.8852459016393"/>
      <point x="1233.1639344262294" y="1485.0"/>
      <point x="891.4262295081967" y="1485.0" type="curve" smooth="yes"/>
      <point x="399.0" y="1485.0"/>
      <point x="136.37704918032787" y="1025.327868852459"/>
      <point x="136.37704918032787" y="542.5737704918033" type="curve" smooth="yes"/>
      <point x="136.37704918032787" y="198.77049180327867"/>
      <point x="327.1639344262295" y="-20.0"/>
      <point x="679.3770491803278" y="-20.0" type="curve" smooth="yes"/>
      <point x="688.4918032786885" y="-20.0"/>
      <point x="699.0491803278688" y="-20.0"/>
      <point x="709.2786885245902" y="-18.885245901639344" type="curve"/>
    </contour>
    <contour>
      <point x="692.4590163934425" y="184.81967213114757" type="curve" smooth="yes"/>
      <point x="498.45901639344265" y="184.81967213114757"/>
      <point x="382.72131147540983" y="314.688524590164"/>
      <point x="382.72131147540983" y="544.8032786885246" type="curve" smooth="yes"/>
      <point x="382.72131147540983" y="947.7868852459017"/>
      <point x="578.4262295081967" y="1280.5081967213114"/>
      <point x="873.1147540983607" y="1280.5081967213114" type="curve" smooth="yes"/>
      <point x="1064.4262295081967" y="1280.5081967213114"/>
      <point x="1175.1803278688526" y="1145.672131147541"/>
      <point x="1175.1803278688526" y="920.5245901639345" type="curve" smooth="yes"/>
      <point x="1175.1803278688526" y="504.4262295081967"/>
      <point x="983.967213114754" y="184.81967213114757"/>
    </contour>
  </outline>
</glyph>
<glyph name="S" format="2">
  <advance width="1056.5737704918033"/>
  <unicode hex="0053"/>
  <anchor x="405.8688524590164" y="0.0" name="bottom"/>
  <anchor x="704.8360655737705" y="1462.0" name="top"/>
  <anchor x="1209.688524590164" y="1462.0" name="topright"/>
  <outline>
    <contour>
      <point x="386.96721311475414" y="-20.0" type="curve" smooth="yes"/>
      <point x="700.2295081967213" y="-20.0"/>
      <point x="928.7213114754098" y="128.34426229508196"/>
      <point x="928.7213114754098" y="427.5409836065574" type="curve" smooth="yes"/>
      <point x="928.7213114754098" y="615.7049180327868"/>
      <point x="826.4262295081967" y="716.9672131147541"/>
      <point x="656.5081967213115" y="823.4098360655737" type="curve" smooth="yes"/>
      <point x="527.016393442623" y="903.4262295081968"/>
      <point x="460.45901639344265" y="950.4262295081968"/>
      <point x="460.45901639344265" y="1066.5737704918033" type="curve" smooth="yes"/>
      <point x="460.45901639344265" y="1198.9016393442623"/>
      <point x="561.639344262295" y="1278.5081967213114"/>
      <point x="703.5245901639345" y="1278.5081967213114" type="curve" smooth="yes"/>
      <point x="807.2295081967213" y="1278.5081967213114"/>
      <point x="910.9344262295082" y="1244.590163934426"/>
      <point x="996.5409836065573" y="1201.1639344262294" type="curve"/>
      <point x="1083.8032786885244" y="1391.2459016393443" type="line"/>
      <point x="971.7213114754098" y="1450.0"/>
      <point x="856.1967213114754" y="1483.0"/>
      <point x="703.5245901639344" y="1483.0" type="curve" smooth="yes"/>
      <point x="421.37704918032784" y="1483.0"/>
      <point x="213.2295081967213" y="1315.2786885245903"/>
      <point x="213.2295081967213" y="1049.7049180327867" type="curve" smooth="yes"/>
      <point x="213.2295081967213" y="854.7213114754098"/>
      <point x="331.3114754098361" y="751.655737704918"/>
      <point x="472.1475409836065" y="661.4262295081967" type="curve" smooth="yes"/>
      <point x="616.2786885245902" y="572.0491803278688"/>
      <point x="684.9344262295082" y="513.5737704918033"/>
      <point x="684.9344262295082" y="403.3606557377049" type="curve" smooth="yes"/>
      <point x="684.9344262295082" y="250.21311475409837"/>
      <point x="551.7213114754098" y="181.93442622950823"/>
      <point x="388.9672131147541" y="181.93442622950823" type="curve" smooth="yes"/>
      <point x="252.0327868852459" y="181.93442622950823"/>
      <point x="139.14754098360658" y="223.60655737704917"/>
      <point x="39.885245901639344" y="277.672131147541" type="curve"/>
      <point x="39.885245901639344" y="56.0655737704918" type="line"/>
      <point x="129.45901639344262" y="6.196721311475411"/>
      <point x="243.31147540983605" y="-20.0"/>
    </contour>
  </outline>
</glyph>
<glyph name="T" format="2">
  <advance width="1053.0"/>
  <unicode hex="0054"/>
  <anchor x="409.8360655737705" y="0.0" name="bottom"/>
  <anchor x="607.4918032786886" y="731.0" name="center"/>
  <anchor x="721.3934426229508" y="1462.0" name="top"/>
  <anchor x="1206.1147540983607" y="1462.0" name="topright"/>
  <outline>
    <contour>
      <point x="291.08196721311475" y="0.0" type="line"/>
      <point x="529.1967213114755" y="0.0" type="line"/>
      <point x="795.4590163934427" y="1257.5081967213114" type="line"/>
      <point x="1175.7704918032787" y="1257.5081967213114" type="line"/>
      <point x="1217.9508196721313" y="1462.0" type="line"/>
      <point x="220.77049180327867" y="1462.0" type="line"/>
      <point x="176.91803278688525" y="1257.5081967213114" type="line"/>
      <point x="556.7868852459015" y="1257.5081967213114" type="line"/>
    </contour>
  </outline>
</glyph>
<glyph name="V" format="2">
  <advance width="1164.5245901639344"/>
  <unicode hex="0056"/>
  <anchor x="459.49180327868856" y="0.0" name="bottom"/>
  <anchor x="756.688524590164" y="1462.0" name="top"/>
  <anchor x="1317.639344262295" y="1462.0" name="topright"/>
  <outline>
    <contour>
      <point x="330.5081967213115" y="0.0" type="line"/>
      <point x="587.0327868852459" y="0.0" type="line"/>
      <point x="1351.7540983606557" y="1462.0" type="line"/>
      <point x="1098.7377049180327" y="1462.0" type="line"/>
      <point x="643.6557377049181" y="558.032786885246" type="line" smooth="yes"/>
      <point x="586.9508196721312" y="444.0819672131148"/>
      <point x="542.1475409836065" y="342.1803278688525"/>
      <point x="506.9016393442623" y="247.72131147540983" type="curve"/>
      <point x="500.6885245901639" y="247.72131147540983" type="line"/>
      <point x="504.90163934426226" y="336.86885245901647"/>
      <point x="500.44262295081967" y="456.75409836065575"/>
      <point x="491.5409836065574" y="556.9180327868853" type="curve" smooth="yes"/>
      <point x="417.688524590164" y="1462.0" type="line"/>
      <point x="186.22950819672133" y="1462.0" type="line"/>
    </contour>
  </outline>
</glyph>
<glyph name="W" format="2">
  <advance width="1787.5245901639344"/>
  <unicode hex="0057"/>
  <anchor x="793.0655737704918" y="0.0" name="bottom"/>
  <anchor x="1087.377049180328" y="1462.0" name="top"/>
  <anchor x="1940.1967213114754" y="1462.0" name="topright"/>
  <outline>
    <contour>
      <point x="257.983606557377" y="0.0" type="line"/>
      <point x="512.3770491803278" y="0.0" type="line"/>
      <point x="896.5737704918033" y="839.950819672131" type="line" smooth="yes"/>
      <point x="949.2786885245902" y="955.9180327868852"/>
      <point x="983.4918032786885" y="1040.5409836065573"/>
      <point x="1014.032786885246" y="1134.4918032786884" type="curve"/>
      <point x="1020.9180327868852" y="1134.4918032786884" type="line"/>
      <point x="1019.1475409836065" y="1041.1967213114754"/>
      <point x="1021.1475409836065" y="948.7868852459015"/>
      <point x="1026.2622950819673" y="819.8360655737705" type="curve" smooth="yes"/>
      <point x="1058.4262295081967" y="0.0" type="line"/>
      <point x="1315.8032786885246" y="0.0" type="line"/>
      <point x="1971.72131147541" y="1462.0" type="line"/>
      <point x="1726.8196721311474" y="1462.0" type="line"/>
      <point x="1367.27868852459" y="616.9508196721312" type="line" smooth="yes"/>
      <point x="1322.032786885246" y="508.344262295082"/>
      <point x="1274.1639344262296" y="374.2622950819673"/>
      <point x="1237.1639344262296" y="265.72131147540983" type="curve"/>
      <point x="1230.2786885245903" y="265.72131147540983" type="line"/>
      <point x="1234.934426229508" y="371.1475409836066"/>
      <point x="1234.7049180327867" y="519.4918032786885"/>
      <point x="1228.8032786885246" y="622.377049180328" type="curve" smooth="yes"/>
      <point x="1197.0983606557377" y="1462.0" type="line"/>
      <point x="973.9180327868853" y="1462.0" type="line"/>
      <point x="587.0819672131148" y="620.1475409836065" type="line" smooth="yes"/>
      <point x="538.3770491803278" y="515.5245901639345"/>
      <point x="484.0327868852459" y="372.72131147540983"/>
      <point x="445.91803278688525" y="265.72131147540983" type="curve"/>
      <point x="439.0327868852459" y="265.72131147540983" type="line"/>
      <point x="446.8032786885246" y="373.8360655737705"/>
      <point x="451.91803278688525" y="504.14754098360663"/>
      <point x="449.6885245901639" y="612.1639344262295" type="curve" smooth="yes"/>
      <point x="430.8688524590164" y="1462.0" type="line"/>
      <point x="203.5081967213115" y="1462.0" type="line"/>
    </contour>
  </outline>
</glyph>
<glyph name="X" format="2">
  <advance width="1150.704918032787"/>
  <unicode hex="0058"/>
  <anchor x="458.5245901639344" y="0.0" name="bottom"/>
  <anchor x="735.4098360655738" y="1462.0" name="top"/>
  <anchor x="1303.8196721311476" y="1462.0" name="topright"/>
  <outline>
    <contour>
      <point x="-110.8688524590164" y="0.0" type="line"/>
      <point x="151.98360655737707" y="0.0" type="line"/>
      <point x="592.016393442623" y="593.1639344262294" type="line"/>
      <point x="784.6393442622951" y="0.0" type="line"/>
      <point x="1038.72131147541" y="0.0" type="line"/>
      <point x="765.704918032787" y="753.1639344262295" type="line"/>
      <point x="1315.1639344262296" y="1462.0" type="line"/>
      <point x="1051.426229508197" y="1462.0" type="line"/>
      <point x="648.2950819672132" y="921.1475409836065" type="line"/>
      <point x="470.21311475409834" y="1462.0" type="line"/>
      <point x="225.45901639344262" y="1462.0" type="line"/>
      <point x="475.72131147540983" y="769.5737704918033" type="line"/>
    </contour>
  </outline>
</glyph>
<glyph name="Y" format="2">
  <advance width="1092.016393442623"/>
  <unicode hex="0059"/>
  <anchor x="429.45901639344265" y="0.0" name="bottom"/>
  <anchor x="731.6065573770492" y="1462.0" name="top"/>
  <anchor x="1245.1311475409836" y="1462.0" name="topright"/>
  <outline>
    <contour>
      <point x="305.2295081967213" y="0.0" type="line"/>
      <point x="542.4590163934427" y="0.0" type="line"/>
      <point x="657.5573770491803" y="550.0819672131147" type="line"/>
      <point x="1280.5737704918033" y="1462.0" type="line"/>
      <point x="1013.8196721311476" y="1462.0" type="line"/>
      <point x="581.295081967213" y="791.4098360655738" type="line"/>
      <point x="427.2131147540984" y="1462.0" type="line"/>
      <point x="187.11475409836066" y="1462.0" type="line"/>
      <point x="424.2295081967213" y="553.4262295081967" type="line"/>
    </contour>
  </outline>
</glyph>
<glyph name="bracketleft" format="2">
  <advance width="631.1803278688524"/>
  <unicode hex="005B"/>
  <outline>
    <contour>
      <point x="-26.40983606557377" y="-324.0" type="line"/>
      <point x="403.11475409836066" y="-324.0" type="line"/>
      <point x="441.42622950819674" y="-148.11475409836063" type="line"/>
      <point x="220.29508196721315" y="-148.11475409836063" type="line"/>
      <point x="525.2295081967213" y="1286.672131147541" type="line"/>
      <point x="745.8032786885246" y="1286.672131147541" type="line"/>
      <point x="784.1147540983607" y="1462.0" type="line"/>
      <point x="354.0327868852459" y="1462.0" type="line"/>
    </contour>
  </outline>
</glyph>
<glyph name="backslash" format="2">
  <advance width="787.8688524590165"/>
  <unicode hex="005C"/>
  <outline>
    <contour>
      <point x="438.0" y="0.0" type="line"/>
      <point x="647.5901639344263" y="0.0" type="line"/>
      <point x="427.49180327868856" y="1462.0" type="line"/>
      <point x="221.0" y="1462.0" type="line"/>
    </contour>
  </outline>
</glyph>
<glyph name="bracketright" format="2">
  <advance width="631.1803278688524"/>
  <unicode hex="005D"/>
  <outline>
    <contour>
      <point x="-142.5737704918033" y="-324.0" type="line"/>
      <point x="284.95081967213116" y="-324.0" type="line"/>
      <point x="665.9508196721312" y="1462.0" type="line"/>
      <point x="235.86885245901638" y="1462.0" type="line"/>
      <point x="198.11475409836066" y="1286.672131147541" type="line"/>
      <point x="418.6885245901639" y="1286.672131147541" type="line"/>
      <point x="114.31147540983605" y="-148.11475409836063" type="line"/>
      <point x="-105.93442622950819" y="-148.11475409836063" type="line"/>
    </contour>
  </outline>
</glyph>
<glyph name="asciicircum" format="2">
  <advance width="1151.967213114754"/>
  <unicode hex="005E"/>
  <outline>
    <contour>
      <point x="58.967213114754095" y="535.049180327869" type="line"/>
      <point x="256.1475409836066" y="535.049180327869" type="line"/>
      <point x="615.9016393442622" y="1224.9016393442623" type="line"/>
      <point x="898.5901639344263" y="535.049180327869" type="line"/>
      <point x="1086.4754098360656" y="535.049180327869" type="line"/>
      <point x="696.7704918032787" y="1471.672131147541" type="line"/>
      <point x="574.4098360655738" y="1471.672131147541" type="line"/>
    </contour>
  </outline>
</glyph>
<glyph name="underscore" format="2">
  <advance width="813.4262295081967"/>
  <unicode hex="005F"/>
  <outline>
    <contour>
      <point x="-187.11475409836066" y="-324.0" type="line"/>
      <point x="629.4262295081968" y="-324.0" type="line"/>
      <point x="659.8688524590164" y="-184.0" type="line"/>
      <point x="-157.11475409836066" y="-184.0" type="line"/>
    </contour>
  </outline>
</glyph>
<glyph name="grave" format="2">
  <advance width="608.8360655737705"/>
  <unicode hex="0060"/>
  <anchor x="504.26229508196724" y="1106.8524590163934" name="_top"/>
  <outline>
    <contour>
      <point x="530.639344262295" y="1241.0" type="curve"/>
      <point x="673.9508196721312" y="1241.0" type="line"/>
      <point x="673.9508196721312" y="1266.0" type="line"/>
      <point x="620.7213114754098" y="1361.5409836065573"/>
      <point x="570.2459016393442" y="1471.983606557377"/>
      <point x="543.344262295082" y="1569.0" type="curve"/>
      <point x="298.11475409836066" y="1569.0" type="line"/>
      <point x="298.11475409836066" y="1548.0" type="line"/>
      <point x="341.77049180327873" y="1458.4590163934427"/>
      <point x="449.9836065573771" y="1320.7704918032787"/>
    </contour>
  </outline>
</glyph>
<glyph name="a" format="2">
  <advance width="1186.9016393442623"/>
  <unicode hex="0061"/>
  <anchor x="475.62295081967216" y="0.0" name="bottom"/>
  <anchor x="710.8360655737705" y="1106.8524590163936" name="top"/>
  <anchor x="1263.344262295082" y="1106.8524590163936" name="topright"/>
  <outline>
    <contour>
      <point x="399.8688524590164" y="-20.0" type="curve" smooth="yes"/>
      <point x="548.1147540983607" y="-20.0"/>
      <point x="661.1639344262295" y="66.50819672131146"/>
      <point x="748.967213114754" y="177.327868852459" type="curve"/>
      <point x="756.967213114754" y="177.327868852459" type="line"/>
      <point x="736.2786885245902" y="0.0" type="line"/>
      <point x="915.5737704918033" y="0.0" type="line"/>
      <point x="1150.7868852459017" y="1106.8524590163936" type="line"/>
      <point x="971.7377049180328" y="1106.8524590163936" type="line"/>
      <point x="910.2786885245902" y="948.8032786885246" type="line"/>
      <point x="900.6065573770492" y="948.8032786885246" type="line"/>
      <point x="853.8360655737705" y="1047.9180327868853"/>
      <point x="766.7213114754098" y="1127.2950819672133"/>
      <point x="624.1639344262295" y="1127.2950819672133" type="curve" smooth="yes"/>
      <point x="309.1639344262295" y="1127.2950819672133"/>
      <point x="94.45901639344262" y="757.8032786885245"/>
      <point x="94.45901639344262" y="367.7213114754099" type="curve" smooth="yes"/>
      <point x="94.45901639344262" y="100.59016393442623"/>
      <point x="230.0655737704918" y="-20.0"/>
    </contour>
    <contour>
      <point x="485.5409836065574" y="170.60655737704917" type="curve" smooth="yes"/>
      <point x="388.49180327868856" y="170.60655737704917"/>
      <point x="332.5737704918033" y="238.40983606557376"/>
      <point x="332.5737704918033" y="371.688524590164" type="curve" smooth="yes"/>
      <point x="332.5737704918033" y="656.7377049180327"/>
      <point x="472.9836065573771" y="935.1311475409835"/>
      <point x="656.7704918032787" y="935.1311475409835" type="curve" smooth="yes"/>
      <point x="762.2786885245902" y="935.1311475409835"/>
      <point x="828.5409836065573" y="853.983606557377"/>
      <point x="828.5409836065573" y="740.4754098360656" type="curve" smooth="yes"/>
      <point x="828.5409836065573" y="680.2622950819673"/>
      <point x="823.4262295081967" y="619.9016393442622"/>
      <point x="806.8524590163935" y="552.967213114754" type="curve" smooth="yes"/>
      <point x="756.4590163934427" y="344.4098360655738"/>
      <point x="623.032786885246" y="170.60655737704917"/>
    </contour>
  </outline>
</glyph>
<glyph name="b" format="2">
  <advance width="1200.606557377049"/>
  <unicode hex="0062"/>
  <anchor x="499.7704918032787" y="0.0" name="bottom"/>
  <anchor x="897.2622950819672" y="1556.0" name="top"/>
  <anchor x="1372.8360655737704" y="1556.0" name="topright"/>
  <outline>
    <contour>
      <point x="577.1147540983607" y="-20.0" type="curve" smooth="yes"/>
      <point x="902.032786885246" y="-20.0"/>
      <point x="1104.0327868852457" y="355.0655737704918"/>
      <point x="1104.0327868852457" y="738.5737704918033" type="curve" smooth="yes"/>
      <point x="1104.0327868852457" y="1006.2622950819672"/>
      <point x="969.4262295081967" y="1126.1803278688526"/>
      <point x="796.8360655737705" y="1126.1803278688526" type="curve" smooth="yes"/>
      <point x="650.9180327868853" y="1126.1803278688526"/>
      <point x="556.2950819672132" y="1033.9180327868853"/>
      <point x="469.8032786885246" y="926.6393442622951" type="curve"/>
      <point x="461.80327868852464" y="926.6393442622951" type="line"/>
      <point x="476.8688524590164" y="965.3934426229508"/>
      <point x="516.0983606557377" y="1108.5245901639344"/>
      <point x="540.7868852459017" y="1223.4098360655737" type="curve" smooth="yes"/>
      <point x="611.7049180327868" y="1556.0" type="line"/>
      <point x="378.1475409836066" y="1556.0" type="line"/>
      <point x="48.147540983606554" y="0.0" type="line"/>
      <point x="226.19672131147541" y="0.0" type="line"/>
      <point x="289.2131147540984" y="156.93442622950818" type="line"/>
      <point x="298.327868852459" y="156.93442622950818" type="line"/>
      <point x="343.983606557377" y="57.819672131147534"/>
      <point x="432.2131147540984" y="-20.0"/>
    </contour>
    <contour>
      <point x="546.7377049180328" y="170.60655737704917" type="curve" smooth="yes"/>
      <point x="428.4098360655738" y="170.60655737704917"/>
      <point x="368.72131147540983" y="251.75409836065575"/>
      <point x="368.72131147540983" y="371.6885245901639" type="curve" smooth="yes"/>
      <point x="368.72131147540983" y="623.0983606557377"/>
      <point x="524.1967213114754" y="935.1311475409835"/>
      <point x="711.5081967213115" y="935.1311475409835" type="curve" smooth="yes"/>
      <point x="814.5573770491802" y="935.1311475409835"/>
      <point x="866.4754098360655" y="867.7704918032787"/>
      <point x="866.4754098360655" y="733.4918032786886" type="curve" smooth="yes"/>
      <point x="866.4754098360655" y="457.91803278688525"/>
      <point x="734.3114754098361" y="170.60655737704917"/>
    </contour>
  </outline>
</glyph>
<glyph name="c" format="2">
  <advance width="955.0"/>
  <unicode hex="0063"/>
  <anchor x="444.37704918032784" y="0.0" name="bottom"/>
  <anchor x="646.9180327868852" y="1106.8524590163936" name="top"/>
  <anchor x="1031.8852459016393" y="1106.8524590163936" name="topright"/>
  <outline>
    <contour>
      <point x="506.0" y="-20.0" type="curve" smooth="yes"/>
      <point x="629.9508196721312" y="-20.0"/>
      <point x="728.4918032786885" y="7.770491803278689"/>
      <point x="811.9016393442623" y="51.196721311475414" type="curve"/>
      <point x="811.9016393442623" y="244.80327868852459" type="line"/>
      <point x="724.9180327868853" y="203.3770491803279"/>
      <point x="641.8032786885246" y="170.60655737704917"/>
      <point x="543.0327868852459" y="170.60655737704917" type="curve" smooth="yes"/>
      <point x="411.0655737704918" y="170.60655737704917"/>
      <point x="332.5737704918033" y="253.327868852459"/>
      <point x="332.5737704918033" y="402.06557377049177" type="curve" smooth="yes"/>
      <point x="332.5737704918033" y="679.4262295081967"/>
      <point x="468.32786885245906" y="935.1311475409835"/>
      <point x="682.8524590163935" y="935.1311475409835" type="curve" smooth="yes"/>
      <point x="770.8524590163935" y="935.1311475409835"/>
      <point x="841.5409836065575" y="908.1311475409835"/>
      <point x="904.0655737704918" y="880.9180327868853" type="curve"/>
      <point x="973.2131147540983" y="1065.8852459016393" type="line"/>
      <point x="889.016393442623" y="1104.1967213114754"/>
      <point x="788.8032786885246" y="1127.2950819672133"/>
      <point x="676.4262295081967" y="1127.2950819672133" type="curve" smooth="yes"/>
      <point x="311.91803278688525" y="1127.2950819672133"/>
      <point x="94.45901639344262" y="786.8688524590164"/>
      <point x="94.45901639344262" y="389.8852459016394" type="curve" smooth="yes"/>
      <point x="94.45901639344262" y="106.59016393442623"/>
      <point x="267.3114754098361" y="-20.0"/>
    </contour>
  </outline>
</glyph>
<glyph name="e" format="2">
  <advance width="1074.672131147541"/>
  <unicode hex="0065"/>
  <anchor x="479.1475409836066" y="0.0" name="bottom"/>
  <anchor x="669.1147540983607" y="1106.8524590163936" name="top"/>
  <anchor x="1151.5573770491803" y="1106.8524590163936" name="topright"/>
  <outline>
    <contour>
      <point x="511.93442622950823" y="-20.0" type="curve" smooth="yes"/>
      <point x="660.2295081967213" y="-20.0"/>
      <point x="759.295081967213" y="10.22950819672131"/>
      <point x="869.0491803278688" y="62.09836065573771" type="curve"/>
      <point x="869.0491803278688" y="248.40983606557376" type="line"/>
      <point x="750.8688524590164" y="191.42622950819674"/>
      <point x="665.5245901639345" y="163.52459016393442"/>
      <point x="556.327868852459" y="163.52459016393442" type="curve" smooth="yes"/>
      <point x="406.4754098360656" y="163.52459016393442"/>
      <point x="330.57377049180326" y="254.01639344262296"/>
      <point x="330.57377049180326" y="400.7704918032787" type="curve" smooth="yes"/>
      <point x="330.57377049180326" y="420.2295081967213"/>
      <point x="331.688524590164" y="440.81967213114757"/>
      <point x="333.688524590164" y="461.27868852459017" type="curve"/>
      <point x="375.21311475409834" y="461.27868852459017" type="line" smooth="yes"/>
      <point x="819.1311475409836" y="461.27868852459017"/>
      <point x="1018.0983606557377" y="625.3114754098361"/>
      <point x="1018.0983606557377" y="849.6065573770492" type="curve" smooth="yes"/>
      <point x="1018.0983606557377" y="1017.5737704918032"/>
      <point x="903.1311475409836" y="1127.2950819672133"/>
      <point x="677.0983606557378" y="1127.2950819672133" type="curve" smooth="yes"/>
      <point x="306.99999999999994" y="1127.2950819672133"/>
      <point x="94.45901639344262" y="760.9180327868852"/>
      <point x="94.45901639344262" y="401.40983606557376" type="curve" smooth="yes"/>
      <point x="94.45901639344262" y="131.0327868852459"/>
      <point x="254.3934426229508" y="-20.0"/>
    </contour>
    <contour>
      <point x="362.78688524590166" y="632.5081967213115" type="line"/>
      <point x="411.72131147540983" y="827.3934426229508"/>
      <point x="540.5245901639345" y="948.1967213114754"/>
      <point x="663.1147540983607" y="948.1967213114754" type="curve" smooth="yes"/>
      <point x="748.0655737704918" y="948.1967213114754"/>
      <point x="791.5245901639345" y="906.0491803278688"/>
      <point x="791.5245901639345" y="838.7049180327868" type="curve" smooth="yes"/>
      <point x="791.5245901639345" y="702.5737704918033"/>
      <point x="630.3114754098361" y="632.5081967213115"/>
      <point x="391.0655737704918" y="632.5081967213115" type="curve" smooth="yes"/>
    </contour>
  </outline>
</glyph>
<glyph name="g" format="2">
  <advance width="1084.5901639344263"/>
  <unicode hex="0067"/>
  <note>
g
</note>
  <anchor x="390.8524590163935" y="-492.0" name="bottom"/>
  <anchor x="641.5081967213115" y="1106.8524590163936" name="top"/>
  <anchor x="1183.016393442623" y="1106.8524590163936" name="topright"/>
  <outline>
    <contour>
      <point x="320.9836065573771" y="-492.0" type="curve" smooth="yes"/>
      <point x="688.8853934426229" y="-492.0"/>
      <point x="897.9016393442623" y="-345.3932950819672"/>
      <point x="897.9016393442623" y="-84.31147540983605" type="curve" smooth="yes"/>
      <point x="897.9016393442623" y="81.81967213114756"/>
      <point x="798.4426229508197" y="162.4918032786885"/>
      <point x="568.0655737704918" y="191.49180327868854" type="curve" smooth="yes"/>
      <point x="442.2131147540984" y="207.26229508196724" type="line" smooth="yes"/>
      <point x="360.42622950819674" y="217.26229508196724"/>
      <point x="317.6393442622951" y="230.7706393442623"/>
      <point x="317.6393442622951" y="281.4918032786885" type="curve" smooth="yes"/>
      <point x="317.6393442622951" y="325.5245901639345"/>
      <point x="355.672131147541" y="361.5573770491803"/>
      <point x="432.2950819672131" y="389.0327868852459" type="curve"/>
      <point x="454.68867213114754" y="383.29493442622953"/>
      <point x="484.90178688524594" y="380.1475409836065"/>
      <point x="522.9344262295082" y="380.1475409836065" type="curve" smooth="yes"/>
      <point x="790.6064098360656" y="380.1475409836065"/>
      <point x="960.672131147541" y="542.704918032787"/>
      <point x="960.672131147541" y="799.9180327868853" type="curve" smooth="yes"/>
      <point x="960.672131147541" y="855.0655737704917"/>
      <point x="950.508344262295" y="902.0162459016393"/>
      <point x="930.7377049180328" y="940.2131147540983" type="curve"/>
      <point x="1125.360655737705" y="971.7377049180327" type="line"/>
      <point x="1154.7868852459017" y="1104.8524590163936" type="line"/>
      <point x="773.1639344262295" y="1104.8524590163936" type="line"/>
      <point x="720.2460491803279" y="1118.8850983606558"/>
      <point x="667.3277213114753" y="1126.1803278688526"/>
      <point x="613.8524590163934" y="1126.1803278688526" type="curve" smooth="yes"/>
      <point x="348.1475409836065" y="1126.1803278688526"/>
      <point x="170.2622950819672" y="950.4096885245901"/>
      <point x="170.2622950819672" y="688.6065573770492" type="curve" smooth="yes"/>
      <point x="170.2622950819672" y="573.622950819672"/>
      <point x="220.99985245901638" y="490.4260819672131"/>
      <point x="306.18032786885243" y="437.54098360655735" type="curve"/>
      <point x="178.54098360655738" y="378.0326393442623"/>
      <point x="114.0655737704918" y="315.2952295081967"/>
      <point x="114.0655737704918" y="222.11475409836066" type="curve" smooth="yes"/>
      <point x="114.0655737704918" y="167.196868852459"/>
      <point x="139.47555737704917" y="124.72116393442622"/>
      <point x="190.29508196721312" y="95.80327868852459" type="curve"/>
      <point x="-15.705065573770497" y="27.34426229508196"/>
      <point x="-104.9672131147541" y="-71.88524590163935"/>
      <point x="-104.9672131147541" y="-210.11475409836063" type="curve" smooth="yes"/>
      <point x="-104.9672131147541" y="-387.78688524590166"/>
      <point x="53.869" y="-492.0"/>
    </contour>
    <contour>
      <point x="332.2950819672131" y="-328.8032786885246" type="curve" smooth="yes"/>
      <point x="179.7378524590164" y="-328.8032786885246"/>
      <point x="102.62295081967216" y="-276.16408196721306"/>
      <point x="102.62295081967216" y="-184.8196721311475" type="curve" smooth="yes"/>
      <point x="102.62295081967216" y="-79.54098360655738"/>
      <point x="184.27883606557378" y="-4.229655737704924"/>
      <point x="336.0163934426229" y="22.426229508196712" type="curve"/>
      <point x="475.0983606557377" y="7.3114754098360635" type="line" smooth="yes"/>
      <point x="614.9016393442622" y="-7.47540983606558"/>
      <point x="683.0" y="-40.868852459016395"/>
      <point x="683.0" y="-117.22950819672131" type="curve" smooth="yes"/>
      <point x="683.0" y="-252.01624590163934"/>
      <point x="556.8523114754098" y="-328.8032786885246"/>
    </contour>
    <contour>
      <point x="527.1639344262295" y="530.344262295082" type="curve" smooth="yes"/>
      <point x="437.13100000000003" y="530.344262295082"/>
      <point x="386.81967213114757" y="581.901786885246"/>
      <point x="386.81967213114757" y="680.0" type="curve" smooth="yes"/>
      <point x="386.81967213114757" y="839.8359180327869"/>
      <point x="470.45886885245903" y="971.9672131147541"/>
      <point x="607.8688524590165" y="971.9672131147541" type="curve" smooth="yes"/>
      <point x="697.8360655737705" y="971.9672131147541"/>
      <point x="746.4426229508197" y="921.8196721311476"/>
      <point x="746.4426229508197" y="826.5409836065573" type="curve" smooth="yes"/>
      <point x="746.4426229508197" y="663.2950819672132"/>
      <point x="664.5081967213115" y="530.344262295082"/>
    </contour>
  </outline>
</glyph>
<glyph name="l" format="2">
  <advance width="563.4098360655738"/>
  <unicode hex="006C"/>
  <anchor x="164.2622950819672" y="0.0" name="bottom"/>
  <anchor x="400.0327868852459" y="553.4262295081968" name="center"/>
  <anchor x="493.80327868852464" y="1556.0" name="top"/>
  <anchor x="650.7213114754098" y="1556.0" name="topright"/>
  <outline>
    <contour>
      <point x="47.0327868852459" y="0.0" type="line"/>
      <point x="281.1475409836066" y="0.0" type="line"/>
      <point x="611.7049180327868" y="1556.0" type="line"/>
      <point x="378.1475409836066" y="1556.0" type="line"/>
    </contour>
  </outline>
</glyph>
<glyph name="m" format="2">
  <advance width="1819.0"/>
  <unicode hex="006D"/>
  <anchor x="806.0491803278688" y="0.0" name="bottom"/>
  <anchor x="1055.9180327868853" y="1106.8524590163936" name="top"/>
  <anchor x="1895.8852459016393" y="1106.8524590163936" name="topright"/>
  <outline>
    <contour>
      <point x="48.147540983606554" y="0.0" type="line"/>
      <point x="282.26229508196724" y="0.0" type="line"/>
      <point x="381.3770491803279" y="468.57377049180326" type="line" smooth="yes"/>
      <point x="446.3114754098361" y="774.6885245901639"/>
      <point x="588.4590163934427" y="935.1311475409835"/>
      <point x="723.2295081967212" y="935.1311475409835" type="curve" smooth="yes"/>
      <point x="805.5081967213115" y="935.1311475409835"/>
      <point x="840.7377049180327" y="887.7704918032787"/>
      <point x="840.7377049180327" y="800.4262295081967" type="curve" smooth="yes"/>
      <point x="840.7377049180327" y="767.983606557377"/>
      <point x="834.7377049180328" y="726.983606557377"/>
      <point x="823.622950819672" y="672.5081967213115" type="curve" smooth="yes"/>
      <point x="681.6065573770492" y="0.0" type="line"/>
      <point x="915.1639344262295" y="0.0" type="line"/>
      <point x="1016.1803278688525" y="482.27868852459017" type="line" smooth="yes"/>
      <point x="1076.8852459016393" y="771.8852459016393"/>
      <point x="1218.3606557377047" y="935.1311475409835"/>
      <point x="1353.5737704918033" y="935.1311475409835" type="curve" smooth="yes"/>
      <point x="1435.8524590163934" y="935.1311475409835"/>
      <point x="1474.4262295081967" y="887.7704918032787"/>
      <point x="1474.4262295081967" y="804.8852459016393" type="curve" smooth="yes"/>
      <point x="1474.4262295081967" y="767.983606557377"/>
      <point x="1468.4262295081967" y="726.983606557377"/>
      <point x="1457.311475409836" y="672.5081967213115" type="curve" smooth="yes"/>
      <point x="1313.7377049180327" y="0.0" type="line"/>
      <point x="1548.4098360655737" y="0.0" type="line"/>
      <point x="1686.4262295081967" y="654.2786885245902" type="line" smooth="yes"/>
      <point x="1700.8688524590164" y="718.3770491803278"/>
      <point x="1708.8688524590164" y="775.8032786885245"/>
      <point x="1708.8688524590164" y="834.2786885245902" type="curve" smooth="yes"/>
      <point x="1708.8688524590164" y="1018.4590163934427"/>
      <point x="1614.639344262295" y="1127.2950819672133"/>
      <point x="1437.1147540983607" y="1127.2950819672133" type="curve" smooth="yes"/>
      <point x="1274.8688524590164" y="1127.2950819672133"/>
      <point x="1152.2950819672133" y="1016.688524590164"/>
      <point x="1069.4098360655737" y="890.377049180328" type="curve"/>
      <point x="1061.4098360655737" y="890.377049180328" type="line"/>
      <point x="1040.5409836065573" y="1037.950819672131"/>
      <point x="959.6557377049181" y="1127.2950819672133"/>
      <point x="808.3278688524591" y="1127.2950819672133" type="curve" smooth="yes"/>
      <point x="645.639344262295" y="1127.2950819672133"/>
      <point x="534.5245901639344" y="1016.6885245901639"/>
      <point x="455.2131147540984" y="902.0819672131147" type="curve"/>
      <point x="445.65573770491807" y="902.0819672131147" type="line"/>
      <point x="467.21311475409834" y="1106.8524590163936" type="line"/>
      <point x="283.4754098360656" y="1106.8524590163936" type="line"/>
    </contour>
  </outline>
</glyph>
<glyph name="n" format="2">
  <advance width="1208.5737704918033"/>
  <unicode hex="006E"/>
  <anchor x="494.72131147540983" y="0.0" name="bottom"/>
  <anchor x="726.5081967213115" y="1106.8524590163936" name="top"/>
  <anchor x="1285.4590163934427" y="1106.8524590163936" name="topright"/>
  <outline>
    <contour>
      <point x="43.68852459016394" y="0.0" type="line"/>
      <point x="284.4918032786885" y="0.0" type="line"/>
      <point x="384.72131147540983" y="468.57377049180326" type="line" smooth="yes"/>
      <point x="450.7704918032787" y="773.0163934426229"/>
      <point x="597.3770491803278" y="931.7868852459015"/>
      <point x="734.3770491803278" y="931.7868852459015" type="curve" smooth="yes"/>
      <point x="818.0819672131147" y="931.7868852459015"/>
      <point x="860.2131147540983" y="888.8852459016393"/>
      <point x="860.2131147540983" y="803.7704918032787" type="curve" smooth="yes"/>
      <point x="860.2131147540983" y="767.983606557377"/>
      <point x="853.0983606557377" y="728.0983606557377"/>
      <point x="841.4262295081967" y="673.6229508196722" type="curve" smooth="yes"/>
      <point x="698.8524590163934" y="0.0" type="line"/>
      <point x="939.0983606557377" y="0.0" type="line"/>
      <point x="1079.344262295082" y="653.1639344262295" type="line" smooth="yes"/>
      <point x="1091.1147540983607" y="710.5737704918032"/>
      <point x="1101.7868852459017" y="776.9180327868852"/>
      <point x="1101.7868852459017" y="834.2786885245902" type="curve" smooth="yes"/>
      <point x="1101.7868852459017" y="1018.4590163934427"/>
      <point x="999.7704918032787" y="1130.639344262295"/>
      <point x="816.688524590164" y="1130.639344262295" type="curve" smooth="yes"/>
      <point x="647.8688524590165" y="1130.639344262295"/>
      <point x="534.5245901639345" y="1020.032786885246"/>
      <point x="454.0983606557377" y="905.4262295081967" type="curve"/>
      <point x="449.00000000000006" y="905.4262295081967" type="line"/>
      <point x="470.55737704918033" y="1110.1967213114754" type="line"/>
      <point x="280.1311475409836" y="1110.1967213114754" type="line"/>
    </contour>
  </outline>
</glyph>
<glyph name="p" format="2">
  <advance width="1200.606557377049"/>
  <unicode hex="0070"/>
  <anchor x="379.1967213114754" y="-492.0" name="bottom"/>
  <anchor x="718.9672131147541" y="1106.8524590163936" name="top"/>
  <anchor x="1277.049180327869" y="1106.8524590163936" name="topright"/>
  <outline>
    <contour>
      <point x="-55.18032786885246" y="-492.0" type="line"/>
      <point x="177.26229508196724" y="-492.0" type="line"/>
      <point x="264.8688524590164" y="-77.31147540983608" type="line" smooth="yes"/>
      <point x="281.1803278688525" y="-4.409836065573778"/>
      <point x="293.1803278688525" y="84.04918032786884"/>
      <point x="298.95081967213116" y="156.93442622950818" type="curve"/>
      <point x="308.0655737704918" y="156.93442622950818" type="line"/>
      <point x="358.1639344262295" y="60.475409836065566"/>
      <point x="433.9836065573771" y="-20.0"/>
      <point x="577.1147540983607" y="-20.0" type="curve" smooth="yes"/>
      <point x="900.9180327868852" y="-20.0"/>
      <point x="1104.0327868852457" y="352.8360655737705"/>
      <point x="1104.0327868852457" y="736.5737704918033" type="curve" smooth="yes"/>
      <point x="1104.0327868852457" y="1006.2622950819672"/>
      <point x="969.4262295081967" y="1126.1803278688526"/>
      <point x="799.0655737704918" y="1126.1803278688526" type="curve" smooth="yes"/>
      <point x="649.6065573770492" y="1126.1803278688526"/>
      <point x="538.8032786885246" y="1027.27868852459"/>
      <point x="454.75409836065575" y="917.344262295082" type="curve"/>
      <point x="446.3114754098361" y="917.344262295082" type="line"/>
      <point x="467.21311475409834" y="1106.8524590163936" type="line"/>
      <point x="283.4754098360656" y="1106.8524590163936" type="line"/>
    </contour>
    <contour>
      <point x="546.7377049180328" y="170.60655737704917" type="curve" smooth="yes"/>
      <point x="428.4098360655738" y="170.60655737704917"/>
      <point x="368.72131147540983" y="251.75409836065575"/>
      <point x="368.72131147540983" y="371.6885245901639" type="curve" smooth="yes"/>
      <point x="368.72131147540983" y="625.983606557377"/>
      <point x="524.1967213114755" y="935.1311475409835"/>
      <point x="711.5081967213115" y="935.1311475409835" type="curve" smooth="yes"/>
      <point x="814.5573770491802" y="935.1311475409835"/>
      <point x="866.4754098360655" y="867.7704918032787"/>
      <point x="866.4754098360655" y="733.4918032786886" type="curve" smooth="yes"/>
      <point x="866.4754098360655" y="457.91803278688525"/>
      <point x="734.3114754098361" y="170.60655737704917"/>
    </contour>
  </outline>
</glyph>
<glyph name="q" format="2">
  <advance width="1199.7213114754097"/>
  <unicode hex="0071"/>
  <anchor x="378.3114754098361" y="-492.0" name="bottom"/>
  <anchor x="718.0819672131148" y="1106.8524590163936" name="top"/>
  <anchor x="1276.1639344262296" y="1106.8524590163936" name="topright"/>
  <outline>
    <contour>
      <point x="578.5737704918032" y="-492.0" type="line"/>
      <point x="811.016393442623" y="-492.0" type="line"/>
      <point x="1150.7868852459017" y="1106.8524590163936" type="line"/>
      <point x="972.8524590163934" y="1106.8524590163936" type="line"/>
      <point x="910.2786885245902" y="948.8032786885246" type="line"/>
      <point x="900.6065573770492" y="948.8032786885246" type="line"/>
      <point x="847.4262295081967" y="1049.688524590164"/>
      <point x="764.9672131147541" y="1127.2950819672133"/>
      <point x="625.2786885245902" y="1127.2950819672133" type="curve" smooth="yes"/>
      <point x="299.688524590164" y="1127.2950819672133"/>
      <point x="94.45901639344262" y="751.1147540983607"/>
      <point x="94.45901639344262" y="367.7213114754099" type="curve" smooth="yes"/>
      <point x="94.45901639344262" y="98.91803278688523"/>
      <point x="230.06557377049182" y="-20.0"/>
      <point x="394.34426229508193" y="-20.0" type="curve" smooth="yes"/>
      <point x="541.704918032787" y="-20.0"/>
      <point x="643.8688524590165" y="70.9344262295082"/>
      <point x="728.1311475409836" y="179.54098360655735" type="curve"/>
      <point x="736.1311475409836" y="179.54098360655735" type="line"/>
      <point x="714.5901639344263" y="102.24590163934425"/>
      <point x="679.3934426229507" y="-21.245901639344282"/>
      <point x="666.0655737704917" y="-82.09836065573772" type="curve" smooth="yes"/>
    </contour>
    <contour>
      <point x="491.5245901639344" y="170.60655737704917" type="curve" smooth="yes"/>
      <point x="388.0327868852459" y="170.60655737704917"/>
      <point x="332.5737704918033" y="238.40983606557376"/>
      <point x="332.5737704918033" y="371.688524590164" type="curve" smooth="yes"/>
      <point x="332.5737704918033" y="647.2622950819673"/>
      <point x="468.5245901639345" y="935.1311475409835"/>
      <point x="654.5409836065573" y="935.1311475409835" type="curve" smooth="yes"/>
      <point x="771.7540983606557" y="935.1311475409835"/>
      <point x="828.5409836065573" y="847.8524590163935"/>
      <point x="828.5409836065573" y="733.4918032786885" type="curve" smooth="yes"/>
      <point x="828.5409836065573" y="486.8688524590164"/>
      <point x="676.1803278688525" y="170.60655737704917"/>
    </contour>
  </outline>
</glyph>
<glyph name="t" format="2">
  <advance width="750.8196721311475"/>
  <unicode hex="0074"/>
  <anchor x="349.983606557377" y="0.0" name="bottom"/>
  <anchor x="370.2950819672131" y="553.4262295081968" name="center"/>
  <anchor x="545.4098360655738" y="1351.5409836065573" name="top"/>
  <anchor x="932.8032786885246" y="1351.5409836065573" name="topright"/>
  <outline>
    <contour>
      <point x="392.72131147540983" y="-20.0" type="curve" smooth="yes"/>
      <point x="474.29508196721315" y="-20.0"/>
      <point x="559.6065573770492" y="0.8852459016393448"/>
      <point x="606.327868852459" y="23.52459016393443" type="curve"/>
      <point x="606.327868852459" y="200.0327868852459" type="line"/>
      <point x="549.344262295082" y="180.81967213114757"/>
      <point x="505.45901639344265" y="169.49180327868854"/>
      <point x="453.8032786885246" y="169.49180327868854" type="curve" smooth="yes"/>
      <point x="386.8688524590164" y="169.49180327868854"/>
      <point x="354.09836065573774" y="206.09836065573774"/>
      <point x="354.09836065573774" y="265.2295081967213" type="curve" smooth="yes"/>
      <point x="354.09836065573774" y="292.27868852459017"/>
      <point x="360.55737704918033" y="327.7704918032787"/>
      <point x="366.78688524590166" y="356.6885245901639" type="curve" smooth="yes"/>
      <point x="488.4754098360656" y="929.1311475409836" type="line"/>
      <point x="766.5737704918033" y="929.1311475409836" type="line"/>
      <point x="804.3114754098361" y="1106.8524590163936" type="line"/>
      <point x="525.2131147540983" y="1106.8524590163936" type="line"/>
      <point x="577.5573770491803" y="1351.5409836065573" type="line"/>
      <point x="432.60655737704917" y="1351.5409836065573" type="line"/>
      <point x="303.39344262295083" y="1120.0" type="line"/>
      <point x="113.52459016393443" y="1039.344262295082" type="line"/>
      <point x="91.77049180327869" y="929.1311475409836" type="line"/>
      <point x="253.80327868852459" y="929.1311475409836" type="line"/>
      <point x="133.22950819672133" y="358.3606557377049" type="line" smooth="yes"/>
      <point x="123.0" y="310.1147540983606"/>
      <point x="117.88524590163934" y="264.42622950819674"/>
      <point x="117.88524590163934" y="227.40983606557376" type="curve" smooth="yes"/>
      <point x="117.88524590163934" y="41.885245901639344"/>
      <point x="231.88524590163934" y="-20.0"/>
    </contour>
  </outline>
</glyph>
<glyph name="w" format="2">
  <advance width="1539.8688524590164"/>
  <unicode hex="0077"/>
  <anchor x="642.9836065573771" y="0.0" name="bottom"/>
  <anchor x="867.655737704918" y="1106.8524590163936" name="top"/>
  <anchor x="1616.1967213114754" y="1106.8524590163936" name="topright"/>
  <outline>
    <contour>
      <point x="168.19672131147541" y="0.0" type="line"/>
      <point x="430.327868852459" y="0.0" type="line"/>
      <point x="693.4262295081967" y="581.6885245901639" type="line" smooth="yes"/>
      <point x="744.2622950819672" y="692.9180327868853"/>
      <point x="782.1147540983607" y="796.0"/>
      <point x="818.2295081967213" y="895.6721311475409" type="curve"/>
      <point x="828.0" y="895.6721311475409" type="line"/>
      <point x="825.344262295082" y="780.3934426229508"/>
      <point x="821.344262295082" y="658.622950819672"/>
      <point x="824.688524590164" y="561.2459016393442" type="curve" smooth="yes"/>
      <point x="844.6229508196722" y="0.0" type="line"/>
      <point x="1111.639344262295" y="0.0" type="line"/>
      <point x="1629.377049180328" y="1106.8524590163936" type="line"/>
      <point x="1387.032786885246" y="1106.8524590163936" type="line"/>
      <point x="1156.327868852459" y="587.327868852459" type="line" smooth="yes"/>
      <point x="1104.6065573770493" y="468.8688524590164"/>
      <point x="1048.4918032786884" y="312.9016393442623"/>
      <point x="1016.1475409836065" y="214.21311475409837" type="curve"/>
      <point x="1007.2622950819672" y="214.21311475409837" type="line"/>
      <point x="1013.9180327868852" y="320.8688524590164"/>
      <point x="1011.688524590164" y="444.96721311475414"/>
      <point x="1010.5737704918032" y="541.8688524590164" type="curve" smooth="yes"/>
      <point x="991.0655737704918" y="1106.8524590163936" type="line"/>
      <point x="737.1967213114754" y="1106.8524590163936" type="line"/>
      <point x="473.8688524590164" y="523.4754098360656" type="line" smooth="yes"/>
      <point x="443.9344262295082" y="459.1639344262295"/>
      <point x="382.4918032786885" y="307.29508196721315"/>
      <point x="352.81967213114757" y="214.21311475409837" type="curve"/>
      <point x="344.3770491803279" y="214.21311475409837" type="line"/>
      <point x="352.59016393442624" y="313.016393442623"/>
      <point x="355.9344262295082" y="429.27868852459017"/>
      <point x="353.7049180327869" y="561.1311475409836" type="curve" smooth="yes"/>
      <point x="343.016393442623" y="1106.8524590163936" type="line"/>
      <point x="120.54098360655738" y="1106.8524590163936" type="line"/>
    </contour>
  </outline>
</glyph>
<glyph name="x" format="2">
  <advance width="1032.377049180328"/>
  <unicode hex="0078"/>
  <anchor x="399.8032786885246" y="0.0" name="bottom"/>
  <anchor x="611.655737704918" y="1106.8524590163936" name="top"/>
  <anchor x="1109.262295081967" y="1106.8524590163936" name="topright"/>
  <outline>
    <contour>
      <point x="-86.62295081967214" y="0.0" type="line"/>
      <point x="184.78688524590166" y="0.0" type="line"/>
      <point x="490.0327868852459" y="388.81967213114757" type="line"/>
      <point x="649.0327868852459" y="0.0" type="line"/>
      <point x="895.3278688524591" y="0.0" type="line"/>
      <point x="646.8688524590164" y="557.0" type="line"/>
      <point x="1107.737704918033" y="1106.8524590163936" type="line"/>
      <point x="835.1147540983605" y="1106.8524590163936" type="line"/>
      <point x="547.6393442622951" y="732.72131147541" type="line"/>
      <point x="401.9836065573771" y="1106.8524590163936" type="line"/>
      <point x="158.45901639344262" y="1106.8524590163936" type="line"/>
      <point x="390.1475409836065" y="568.5409836065573" type="line"/>
    </contour>
  </outline>
</glyph>
<glyph name="y" format="2">
  <advance width="1003.3606557377049"/>
  <unicode hex="0079"/>
  <anchor x="280.57377049180326" y="-492.0" name="bottom"/>
  <anchor x="581.3442622950819" y="1106.8524590163936" name="top"/>
  <anchor x="1080.2459016393443" y="1106.8524590163936" name="topright"/>
  <outline>
    <contour>
      <point x="-25.770491803278674" y="-492.0" type="curve" smooth="yes"/>
      <point x="169.32786885245903" y="-492.0"/>
      <point x="301.55737704918033" y="-388.11475409836066"/>
      <point x="415.983606557377" y="-173.37704918032784" type="curve" smooth="yes"/>
      <point x="1105.4590163934427" y="1106.8524590163936" type="line"/>
      <point x="853.1475409836065" y="1106.8524590163936" type="line"/>
      <point x="560.2622950819673" y="533.1803278688525" type="line" smooth="yes"/>
      <point x="509.0491803278689" y="433.0"/>
      <point x="449.8360655737705" y="284.7049180327869"/>
      <point x="422.8360655737705" y="217.81967213114757" type="curve"/>
      <point x="415.95081967213116" y="217.81967213114757" type="line"/>
      <point x="415.95081967213116" y="301.1639344262295"/>
      <point x="410.60655737704917" y="460.0655737704918"/>
      <point x="395.5901639344262" y="574.9180327868853" type="curve" smooth="yes"/>
      <point x="331.2295081967213" y="1106.8524590163936" type="line"/>
      <point x="99.77049180327869" y="1106.8524590163936" type="line"/>
      <point x="264.88524590163934" y="-8.918032786885245" type="line"/>
      <point x="213.8032786885246" y="-101.39344262295083" type="line" smooth="yes"/>
      <point x="146.22950819672133" y="-225.31147540983608"/>
      <point x="72.45901639344264" y="-300.62295081967216"/>
      <point x="-45.06557377049179" y="-300.62295081967216" type="curve" smooth="yes"/>
      <point x="-93.73770491803279" y="-300.62295081967216"/>
      <point x="-133.86885245901638" y="-293.5081967213115"/>
      <point x="-169.98360655737704" y="-284.8360655737705" type="curve"/>
      <point x="-169.98360655737704" y="-471.88524590163934" type="line"/>
      <point x="-134.08196721311475" y="-483.0"/>
      <point x="-94.42622950819673" y="-492.0"/>
    </contour>
  </outline>
</glyph>
<glyph name="braceleft" format="2">
  <advance width="721.4262295081967"/>
  <unicode hex="007B"/>
  <outline>
    <contour>
      <point x="456.8360655737705" y="-324.0" type="curve" smooth="yes"/>
      <point x="495.344262295082" y="-324.0" type="line"/>
      <point x="495.344262295082" y="-140.36065573770492" type="line"/>
      <point x="408.86885245901635" y="-140.36065573770492"/>
      <point x="354.1803278688525" y="-119.47540983606555"/>
      <point x="354.1803278688525" y="-43.01639344262294" type="curve" smooth="yes"/>
      <point x="354.1803278688525" y="-21.770491803278674"/>
      <point x="358.9672131147541" y="4.147540983606568"/>
      <point x="365.6393442622951" y="31.950819672131157" type="curve" smooth="yes"/>
      <point x="406.65573770491807" y="227.2295081967213" type="line" smooth="yes"/>
      <point x="416.21311475409834" y="270.2295081967213"/>
      <point x="423.327868852459" y="313.59016393442624"/>
      <point x="423.327868852459" y="349.1475409836065" type="curve" smooth="yes"/>
      <point x="423.327868852459" y="454.81967213114757"/>
      <point x="372.34426229508193" y="532.8196721311476"/>
      <point x="263.6885245901639" y="563.9180327868852" type="curve"/>
      <point x="263.6885245901639" y="569.688524590164" type="line"/>
      <point x="417.3770491803279" y="593.1475409836065"/>
      <point x="499.327868852459" y="676.0819672131148"/>
      <point x="530.7704918032787" y="819.6229508196722" type="curve" smooth="yes"/>
      <point x="599.5573770491803" y="1128.8852459016393" type="line" smooth="yes"/>
      <point x="626.344262295082" y="1251.2459016393443"/>
      <point x="690.5737704918033" y="1278.4754098360656"/>
      <point x="801.7213114754098" y="1279.360655737705" type="curve"/>
      <point x="840.688524590164" y="1462.0" type="line"/>
      <point x="782.8852459016393" y="1462.0" type="line" smooth="yes"/>
      <point x="542.1639344262295" y="1462.0"/>
      <point x="441.9344262295082" y="1373.606557377049"/>
      <point x="396.9344262295082" y="1163.0327868852457" type="curve" smooth="yes"/>
      <point x="332.0327868852459" y="857.967213114754" type="line" smooth="yes"/>
      <point x="303.0327868852459" y="723.3934426229508"/>
      <point x="207.91803278688525" y="671.8360655737705"/>
      <point x="48.147540983606554" y="671.8360655737705" type="curve"/>
      <point x="9.278688524590162" y="487.4262295081967" type="line"/>
      <point x="146.27868852459017" y="487.4262295081967"/>
      <point x="217.72131147540983" y="440.4262295081967"/>
      <point x="217.72131147540983" y="345.7540983606557" type="curve" smooth="yes"/>
      <point x="217.72131147540983" y="316.73770491803276"/>
      <point x="210.83606557377047" y="283.50819672131144"/>
      <point x="203.27868852459017" y="245.81967213114754" type="curve" smooth="yes"/>
      <point x="158.70491803278688" y="44.540983606557376" type="line" smooth="yes"/>
      <point x="148.47540983606558" y="-1.1475409836065573"/>
      <point x="140.80327868852459" y="-44.37704918032787"/>
      <point x="140.80327868852459" y="-88.26229508196721" type="curve" smooth="yes"/>
      <point x="140.80327868852459" y="-239.39344262295083"/>
      <point x="240.9344262295082" y="-324.0"/>
    </contour>
  </outline>
</glyph>
<glyph name="braceright" format="2">
  <advance width="721.4262295081967"/>
  <unicode hex="007D"/>
  <outline>
    <contour>
      <point x="-86.62295081967213" y="-324.0" type="line"/>
      <point x="-58.34426229508196" y="-324.0" type="line" smooth="yes"/>
      <point x="182.3770491803279" y="-324.0"/>
      <point x="285.95081967213116" y="-244.08196721311475"/>
      <point x="333.73770491803276" y="-24.59016393442623" type="curve" smooth="yes"/>
      <point x="398.5245901639344" y="280.5901639344262" type="line" smooth="yes"/>
      <point x="427.0819672131148" y="415.1639344262295"/>
      <point x="522.1967213114754" y="466.60655737704917"/>
      <point x="681.967213114754" y="466.60655737704917" type="curve"/>
      <point x="720.2786885245902" y="651.5737704918032" type="line"/>
      <point x="583.8360655737705" y="651.5737704918032"/>
      <point x="511.27868852459017" y="698.5737704918033"/>
      <point x="511.27868852459017" y="792.8032786885245" type="curve" smooth="yes"/>
      <point x="511.27868852459017" y="822.2622950819672"/>
      <point x="519.7213114754098" y="853.9344262295083"/>
      <point x="526.8360655737705" y="891.6229508196722" type="curve" smooth="yes"/>
      <point x="571.4098360655738" y="1094.4590163934427" type="line" smooth="yes"/>
      <point x="581.6393442622951" y="1139.704918032787"/>
      <point x="589.3114754098361" y="1182.9344262295083"/>
      <point x="589.3114754098361" y="1226.8196721311476" type="curve" smooth="yes"/>
      <point x="589.3114754098361" y="1378.393442622951"/>
      <point x="489.18032786885243" y="1462.0"/>
      <point x="271.04918032786884" y="1462.0" type="curve" smooth="yes"/>
      <point x="249.19672131147544" y="1462.0" type="line"/>
      <point x="214.327868852459" y="1279.360655737705" type="line"/>
      <point x="318.57377049180326" y="1279.360655737705"/>
      <point x="378.1639344262295" y="1257.4754098360656"/>
      <point x="378.1639344262295" y="1181.4590163934427" type="curve" smooth="yes"/>
      <point x="378.1639344262295" y="1160.327868852459"/>
      <point x="373.93442622950823" y="1134.8524590163936"/>
      <point x="367.1475409836066" y="1106.4918032786886" type="curve" smooth="yes"/>
      <point x="324.57377049180326" y="909.655737704918" type="line" smooth="yes"/>
      <point x="315.016393442623" y="866.655737704918"/>
      <point x="307.90163934426226" y="824.295081967213"/>
      <point x="307.90163934426226" y="788.1803278688525" type="curve" smooth="yes"/>
      <point x="307.90163934426226" y="682.6229508196722"/>
      <point x="357.7704918032787" y="605.7377049180328"/>
      <point x="466.42622950819674" y="574.5245901639345" type="curve"/>
      <point x="466.42622950819674" y="567.1967213114755" type="line"/>
      <point x="312.7377049180328" y="544.7377049180328"/>
      <point x="231.22950819672133" y="461.91803278688525"/>
      <point x="199.34426229508196" y="319.3770491803279" type="curve" smooth="yes"/>
      <point x="130.55737704918033" y="10.114754098360663" type="line" smooth="yes"/>
      <point x="103.77049180327869" y="-112.68852459016394"/>
      <point x="30.655737704918025" y="-139.47540983606558"/>
      <point x="-86.62295081967213" y="-140.36065573770492" type="curve"/>
    </contour>
  </outline>
</glyph>
<glyph name="asciitilde" format="2">
  <advance width="1171.0"/>
  <unicode hex="007E"/>
  <outline>
    <contour>
      <point x="581.8196721311475" y="636.6229508196722" type="curve" smooth="yes"/>
      <point x="707.4754098360656" y="583.622950819672"/>
      <point x="776.0327868852459" y="572.5081967213115"/>
      <point x="854.9180327868853" y="572.5081967213115" type="curve" smooth="yes"/>
      <point x="956.1311475409836" y="572.5081967213115"/>
      <point x="1038.4590163934427" y="610.6229508196722"/>
      <point x="1105.344262295082" y="682.0655737704918" type="curve"/>
      <point x="1105.344262295082" y="872.3770491803278" type="line"/>
      <point x="1038.4590163934427" y="804.3770491803278"/>
      <point x="949.344262295082" y="751.377049180328"/>
      <point x="870.2295081967213" y="751.377049180328" type="curve" smooth="yes"/>
      <point x="812.344262295082" y="751.377049180328"/>
      <point x="750.4754098360656" y="763.9344262295082"/>
      <point x="651.032786885246" y="806.9344262295083" type="curve" smooth="yes"/>
      <point x="524.8196721311475" y="860.3770491803278"/>
      <point x="456.81967213114757" y="871.4918032786885"/>
      <point x="378.37704918032784" y="871.4918032786885" type="curve" smooth="yes"/>
      <point x="277.2786885245901" y="871.4918032786885"/>
      <point x="194.3934426229508" y="834.4918032786885"/>
      <point x="127.95081967213113" y="763.0491803278688" type="curve"/>
      <point x="127.95081967213113" y="571.6229508196722" type="line"/>
      <point x="194.3934426229508" y="638.622950819672"/>
      <point x="284.6229508196721" y="692.6229508196722"/>
      <point x="361.5081967213115" y="692.6229508196722" type="curve" smooth="yes"/>
      <point x="421.39344262295083" y="692.6229508196722"/>
      <point x="482.9344262295082" y="679.6229508196722"/>
    </contour>
  </outline>
</glyph>
<glyph name="exclamdown" format="2">
  <advance width="557.5737704918033"/>
  <unicode hex="00A1"/>
  <outline>
    <contour>
      <point x="-43.90163934426231" y="-372.11475409836066" type="line"/>
      <point x="228.655737704918" y="-372.11475409836066" type="line"/>
      <point x="395.57377049180326" y="646.1311475409836" type="line"/>
      <point x="222.1311475409836" y="646.1311475409836" type="line"/>
    </contour>
    <contour>
      <point x="348.45901639344265" y="813.672131147541" type="curve" smooth="yes"/>
      <point x="472.26229508196724" y="813.672131147541"/>
      <point x="522.8032786885246" y="906.311475409836"/>
      <point x="522.8032786885246" y="994.2786885245902" type="curve" smooth="yes"/>
      <point x="522.8032786885246" y="1065.7213114754097"/>
      <point x="482.91803278688525" y="1118.0"/>
      <point x="397.45901639344265" y="1118.0" type="curve" smooth="yes"/>
      <point x="284.8196721311475" y="1118.0"/>
      <point x="223.4262295081967" y="1037.1147540983607"/>
      <point x="223.4262295081967" y="937.3770491803278" type="curve" smooth="yes"/>
      <point x="223.4262295081967" y="857.7540983606557"/>
      <point x="271.27868852459017" y="813.672131147541"/>
    </contour>
  </outline>
</glyph>
<glyph name="cent" format="2">
  <advance width="1128.0"/>
  <unicode hex="00A2"/>
  <outline>
    <contour>
      <point x="422.672131147541" y="-20.0" type="line"/>
      <point x="578.9016393442623" y="-20.0" type="line"/>
      <point x="619.9016393442622" y="175.34426229508196" type="line"/>
      <point x="740.344262295082" y="179.11475409836066"/>
      <point x="832.9016393442623" y="207.0"/>
      <point x="911.655737704918" y="247.54098360655738" type="curve"/>
      <point x="911.655737704918" y="441.70491803278685" type="line"/>
      <point x="825.2295081967213" y="399.1639344262295"/>
      <point x="742.1147540983607" y="366.95081967213116"/>
      <point x="644.3442622950819" y="366.95081967213116" type="curve" smooth="yes"/>
      <point x="511.9344262295082" y="366.95081967213116"/>
      <point x="432.2131147540984" y="450.344262295082"/>
      <point x="432.2131147540984" y="599.0819672131147" type="curve" smooth="yes"/>
      <point x="432.2131147540984" y="876.8852459016393"/>
      <point x="569.6393442622951" y="1131.5901639344263"/>
      <point x="784.1639344262295" y="1131.5901639344263" type="curve" smooth="yes"/>
      <point x="872.1639344262295" y="1131.5901639344263"/>
      <point x="942.8524590163935" y="1105.5901639344263"/>
      <point x="1004.9344262295082" y="1077.934426229508" type="curve"/>
      <point x="1074.081967213115" y="1263.344262295082" type="line"/>
      <point x="1009.311475409836" y="1292.0"/>
      <point x="935.0819672131148" y="1311.655737704918"/>
      <point x="852.4262295081967" y="1319.4262295081967" type="curve"/>
      <point x="888.5409836065573" y="1483.0" type="line"/>
      <point x="733.4262295081967" y="1483.0" type="line"/>
      <point x="700.4262295081967" y="1319.4262295081967" type="line"/>
      <point x="383.9016393442623" y="1272.426229508197"/>
      <point x="194.65573770491804" y="956.2295081967213"/>
      <point x="194.65573770491804" y="587.3442622950819" type="curve" smooth="yes"/>
      <point x="194.65573770491804" y="362.5901639344262"/>
      <point x="304.983606557377" y="235.78688524590166"/>
      <point x="468.327868852459" y="192.78688524590166" type="curve"/>
    </contour>
  </outline>
</glyph>
<glyph name="sterling" format="2">
  <advance width="1128.0"/>
  <unicode hex="00A3"/>
  <outline>
    <contour>
      <point x="-18.13114754098361" y="0.0" type="line"/>
      <point x="954.8032786885246" y="0.0" type="line"/>
      <point x="998.655737704918" y="206.49180327868856" type="line"/>
      <point x="307.9836065573771" y="206.49180327868856" type="line"/>
      <point x="399.72131147540983" y="251.26229508196724"/>
      <point x="475.7213114754099" y="327.55737704918033"/>
      <point x="507.5081967213115" y="479.8360655737705" type="curve" smooth="yes"/>
      <point x="540.5573770491803" y="632.3934426229508" type="line"/>
      <point x="876.344262295082" y="632.3934426229508" type="line"/>
      <point x="912.4262295081967" y="805.016393442623" type="line"/>
      <point x="576.6393442622951" y="805.016393442623" type="line"/>
      <point x="635.344262295082" y="1083.622950819672" type="line" smooth="yes"/>
      <point x="669.032786885246" y="1240.622950819672"/>
      <point x="756.4426229508198" y="1288.5081967213114"/>
      <point x="862.5737704918032" y="1288.5081967213114" type="curve" smooth="yes"/>
      <point x="958.8688524590165" y="1288.5081967213114"/>
      <point x="1049.0" y="1251.704918032787"/>
      <point x="1120.1967213114754" y="1214.934426229508" type="curve"/>
      <point x="1209.2295081967213" y="1396.7704918032787" type="line"/>
      <point x="1121.9180327868853" y="1442.655737704918"/>
      <point x="1000.7213114754098" y="1482.7704918032787"/>
      <point x="856.3934426229508" y="1482.7704918032787" type="curve" smooth="yes"/>
      <point x="623.9344262295082" y="1482.7704918032787"/>
      <point x="459.9180327868852" y="1365.1967213114756"/>
      <point x="404.2459016393443" y="1104.967213114754" type="curve" smooth="yes"/>
      <point x="342.42622950819674" y="805.016393442623" type="line"/>
      <point x="145.40983606557376" y="805.016393442623" type="line"/>
      <point x="109.88524590163935" y="632.3934426229508" type="line"/>
      <point x="306.344262295082" y="632.3934426229508" type="line"/>
      <point x="271.5245901639344" y="469.86885245901635" type="line" smooth="yes"/>
      <point x="234.2950819672131" y="299.60655737704917"/>
      <point x="138.72131147540983" y="221.3770491803279"/>
      <point x="19.72131147540984" y="193.6065573770492" type="curve"/>
    </contour>
  </outline>
</glyph>
<glyph name="yen" format="2">
  <advance width="1128.0"/>
  <unicode hex="00A5"/>
  <outline>
    <contour>
      <point x="328.11475409836066" y="0.0" type="line"/>
      <point x="549.4426229508197" y="0.0" type="line"/>
      <point x="602.5737704918032" y="243.85245901639342" type="line"/>
      <point x="875.7540983606557" y="243.85245901639342" type="line"/>
      <point x="908.2950819672132" y="399.0" type="line"/>
      <point x="633.4426229508197" y="399.0" type="line"/>
      <point x="664.2295081967213" y="548.1475409836065" type="line"/>
      <point x="939.0819672131148" y="548.1475409836065" type="line"/>
      <point x="972.5081967213115" y="703.2950819672132" type="line"/>
      <point x="755.5737704918033" y="703.2950819672132" type="line"/>
      <point x="1274.3934426229507" y="1462.0" type="line"/>
      <point x="1026.9344262295083" y="1462.0" type="line"/>
      <point x="594.622950819672" y="792.2950819672132" type="line"/>
      <point x="448.2950819672131" y="1462.0" type="line"/>
      <point x="218.73770491803276" y="1462.0" type="line"/>
      <point x="416.311475409836" y="703.2950819672132" type="line"/>
      <point x="205.2622950819672" y="703.2950819672132" type="line"/>
      <point x="170.72131147540983" y="548.1475409836065" type="line"/>
      <point x="443.34426229508193" y="548.1475409836065" type="line"/>
      <point x="412.11475409836066" y="399.0" type="line"/>
      <point x="141.1639344262295" y="399.0" type="line"/>
      <point x="107.50819672131148" y="243.85245901639342" type="line"/>
      <point x="380.1311475409836" y="243.85245901639342" type="line"/>
    </contour>
  </outline>
</glyph>
<glyph name="section" format="2">
  <advance width="995.0"/>
  <unicode hex="00A7"/>
  <outline>
    <contour>
      <point x="354.88524590163934" y="-14.426229508196723" type="curve" smooth="yes"/>
      <point x="638.5737704918033" y="-14.426229508196723"/>
      <point x="806.9344262295082" y="114.81967213114754"/>
      <point x="806.9344262295082" y="319.8688524590164" type="curve" smooth="yes"/>
      <point x="806.9344262295082" y="405.78688524590166"/>
      <point x="760.6885245901639" y="468.5409836065574"/>
      <point x="704.1147540983607" y="512.1967213114754" type="curve"/>
      <point x="822.0655737704918" y="576.0983606557377"/>
      <point x="917.1803278688525" y="676.9180327868852"/>
      <point x="917.1803278688525" y="821.2295081967212" type="curve" smooth="yes"/>
      <point x="917.1803278688525" y="961.7049180327868"/>
      <point x="823.8032786885246" y="1047.0"/>
      <point x="670.7213114754098" y="1114.655737704918" type="curve" smooth="yes"/>
      <point x="540.1147540983607" y="1172.9016393442623"/>
      <point x="487.11475409836066" y="1210.2295081967213"/>
      <point x="487.11475409836066" y="1275.1475409836066" type="curve" smooth="yes"/>
      <point x="487.11475409836066" y="1366.8688524590164"/>
      <point x="574.9836065573771" y="1403.4426229508197"/>
      <point x="670.688524590164" y="1403.4426229508197" type="curve" smooth="yes"/>
      <point x="773.311475409836" y="1403.4426229508197"/>
      <point x="861.9672131147541" y="1371.360655737705"/>
      <point x="944.8852459016393" y="1331.7049180327867" type="curve"/>
      <point x="1011.8360655737705" y="1489.032786885246" type="line"/>
      <point x="918.9836065573771" y="1536.4590163934427"/>
      <point x="810.311475409836" y="1567.0"/>
      <point x="679.5409836065573" y="1567.0" type="curve" smooth="yes"/>
      <point x="429.54098360655735" y="1567.0"/>
      <point x="273.5081967213115" y="1445.0819672131147"/>
      <point x="273.5081967213115" y="1265.1639344262294" type="curve" smooth="yes"/>
      <point x="273.5081967213115" y="1178.4590163934427"/>
      <point x="319.8524590163934" y="1110.918032786885"/>
      <point x="382.09836065573774" y="1067.032786885246" type="curve"/>
      <point x="257.983606557377" y="1001.622950819672"/>
      <point x="162.2622950819672" y="909.6229508196722"/>
      <point x="162.2622950819672" y="763.8032786885245" type="curve" smooth="yes"/>
      <point x="162.2622950819672" y="619.0983606557377"/>
      <point x="256.72131147540983" y="534.1311475409836"/>
      <point x="410.04918032786884" y="463.0327868852459" type="curve" smooth="yes"/>
      <point x="544.655737704918" y="399.45901639344265"/>
      <point x="591.7868852459015" y="357.11475409836066"/>
      <point x="591.7868852459015" y="298.7704918032787" type="curve" smooth="yes"/>
      <point x="591.7868852459015" y="204.3770491803279"/>
      <point x="512.7213114754098" y="147.8032786885246"/>
      <point x="358.8688524590164" y="147.8032786885246" type="curve" smooth="yes"/>
      <point x="239.34426229508196" y="147.8032786885246"/>
      <point x="120.57377049180327" y="191.45901639344265"/>
      <point x="39.50819672131147" y="238.8688524590164" type="curve"/>
      <point x="39.50819672131147" y="53.885245901639344" type="line"/>
      <point x="109.47540983606557" y="15.573770491803279"/>
      <point x="213.45901639344262" y="-14.426229508196723"/>
    </contour>
    <contour>
      <point x="577.2131147540983" y="586.9180327868852" type="curve"/>
      <point x="412.45901639344265" y="660.0655737704918"/>
      <point x="359.0" y="708.8360655737705"/>
      <point x="359.0" y="791.8852459016393" type="curve" smooth="yes"/>
      <point x="359.0" y="883.7377049180328"/>
      <point x="432.42622950819674" y="955.5409836065575"/>
      <point x="510.4590163934426" y="984.7540983606558" type="curve"/>
      <point x="652.5573770491803" y="925.8196721311475"/>
      <point x="716.0" y="871.0491803278688"/>
      <point x="716.0" y="791.4754098360655" type="curve" smooth="yes"/>
      <point x="716.0" y="698.655737704918"/>
      <point x="648.2786885245902" y="627.7213114754098"/>
    </contour>
  </outline>
</glyph>
<glyph name="dieresis" format="2">
  <advance width="1135.0"/>
  <unicode hex="00A8"/>
  <outline>
    <contour>
      <point x="914.2950819672132" y="1283.1475409836066" type="curve" smooth="yes"/>
      <point x="987.8688524590165" y="1283.1475409836066"/>
      <point x="1038.7704918032787" y="1336.1147540983607"/>
      <point x="1038.7704918032787" y="1421.409836065574" type="curve" smooth="yes"/>
      <point x="1038.7704918032787" y="1484.5737704918033"/>
      <point x="998.4918032786885" y="1514.9180327868853"/>
      <point x="937.7377049180327" y="1514.9180327868853" type="curve" smooth="yes"/>
      <point x="856.2295081967213" y="1514.9180327868853"/>
      <point x="810.1475409836065" y="1459.9180327868853"/>
      <point x="810.1475409836065" y="1379.7704918032787" type="curve" smooth="yes"/>
      <point x="810.1475409836065" y="1312.8196721311476"/>
      <point x="854.2295081967213" y="1283.1475409836066"/>
    </contour>
    <contour>
      <point x="540.7704918032788" y="1283.1475409836066" type="curve" smooth="yes"/>
      <point x="614.344262295082" y="1283.1475409836066"/>
      <point x="663.5737704918033" y="1336.1147540983607"/>
      <point x="663.5737704918033" y="1421.409836065574" type="curve" smooth="yes"/>
      <point x="663.5737704918033" y="1484.5737704918033"/>
      <point x="624.4098360655738" y="1514.9180327868853"/>
      <point x="562.5409836065575" y="1514.9180327868853" type="curve" smooth="yes"/>
      <point x="481.0327868852459" y="1514.9180327868853"/>
      <point x="435.5081967213115" y="1459.9180327868853"/>
      <point x="435.5081967213115" y="1379.7704918032787" type="curve" smooth="yes"/>
      <point x="435.5081967213115" y="1312.8196721311476"/>
      <point x="479.0327868852459" y="1283.1475409836066"/>
    </contour>
  </outline>
</glyph>
<glyph name="ordfeminine" format="2">
  <advance width="728.5245901639344"/>
  <unicode hex="00AA"/>
  <anchor x="398.2950819672131" y="769.6065573770492" name="bottom"/>
  <anchor x="549.8524590163935" y="1473.0" name="top"/>
  <outline>
    <contour>
      <point x="357.2950819672131" y="768.0655737704918" type="curve" smooth="yes"/>
      <point x="451.75409836065575" y="768.0655737704918"/>
      <point x="513.0819672131148" y="816.983606557377"/>
      <point x="564.311475409836" y="884.8852459016393" type="curve"/>
      <point x="571.6393442622951" y="884.8852459016393" type="line"/>
      <point x="559.8524590163935" y="780.6229508196722" type="line"/>
      <point x="678.8688524590164" y="780.6229508196722" type="line"/>
      <point x="827.3934426229508" y="1464.2295081967213" type="line"/>
      <point x="707.9508196721312" y="1464.2295081967213" type="line"/>
      <point x="670.0655737704918" y="1374.2295081967213" type="line"/>
      <point x="662.0655737704917" y="1374.2295081967213" type="line"/>
      <point x="632.5409836065573" y="1434.655737704918"/>
      <point x="584.0" y="1477.2295081967213"/>
      <point x="498.0" y="1477.2295081967213" type="curve" smooth="yes"/>
      <point x="268.3934426229508" y="1477.2295081967213"/>
      <point x="160.91803278688525" y="1222.4262295081967"/>
      <point x="160.91803278688525" y="1014.8852459016393" type="curve" smooth="yes"/>
      <point x="160.91803278688525" y="843.1967213114754"/>
      <point x="251.54098360655738" y="768.0655737704918"/>
    </contour>
    <contour>
      <point x="411.344262295082" y="895.6557377049181" type="curve" smooth="yes"/>
      <point x="351.22950819672127" y="895.6557377049181"/>
      <point x="318.655737704918" y="935.7704918032787"/>
      <point x="318.655737704918" y="1020.0327868852459" type="curve" smooth="yes"/>
      <point x="318.655737704918" y="1175.8524590163934"/>
      <point x="394.4590163934426" y="1349.4262295081967"/>
      <point x="514.3934426229508" y="1349.4262295081967" type="curve" smooth="yes"/>
      <point x="584.1967213114755" y="1349.4262295081967"/>
      <point x="615.7704918032787" y="1302.1967213114756"/>
      <point x="615.7704918032787" y="1230.1639344262294" type="curve" smooth="yes"/>
      <point x="615.7704918032787" y="1112.0"/>
      <point x="549.622950819672" y="895.6557377049181"/>
    </contour>
  </outline>
</glyph>
<glyph name="guillemotleft" format="2">
  <advance width="1054.016393442623"/>
  <unicode hex="00AB"/>
  <outline>
    <contour>
      <point x="296.8524590163934" y="101.70491803278688" type="line"/>
      <point x="475.4098360655738" y="176.83606557377047" type="line"/>
      <point x="322.016393442623" y="546.344262295082" type="line"/>
      <point x="609.9344262295082" y="877.0" type="line"/>
      <point x="476.34426229508193" y="994.655737704918" type="line"/>
      <point x="79.80327868852459" y="576.2459016393442" type="line"/>
      <point x="79.80327868852459" y="553.2295081967213" type="line"/>
    </contour>
    <contour>
      <point x="730.2295081967213" y="101.70491803278688" type="line"/>
      <point x="908.2295081967213" y="176.83606557377047" type="line"/>
      <point x="761.6393442622951" y="526.8360655737705" type="line"/>
      <point x="1042.311475409836" y="877.0" type="line"/>
      <point x="904.7049180327868" y="988.5245901639344" type="line"/>
      <point x="519.983606557377" y="554.5081967213115" type="line"/>
      <point x="519.983606557377" y="530.3770491803278" type="line"/>
    </contour>
  </outline>
</glyph>
<glyph name="logicalnot" format="2">
  <advance width="1171.0"/>
  <unicode hex="00AC"/>
  <outline>
    <contour>
      <point x="1104.2295081967213" y="810.9344262295082" type="line"/>
      <point x="127.95081967213115" y="810.9344262295082" type="line"/>
      <point x="127.95081967213115" y="632.6229508196722" type="line"/>
      <point x="926.4754098360655" y="632.6229508196722" type="line"/>
      <point x="926.4754098360655" y="255.8032786885246" type="line"/>
      <point x="1104.2295081967213" y="255.8032786885246" type="line"/>
    </contour>
  </outline>
</glyph>
<glyph name="overscore" format="2">
  <advance width="901.9344262295082"/>
  <unicode hex="00AF"/>
  <outline>
    <contour>
      <point x="194.1639344262295" y="1556.0" type="line"/>
      <point x="1102.5245901639344" y="1556.0" type="line"/>
      <point x="1142.3934426229507" y="1721.8852459016393" type="line"/>
      <point x="232.47540983606558" y="1721.8852459016393" type="line"/>
    </contour>
  </outline>
</glyph>
<glyph name="twosuperior" format="2">
  <advance width="746.4590163934427"/>
  <unicode hex="00B2"/>
  <outline>
    <contour>
      <point x="131.72131147540983" y="851.1147540983607" type="line"/>
      <point x="735.8032786885246" y="851.1147540983607" type="line"/>
      <point x="768.4426229508197" y="1009.7540983606557" type="line"/>
      <point x="397.3606557377049" y="1009.7540983606557" type="line"/>
      <point x="573.1803278688524" y="1150.5737704918033" type="line" smooth="yes"/>
      <point x="759.0819672131148" y="1296.393442622951"/>
      <point x="837.5737704918033" y="1381.311475409836"/>
      <point x="837.5737704918033" y="1531.8032786885246" type="curve" smooth="yes"/>
      <point x="837.5737704918033" y="1645.7540983606557"/>
      <point x="755.311475409836" y="1747.0"/>
      <point x="587.0819672131148" y="1747.0" type="curve" smooth="yes"/>
      <point x="462.1475409836065" y="1747.0"/>
      <point x="365.5081967213115" y="1709.3442622950818"/>
      <point x="275.311475409836" y="1638.360655737705" type="curve"/>
      <point x="354.6885245901639" y="1514.8032786885244" type="line"/>
      <point x="422.45901639344265" y="1569.2459016393443"/>
      <point x="483.45901639344265" y="1595.2459016393443"/>
      <point x="547.032786885246" y="1595.2459016393443" type="curve" smooth="yes"/>
      <point x="610.1967213114754" y="1595.2459016393443"/>
      <point x="650.311475409836" y="1558.655737704918"/>
      <point x="650.311475409836" y="1496.967213114754" type="curve" smooth="yes"/>
      <point x="650.311475409836" y="1403.688524590164"/>
      <point x="578.0819672131147" y="1335.4262295081967"/>
      <point x="428.6885245901639" y="1209.9180327868853" type="curve" smooth="yes"/>
      <point x="161.14754098360655" y="987.5737704918033" type="line"/>
    </contour>
  </outline>
</glyph>
<glyph name="threesuperior" format="2">
  <advance width="746.4590163934427"/>
  <unicode hex="00B3"/>
  <outline>
    <contour>
      <point x="406.75409836065575" y="836.2295081967213" type="curve" smooth="yes"/>
      <point x="626.1639344262295" y="836.2295081967213"/>
      <point x="774.344262295082" y="941.1803278688525"/>
      <point x="774.344262295082" y="1117.7704918032787" type="curve" smooth="yes"/>
      <point x="774.344262295082" y="1207.1147540983607"/>
      <point x="725.2131147540983" y="1275.5737704918033"/>
      <point x="623.688524590164" y="1299.0163934426228" type="curve"/>
      <point x="623.688524590164" y="1307.4590163934427" type="line"/>
      <point x="750.2622950819673" y="1340.2459016393443"/>
      <point x="836.2295081967213" y="1408.3770491803277"/>
      <point x="836.2295081967213" y="1538.4590163934427" type="curve" smooth="yes"/>
      <point x="836.2295081967213" y="1652.5901639344263"/>
      <point x="757.327868852459" y="1747.2295081967213"/>
      <point x="574.2950819672132" y="1747.2295081967213" type="curve" smooth="yes"/>
      <point x="457.1967213114754" y="1747.2295081967213"/>
      <point x="360.8688524590164" y="1711.7704918032787"/>
      <point x="283.70491803278685" y="1657.4590163934427" type="curve"/>
      <point x="351.7704918032787" y="1536.4426229508197" type="line"/>
      <point x="412.42622950819674" y="1577.4426229508197"/>
      <point x="473.1967213114754" y="1601.8852459016393"/>
      <point x="540.7704918032787" y="1603.0" type="curve" smooth="yes"/>
      <point x="613.704918032787" y="1604.1147540983607"/>
      <point x="656.2786885245902" y="1569.311475409836"/>
      <point x="656.2786885245902" y="1502.377049180328" type="curve" smooth="yes"/>
      <point x="656.2786885245902" y="1416.344262295082"/>
      <point x="578.4754098360656" y="1369.311475409836"/>
      <point x="460.11475409836066" y="1369.311475409836" type="curve" smooth="yes"/>
      <point x="367.88524590163934" y="1369.311475409836" type="line"/>
      <point x="338.45901639344265" y="1235.9508196721313" type="line"/>
      <point x="447.0655737704918" y="1235.9508196721313" type="line" smooth="yes"/>
      <point x="547.2295081967213" y="1235.9508196721313"/>
      <point x="593.3934426229508" y="1193.6065573770493"/>
      <point x="593.3934426229508" y="1123.5409836065573" type="curve" smooth="yes"/>
      <point x="593.3934426229508" y="1031.7213114754097"/>
      <point x="523.0819672131148" y="978.7868852459017"/>
      <point x="403.78688524590166" y="978.7868852459017" type="curve" smooth="yes"/>
      <point x="318.4754098360656" y="978.7868852459017"/>
      <point x="232.24590163934425" y="1007.5737704918033"/>
      <point x="157.59016393442622" y="1050.344262295082" type="curve"/>
      <point x="157.59016393442622" y="891.2295081967213" type="line"/>
      <point x="221.91803278688522" y="858.2295081967213"/>
      <point x="311.88524590163934" y="836.2295081967213"/>
    </contour>
  </outline>
</glyph>
<glyph name="acute" format="2">
  <advance width="592.1147540983607"/>
  <unicode hex="00B4"/>
  <anchor x="338.672131147541" y="1106.8524590163934" name="_top"/>
  <outline>
    <contour>
      <point x="233.78688524590163" y="1241.0" type="line"/>
      <point x="388.72131147540983" y="1241.0" type="line"/>
      <point x="493.72131147540983" y="1315.0"/>
      <point x="663.7868852459017" y="1477.8852459016393"/>
      <point x="722.2295081967213" y="1549.7704918032787" type="curve"/>
      <point x="722.2295081967213" y="1569.0" type="line"/>
      <point x="459.6885245901639" y="1569.0" type="line"/>
      <point x="398.4754098360656" y="1475.2295081967213"/>
      <point x="303.4590163934426" y="1343.7868852459017"/>
      <point x="233.78688524590163" y="1267.1147540983607" type="curve"/>
    </contour>
  </outline>
</glyph>
<glyph name="paragraph" format="2">
  <advance width="1341.0"/>
  <unicode hex="00B6"/>
  <outline>
    <contour>
      <point x="739.1967213114755" y="-260.0" type="line"/>
      <point x="876.7868852459017" y="-260.0" type="line"/>
      <point x="876.7868852459017" y="1378.8524590163936" type="line"/>
      <point x="1066.1967213114754" y="1378.8524590163936" type="line"/>
      <point x="1066.1967213114754" y="-260.0" type="line"/>
      <point x="1204.2295081967213" y="-260.0" type="line"/>
      <point x="1204.2295081967213" y="1556.0" type="line"/>
      <point x="624.1967213114755" y="1556.0" type="line" smooth="yes"/>
      <point x="356.1967213114754" y="1556.0"/>
      <point x="173.75409836065572" y="1434.0"/>
      <point x="173.75409836065572" y="1042.0" type="curve" smooth="yes"/>
      <point x="173.75409836065572" y="668.0"/>
      <point x="339.1967213114754" y="541.0"/>
      <point x="593.1967213114755" y="541.0" type="curve" smooth="yes"/>
      <point x="651.1967213114754" y="541.0"/>
      <point x="698.1967213114754" y="547.0"/>
      <point x="739.1967213114755" y="559.0" type="curve"/>
    </contour>
  </outline>
</glyph>
<glyph name="cedilla" format="2">
  <advance width="420.0"/>
  <unicode hex="00B8"/>
  <outline>
    <contour>
      <point x="-70.04918032786885" y="-492.0" type="curve" smooth="yes"/>
      <point x="136.22950819672133" y="-492.0"/>
      <point x="235.8032786885246" y="-392.5737704918033"/>
      <point x="235.8032786885246" y="-263.3770491803279" type="curve" smooth="yes"/>
      <point x="235.8032786885246" y="-163.37704918032787"/>
      <point x="170.01639344262293" y="-118.62295081967213"/>
      <point x="100.37704918032787" y="-97.08196721311475" type="curve"/>
      <point x="150.52459016393442" y="0.0" type="line"/>
      <point x="5.098360655737693" y="0.0" type="line"/>
      <point x="-92.57377049180329" y="-168.4918032786885" type="line"/>
      <point x="-0.3934426229508219" y="-179.37704918032787"/>
      <point x="46.75409836065574" y="-207.0327868852459"/>
      <point x="46.75409836065574" y="-259.8360655737705" type="curve" smooth="yes"/>
      <point x="46.75409836065574" y="-323.42622950819674"/>
      <point x="1.6065573770491781" y="-356.88524590163934"/>
      <point x="-92.0327868852459" y="-356.88524590163934" type="curve" smooth="yes"/>
      <point x="-123.42622950819671" y="-356.88524590163934"/>
      <point x="-160.72131147540983" y="-350.0163934426229"/>
      <point x="-188.60655737704917" y="-342.24590163934425" type="curve"/>
      <point x="-188.60655737704917" y="-475.6885245901639" type="line"/>
      <point x="-162.62295081967216" y="-483.4590163934426"/>
      <point x="-117.88524590163935" y="-492.0"/>
    </contour>
  </outline>
</glyph>
<glyph name="guillemotright" format="2">
  <advance width="1054.016393442623"/>
  <unicode hex="00BB"/>
  <outline>
    <contour>
      <point x="577.672131147541" y="101.70491803278688" type="line"/>
      <point x="974.2131147540983" y="517.327868852459" type="line"/>
      <point x="974.2131147540985" y="541.4590163934427" type="line"/>
      <point x="757.1639344262295" y="994.655737704918" type="line"/>
      <point x="578.6065573770492" y="919.4098360655738" type="line"/>
      <point x="732.0" y="548.7868852459017" type="line"/>
      <point x="444.0819672131148" y="219.80327868852459" type="line"/>
    </contour>
    <contour>
      <point x="149.31147540983608" y="108.3934426229508" type="line"/>
      <point x="533.4754098360656" y="539.0655737704918" type="line"/>
      <point x="533.4754098360656" y="564.3114754098361" type="line"/>
      <point x="323.78688524590166" y="994.655737704918" type="line"/>
      <point x="145.22950819672133" y="919.4098360655738" type="line"/>
      <point x="292.37704918032784" y="567.1803278688525" type="line"/>
      <point x="11.147540983606559" y="219.80327868852459" type="line"/>
    </contour>
  </outline>
</glyph>
<glyph name="AE" format="2">
  <advance width="1752.1803278688524"/>
  <unicode hex="00C6"/>
  <anchor x="758.8688524590165" y="0.0" name="bottom"/>
  <anchor x="1069.8688524590164" y="1462.0" name="top"/>
  <outline>
    <contour>
      <point x="-120.77049180327869" y="0.0" type="line"/>
      <point x="140.90163934426232" y="0.0" type="line"/>
      <point x="396.6885245901639" y="407.6393442622951" type="line"/>
      <point x="829.3770491803278" y="407.6393442622951" type="line"/>
      <point x="743.1147540983607" y="0.0" type="line"/>
      <point x="1518.8688524590164" y="0.0" type="line"/>
      <point x="1562.27868852459" y="203.6065573770492" type="line"/>
      <point x="1024.0819672131147" y="203.6065573770492" type="line"/>
      <point x="1120.9180327868853" y="661.4262295081967" type="line"/>
      <point x="1624.5573770491803" y="661.4262295081967" type="line"/>
      <point x="1666.1803278688524" y="863.0327868852459" type="line"/>
      <point x="1162.4262295081967" y="863.0327868852459" type="line"/>
      <point x="1247.2622950819673" y="1259.27868852459" type="line"/>
      <point x="1786.5737704918033" y="1259.27868852459" type="line"/>
      <point x="1828.311475409836" y="1462.0" type="line"/>
      <point x="809.0327868852459" y="1462.0" type="line"/>
    </contour>
    <contour>
      <point x="527.2459016393443" y="613.5737704918033" type="line"/>
      <point x="926.9180327868853" y="1259.27868852459" type="line"/>
      <point x="1009.1475409836066" y="1259.27868852459" type="line"/>
      <point x="872.1147540983607" y="613.5737704918033" type="line"/>
    </contour>
  </outline>
</glyph>
<glyph name="Eth" format="2">
  <advance width="1374.8524590163936"/>
  <unicode hex="00D0"/>
  <anchor x="570.5409836065573" y="0.0" name="bottom"/>
  <anchor x="882.5409836065573" y="1462.0" name="top"/>
  <outline>
    <contour>
      <point x="70.27868852459017" y="0.0" type="line"/>
      <point x="470.55737704918033" y="0.0" type="line" smooth="yes"/>
      <point x="1010.7213114754098" y="0.0"/>
      <point x="1311.8524590163934" y="363.4754098360655"/>
      <point x="1311.8524590163934" y="892.2786885245902" type="curve" smooth="yes"/>
      <point x="1311.8524590163934" y="1271.344262295082"/>
      <point x="1102.622950819672" y="1462.0"/>
      <point x="747.4098360655737" y="1462.0" type="curve" smooth="yes"/>
      <point x="379.27868852459017" y="1462.0" type="line"/>
      <point x="242.70491803278688" y="823.8032786885245" type="line"/>
      <point x="97.57377049180327" y="823.8032786885245" type="line"/>
      <point x="54.27868852459015" y="623.311475409836" type="line"/>
      <point x="199.73770491803276" y="623.311475409836" type="line"/>
    </contour>
    <contour>
      <point x="349.016393442623" y="201.3770491803279" type="line"/>
      <point x="437.29508196721315" y="623.311475409836" type="line"/>
      <point x="722.1147540983607" y="623.311475409836" type="line"/>
      <point x="765.967213114754" y="823.8032786885245" type="line"/>
      <point x="481.59016393442624" y="823.8032786885245" type="line"/>
      <point x="574.4262295081967" y="1262.0655737704917" type="line"/>
      <point x="722.311475409836" y="1262.0655737704917" type="line" smooth="yes"/>
      <point x="931.4262295081967" y="1262.0655737704917"/>
      <point x="1065.7377049180327" y="1148.1311475409836"/>
      <point x="1065.7377049180327" y="886.311475409836" type="curve" smooth="yes"/>
      <point x="1065.7377049180327" y="509.29508196721315"/>
      <point x="867.9344262295082" y="201.3770491803279"/>
      <point x="482.88524590163934" y="201.3770491803279" type="curve" smooth="yes"/>
    </contour>
  </outline>
</glyph>
<glyph name="Oslash" format="2">
  <advance width="1484.967213114754"/>
  <unicode hex="00D8"/>
  <anchor x="625.655737704918" y="0.0" name="bottom"/>
  <anchor x="936.655737704918" y="1462.0" name="top"/>
  <outline>
    <contour>
      <point x="242.2950819672131" y="-84.88524590163934" type="line"/>
      <point x="360.88524590163934" y="63.819672131147534" type="line"/>
      <point x="447.9016393442623" y="7.3442622950819665"/>
      <point x="551.688524590164" y="-20.0"/>
      <point x="679.3770491803278" y="-20.0" type="curve" smooth="yes"/>
      <point x="1179.377049180328" y="-20.0"/>
      <point x="1421.409836065574" y="428.672131147541"/>
      <point x="1421.409836065574" y="921.8360655737705" type="curve" smooth="yes"/>
      <point x="1421.409836065574" y="1059.8524590163934"/>
      <point x="1389.0655737704917" y="1183.7704918032787"/>
      <point x="1326.5081967213116" y="1271.311475409836" type="curve"/>
      <point x="1460.2295081967213" y="1435.8196721311476" type="line"/>
      <point x="1327.065573770492" y="1540.0" type="line"/>
      <point x="1208.6885245901638" y="1391.7213114754097" type="line"/>
      <point x="1122.0" y="1453.5409836065573"/>
      <point x="1018.8852459016392" y="1485.0"/>
      <point x="891.4262295081967" y="1485.0" type="curve" smooth="yes"/>
      <point x="399.0" y="1485.0"/>
      <point x="136.37704918032787" y="1025.327868852459"/>
      <point x="136.37704918032787" y="542.5737704918033" type="curve" smooth="yes"/>
      <point x="136.37704918032787" y="398.344262295082"/>
      <point x="169.37704918032787" y="273.11475409836066"/>
      <point x="238.27868852459017" y="178.88524590163934" type="curve"/>
      <point x="109.47540983606558" y="18.409836065573774" type="line"/>
    </contour>
    <contour>
      <point x="694.2295081967212" y="181.72131147540983" type="curve" smooth="yes"/>
      <point x="614.8360655737705" y="181.72131147540983"/>
      <point x="546.5737704918033" y="203.40983606557376"/>
      <point x="499.9836065573771" y="237.11475409836066" type="curve"/>
      <point x="1162.5573770491803" y="1063.5081967213114" type="line"/>
      <point x="1173.4754098360656" y="1024.901639344262"/>
      <point x="1182.049180327869" y="971.5081967213115"/>
      <point x="1182.049180327869" y="920.5245901639345" type="curve" smooth="yes"/>
      <point x="1182.049180327869" y="504.4262295081967"/>
      <point x="986.8196721311476" y="181.72131147540983"/>
    </contour>
    <contour>
      <point x="402.4590163934426" y="380.26229508196724" type="line"/>
      <point x="386.75409836065575" y="427.5245901639344"/>
      <point x="377.1803278688525" y="485.37704918032784"/>
      <point x="377.1803278688525" y="544.8032786885246" type="curve" smooth="yes"/>
      <point x="377.1803278688525" y="947.7868852459017"/>
      <point x="570.4590163934427" y="1284.2786885245903"/>
      <point x="872.2295081967213" y="1284.2786885245903" type="curve" smooth="yes"/>
      <point x="954.3934426229508" y="1284.2786885245903"/>
      <point x="1019.655737704918" y="1258.5901639344263"/>
      <point x="1069.245901639344" y="1218.4262295081967" type="curve"/>
    </contour>
  </outline>
</glyph>
<glyph name="eth" format="2">
  <advance width="1173.639344262295"/>
  <unicode hex="00F0"/>
  <anchor x="469.65573770491807" y="0.0" name="bottom"/>
  <anchor x="803.655737704918" y="1567.0" name="top"/>
  <outline>
    <contour>
      <point x="495.60655737704917" y="-20.0" type="curve" smooth="yes"/>
      <point x="928.4262295081967" y="-20.0"/>
      <point x="1086.032786885246" y="391.0163934426229"/>
      <point x="1086.032786885246" y="806.1475409836066" type="curve" smooth="yes"/>
      <point x="1086.032786885246" y="1021.1967213114754"/>
      <point x="1030.639344262295" y="1179.622950819672"/>
      <point x="930.4426229508197" y="1310.590163934426" type="curve"/>
      <point x="1146.9672131147543" y="1430.967213114754" type="line"/>
      <point x="1076.5409836065573" y="1559.0" type="line"/>
      <point x="827.8360655737705" y="1420.311475409836" type="line"/>
      <point x="768.1639344262295" y="1476.1147540983607"/>
      <point x="693.0819672131148" y="1524.8852459016393"/>
      <point x="618.1311475409836" y="1567.0" type="curve"/>
      <point x="511.8360655737705" y="1415.672131147541" type="line"/>
      <point x="564.7377049180327" y="1384.4262295081967"/>
      <point x="610.8524590163934" y="1352.7377049180327"/>
      <point x="646.983606557377" y="1318.3934426229507" type="curve"/>
      <point x="428.0327868852459" y="1196.9180327868853" type="line"/>
      <point x="500.42622950819674" y="1070.0983606557377" type="line"/>
      <point x="750.9344262295082" y="1210.016393442623" type="line"/>
      <point x="849.7868852459017" y="1098.0"/>
      <point x="879.1147540983607" y="968.1803278688525"/>
      <point x="882.4262295081967" y="833.7704918032787" type="curve"/>
      <point x="874.655737704918" y="832.655737704918" type="line"/>
      <point x="831.0" y="910.9180327868852"/>
      <point x="745.4262295081967" y="980.5081967213115"/>
      <point x="597.6065573770492" y="980.5081967213115" type="curve" smooth="yes"/>
      <point x="277.27868852459017" y="980.5081967213115"/>
      <point x="80.91803278688525" y="703.7213114754098"/>
      <point x="80.91803278688525" y="388.72131147540983" type="curve" smooth="yes"/>
      <point x="80.91803278688525" y="114.59016393442624"/>
      <point x="245.96721311475412" y="-20.0"/>
    </contour>
    <contour>
      <point x="507.9344262295082" y="162.63934426229508" type="curve" smooth="yes"/>
      <point x="375.60655737704917" y="162.63934426229508"/>
      <point x="317.59016393442624" y="249.37704918032787"/>
      <point x="317.59016393442624" y="377.0" type="curve" smooth="yes"/>
      <point x="317.59016393442624" y="580.2786885245902"/>
      <point x="412.18032786885243" y="798.4262295081967"/>
      <point x="621.0983606557377" y="798.4262295081967" type="curve" smooth="yes"/>
      <point x="762.9016393442623" y="798.4262295081967"/>
      <point x="817.7049180327868" y="693.7704918032787"/>
      <point x="817.7049180327868" y="585.8360655737705" type="curve" smooth="yes"/>
      <point x="817.7049180327868" y="415.344262295082"/>
      <point x="724.1639344262295" y="162.63934426229508"/>
    </contour>
  </outline>
</glyph>
<glyph name="divide" format="2">
  <advance width="1171.0"/>
  <unicode hex="00F7"/>
  <outline>
    <contour>
      <point x="127.95081967213115" y="632.6229508196722" type="line"/>
      <point x="1105.344262295082" y="632.6229508196722" type="line"/>
      <point x="1105.344262295082" y="810.9344262295082" type="line"/>
      <point x="127.95081967213115" y="810.9344262295082" type="line"/>
    </contour>
    <contour>
      <point x="615.704918032787" y="236.04918032786884" type="curve" smooth="yes"/>
      <point x="682.4590163934427" y="236.04918032786884"/>
      <point x="739.6557377049181" y="276.5901639344262"/>
      <point x="739.6557377049181" y="373.0" type="curve" smooth="yes"/>
      <point x="739.6557377049181" y="473.8524590163934"/>
      <point x="682.4590163934427" y="508.39344262295083"/>
      <point x="615.704918032787" y="508.39344262295083" type="curve" smooth="yes"/>
      <point x="546.3934426229507" y="508.39344262295083"/>
      <point x="490.08196721311475" y="473.8524590163934"/>
      <point x="490.08196721311475" y="373.0" type="curve" smooth="yes"/>
      <point x="490.08196721311475" y="276.5901639344262"/>
      <point x="546.3934426229507" y="236.04918032786884"/>
    </contour>
    <contour>
      <point x="615.704918032787" y="934.4918032786885" type="curve" smooth="yes"/>
      <point x="682.4590163934427" y="934.4918032786885"/>
      <point x="739.6557377049181" y="975.0327868852459"/>
      <point x="739.6557377049181" y="1071.0" type="curve" smooth="yes"/>
      <point x="739.6557377049181" y="1172.2950819672133"/>
      <point x="682.4590163934427" y="1206.8360655737706"/>
      <point x="615.704918032787" y="1206.8360655737706" type="curve" smooth="yes"/>
      <point x="546.3934426229507" y="1206.8360655737706"/>
      <point x="490.08196721311475" y="1172.2950819672133"/>
      <point x="490.08196721311475" y="1071.0" type="curve" smooth="yes"/>
      <point x="490.08196721311475" y="975.0327868852459"/>
      <point x="546.3934426229507" y="934.4918032786885"/>
    </contour>
  </outline>
</glyph>
<glyph name="oslash" format="2">
  <advance width="1172.918032786885"/>
  <unicode hex="00F8"/>
  <anchor x="469.8524590163934" y="0.0" name="bottom"/>
  <anchor x="705.0655737704918" y="1106.8524590163936" name="top"/>
  <outline>
    <contour>
      <point x="175.08196721311475" y="-88.62295081967214" type="line"/>
      <point x="277.95081967213116" y="40.803278688524586" type="line"/>
      <point x="342.6229508196721" y="3.3442622950819647"/>
      <point x="423.96721311475414" y="-17.770491803278688"/>
      <point x="513.5409836065573" y="-17.770491803278688" type="curve" smooth="yes"/>
      <point x="895.016393442623" y="-17.770491803278688"/>
      <point x="1077.344262295082" y="345.9836065573771"/>
      <point x="1077.344262295082" y="701.016393442623" type="curve" smooth="yes"/>
      <point x="1077.344262295082" y="797.8852459016393"/>
      <point x="1056.5737704918033" y="892.5737704918033"/>
      <point x="1013.5737704918033" y="959.9016393442623" type="curve"/>
      <point x="1114.8524590163934" y="1077.1639344262296" type="line"/>
      <point x="989.9180327868852" y="1171.0" type="line"/>
      <point x="903.1967213114755" y="1062.9344262295083" type="line"/>
      <point x="838.5245901639344" y="1103.27868852459"/>
      <point x="758.8524590163935" y="1123.950819672131"/>
      <point x="663.3770491803278" y="1123.950819672131" type="curve" smooth="yes"/>
      <point x="285.88524590163934" y="1123.950819672131"/>
      <point x="95.57377049180329" y="769.327868852459"/>
      <point x="95.57377049180329" y="407.7704918032787" type="curve" smooth="yes"/>
      <point x="95.57377049180329" y="303.42622950819674"/>
      <point x="119.45901639344262" y="217.4262295081967"/>
      <point x="166.4590163934426" y="147.86885245901638" type="curve"/>
      <point x="51.91803278688524" y="5.999999999999999" type="line"/>
    </contour>
    <contour>
      <point x="529.0655737704918" y="167.06557377049182" type="curve" smooth="yes"/>
      <point x="480.6885245901639" y="167.06557377049182"/>
      <point x="433.0983606557377" y="180.1803278688525"/>
      <point x="406.8360655737705" y="201.21311475409837" type="curve"/>
      <point x="843.4262295081967" y="744.983606557377" type="line"/>
      <point x="847.8852459016393" y="726.8524590163935"/>
      <point x="850.672131147541" y="697.360655737705"/>
      <point x="849.7868852459017" y="666.0819672131147" type="curve" smooth="yes"/>
      <point x="844.4754098360656" y="399.327868852459"/>
      <point x="720.0819672131147" y="167.06557377049182"/>
    </contour>
    <contour>
      <point x="332.60655737704917" y="351.86885245901635" type="line"/>
      <point x="327.0327868852459" y="372.327868852459"/>
      <point x="323.13114754098365" y="404.93442622950823"/>
      <point x="324.016393442623" y="443.2295081967213" type="curve" smooth="yes"/>
      <point x="329.327868852459" y="684.8688524590164"/>
      <point x="441.0327868852459" y="937.5573770491803"/>
      <point x="654.7540983606557" y="937.5573770491803" type="curve" smooth="yes"/>
      <point x="709.9344262295082" y="937.5573770491803"/>
      <point x="750.2786885245902" y="920.5409836065573"/>
      <point x="775.0819672131147" y="901.8524590163934" type="curve"/>
    </contour>
  </outline>
</glyph>
<glyph name="thorn" format="2">
  <advance width="1200.606557377049"/>
  <unicode hex="00FE"/>
  <anchor x="379.1967213114754" y="-492.0" name="bottom"/>
  <anchor x="814.311475409836" y="1556.0" name="top"/>
  <outline>
    <contour>
      <point x="-55.18032786885246" y="-492.0" type="line"/>
      <point x="177.26229508196724" y="-492.0" type="line"/>
      <point x="264.8688524590164" y="-77.31147540983608" type="line" smooth="yes"/>
      <point x="281.1803278688525" y="-4.409836065573778"/>
      <point x="293.1803278688525" y="86.27868852459017"/>
      <point x="297.8360655737705" y="156.93442622950818" type="curve"/>
      <point x="306.95081967213116" y="156.93442622950818" type="line"/>
      <point x="357.04918032786884" y="60.475409836065566"/>
      <point x="442.73770491803276" y="-20.0"/>
      <point x="585.7540983606558" y="-20.0" type="curve" smooth="yes"/>
      <point x="921.2950819672132" y="-20.0"/>
      <point x="1104.0327868852457" y="370.11475409836066"/>
      <point x="1104.0327868852457" y="736.5737704918033" type="curve" smooth="yes"/>
      <point x="1104.0327868852457" y="996.2950819672132"/>
      <point x="981.1639344262295" y="1126.1803278688526"/>
      <point x="797.9508196721312" y="1126.1803278688526" type="curve" smooth="yes"/>
      <point x="668.4098360655737" y="1126.1803278688526"/>
      <point x="562.4918032786885" y="1043.655737704918"/>
      <point x="469.80327868852464" y="926.6393442622951" type="curve"/>
      <point x="461.80327868852464" y="926.6393442622951" type="line"/>
      <point x="486.016393442623" y="1003.5245901639345"/>
      <point x="516.5573770491803" y="1111.72131147541"/>
      <point x="539.016393442623" y="1216.1147540983607" type="curve" smooth="yes"/>
      <point x="611.7049180327868" y="1556.0" type="line"/>
      <point x="378.1475409836066" y="1556.0" type="line"/>
    </contour>
    <contour>
      <point x="546.7377049180328" y="170.60655737704917" type="curve" smooth="yes"/>
      <point x="422.86885245901635" y="170.60655737704917"/>
      <point x="368.72131147540983" y="251.75409836065575"/>
      <point x="368.72131147540983" y="371.6885245901639" type="curve" smooth="yes"/>
      <point x="368.72131147540983" y="430.3770491803279"/>
      <point x="375.8360655737705" y="489.8360655737705"/>
      <point x="387.18032786885243" y="546.7377049180328" type="curve" smooth="yes"/>
      <point x="437.2295081967213" y="760.0819672131148"/>
      <point x="570.0491803278688" y="935.1311475409835"/>
      <point x="707.0819672131147" y="935.1311475409835" type="curve" smooth="yes"/>
      <point x="810.1311475409835" y="935.1311475409835"/>
      <point x="866.4754098360655" y="867.7704918032787"/>
      <point x="866.4754098360655" y="733.4918032786886" type="curve" smooth="yes"/>
      <point x="866.4754098360655" y="457.91803278688525"/>
      <point x="738.7377049180328" y="170.60655737704917"/>
    </contour>
  </outline>
</glyph>
<glyph name="dcroat" format="2">
  <advance width="1199.7213114754097"/>
  <unicode hex="0111"/>
  <anchor x="482.3114754098361" y="0.0" name="bottom"/>
  <anchor x="813.4262295081967" y="1556.0" name="top"/>
  <outline>
    <contour>
      <point x="404.29508196721315" y="-20.0" type="curve" smooth="yes"/>
      <point x="553.4262295081968" y="-20.0"/>
      <point x="657.1311475409835" y="70.9344262295082"/>
      <point x="744.5081967213115" y="177.327868852459" type="curve"/>
      <point x="752.5081967213114" y="177.327868852459" type="line"/>
      <point x="733.4918032786885" y="0.0" type="line"/>
      <point x="915.5737704918032" y="0.0" type="line"/>
      <point x="1173.1475409836066" y="1218.8524590163934" type="line"/>
      <point x="1325.8032786885246" y="1218.8524590163934" type="line"/>
      <point x="1359.5573770491803" y="1382.1803278688526" type="line"/>
      <point x="1208.344262295082" y="1382.1803278688526" type="line"/>
      <point x="1245.5737704918033" y="1556.0" type="line"/>
      <point x="1012.5737704918032" y="1556.0" type="line"/>
      <point x="977.016393442623" y="1382.1803278688526" type="line"/>
      <point x="639.655737704918" y="1382.1803278688526" type="line"/>
      <point x="606.4590163934427" y="1218.8524590163934" type="line"/>
      <point x="940.4754098360655" y="1218.8524590163934" type="line"/>
      <point x="919.4590163934425" y="1110.4590163934427" type="line" smooth="yes"/>
      <point x="907.9016393442622" y="1050.344262295082"/>
      <point x="899.9016393442622" y="973.9180327868852"/>
      <point x="896.5573770491803" y="930.2295081967213" type="curve"/>
      <point x="886.8852459016393" y="930.2295081967213" type="line"/>
      <point x="841.0" y="1022.9180327868853"/>
      <point x="759.1967213114754" y="1099.8524590163936"/>
      <point x="615.5081967213115" y="1099.8524590163936" type="curve" smooth="yes"/>
      <point x="279.96721311475414" y="1099.8524590163936"/>
      <point x="94.45901639344262" y="724.7868852459017"/>
      <point x="94.45901639344262" y="368.6065573770492" type="curve" smooth="yes"/>
      <point x="94.45901639344262" y="108.21311475409836"/>
      <point x="223.42622950819674" y="-20.0"/>
    </contour>
    <contour>
      <point x="492.4098360655738" y="170.60655737704917" type="curve" smooth="yes"/>
      <point x="389.3606557377049" y="170.60655737704917"/>
      <point x="332.5737704918033" y="238.40983606557376"/>
      <point x="332.5737704918033" y="371.688524590164" type="curve" smooth="yes"/>
      <point x="332.5737704918033" y="634.4262295081968"/>
      <point x="460.75409836065575" y="909.2459016393442"/>
      <point x="652.311475409836" y="909.2459016393442" type="curve" smooth="yes"/>
      <point x="775.5081967213115" y="909.2459016393442"/>
      <point x="828.7704918032787" y="830.7540983606557"/>
      <point x="828.7704918032787" y="713.5737704918032" type="curve" smooth="yes"/>
      <point x="828.7704918032787" y="454.5245901639345"/>
      <point x="665.983606557377" y="170.60655737704917"/>
    </contour>
  </outline>
</glyph>
<glyph name="eogonek" format="2">
  <advance width="1074.672131147541"/>
  <unicode hex="0119"/>
  <anchor x="380.27868852459017" y="-465.2459016393443" name="bottom"/>
  <anchor x="669.1147540983607" y="1106.8524590163936" name="top"/>
  <outline>
    <contour>
      <point x="601.9180327868853" y="-465.2459016393443" type="curve" smooth="yes"/>
      <point x="650.7540983606557" y="-465.2459016393443"/>
      <point x="696.9672131147541" y="-458.1475409836065"/>
      <point x="738.0491803278688" y="-446.3770491803279" type="curve"/>
      <point x="738.0491803278688" y="-305.4918032786885" type="line"/>
      <point x="709.1803278688525" y="-312.70491803278685"/>
      <point x="679.2950819672132" y="-318.4754098360656"/>
      <point x="646.7540983606557" y="-318.4754098360656" type="curve" smooth="yes"/>
      <point x="607.5245901639344" y="-318.4754098360656"/>
      <point x="583.2950819672132" y="-297.0327868852459"/>
      <point x="583.2950819672132" y="-254.4590163934426" type="curve" smooth="yes"/>
      <point x="583.2950819672132" y="-151.77049180327867"/>
      <point x="693.2295081967213" y="-53.196721311475414"/>
      <point x="821.1803278688524" y="47.885245901639344" type="curve"/>
      <point x="615.983606557377" y="-3.552713678800501e-15" type="line"/>
      <point x="492.0983606557377" y="-77.77049180327869"/>
      <point x="402.09836065573774" y="-158.4262295081967"/>
      <point x="402.09836065573774" y="-288.08196721311475" type="curve" smooth="yes"/>
      <point x="402.09836065573774" y="-402.29508196721315"/>
      <point x="482.3114754098361" y="-465.2459016393443"/>
    </contour>
    <component base="e" xOffset="-4.440892098500626e-16"/>
  </outline>
</glyph>
<glyph name="Hbar" format="2">
  <advance width="1411.1475409836066"/>
  <unicode hex="0126"/>
  <anchor x="587.9672131147541" y="0.0" name="bottom"/>
  <anchor x="898.9672131147541" y="1462.0" name="top"/>
  <outline>
    <contour>
      <point x="70.27868852459017" y="0.0" type="line"/>
      <point x="306.72131147540983" y="0.0" type="line"/>
      <point x="446.29508196721315" y="659.4262295081967" type="line"/>
      <point x="1013.1639344262295" y="659.4262295081967" type="line"/>
      <point x="873.5901639344263" y="0.0" type="line"/>
      <point x="1112.1475409836064" y="0.0" type="line"/>
      <point x="1337.1475409836066" y="1069.0" type="line"/>
      <point x="1522.7213114754097" y="1069.0" type="line"/>
      <point x="1557.032786885246" y="1239.5737704918033" type="line"/>
      <point x="1374.5737704918033" y="1239.5737704918033" type="line"/>
      <point x="1421.1475409836064" y="1462.0" type="line"/>
      <point x="1183.5901639344263" y="1462.0" type="line"/>
      <point x="1135.3442622950818" y="1239.5737704918033" type="line"/>
      <point x="568.4754098360656" y="1239.5737704918033" type="line"/>
      <point x="616.1639344262296" y="1462.0" type="line"/>
      <point x="379.27868852459017" y="1462.0" type="line"/>
      <point x="332.0327868852459" y="1239.5737704918033" type="line"/>
      <point x="149.13114754098362" y="1239.5737704918033" type="line"/>
      <point x="113.70491803278688" y="1069.0" type="line"/>
      <point x="295.72131147540983" y="1069.0" type="line"/>
    </contour>
    <contour>
      <point x="489.59016393442624" y="863.9180327868852" type="line"/>
      <point x="532.7213114754098" y="1069.0" type="line"/>
      <point x="1099.5901639344263" y="1069.0" type="line"/>
      <point x="1056.4590163934427" y="863.9180327868852" type="line"/>
    </contour>
  </outline>
</glyph>
<glyph name="idotless" format="2">
  <advance width="563.4098360655738"/>
  <unicode hex="0131"/>
  <anchor x="164.2622950819672" y="0.0" name="bottom"/>
  <anchor x="400.0327868852459" y="1106.8524590163936" name="top"/>
  <outline>
    <contour>
      <point x="48.147540983606554" y="0.0" type="line"/>
      <point x="282.26229508196724" y="0.0" type="line"/>
      <point x="517.0327868852459" y="1106.8524590163936" type="line"/>
      <point x="283.4754098360656" y="1106.8524590163936" type="line"/>
    </contour>
  </outline>
</glyph>
<glyph name="kgreenlandic" format="2">
  <advance width="1079.9508196721313"/>
  <unicode hex="0138"/>
  <anchor x="422.86885245901635" y="0.0" name="bottom"/>
  <anchor x="658.1967213114754" y="1106.8524590163936" name="top"/>
  <outline>
    <contour>
      <point x="47.0327868852459" y="0.0" type="line"/>
      <point x="282.26229508196724" y="0.0" type="line"/>
      <point x="360.16393442622956" y="375.3114754098361" type="line"/>
      <point x="495.7704918032787" y="472.39344262295083" type="line"/>
      <point x="705.5245901639345" y="0.0" type="line"/>
      <point x="965.1639344262295" y="0.0" type="line"/>
      <point x="675.7049180327868" y="621.2459016393442" type="line"/>
      <point x="1158.655737704918" y="1106.8524590163936" type="line"/>
      <point x="887.672131147541" y="1106.8524590163936" type="line"/>
      <point x="395.5573770491804" y="596.8688524590164" type="line"/>
      <point x="389.78688524590166" y="596.8688524590164" type="line"/>
      <point x="408.44262295081967" y="659.9508196721313"/>
      <point x="438.78688524590166" y="755.295081967213"/>
      <point x="457.57377049180326" y="843.5737704918032" type="curve" smooth="yes"/>
      <point x="515.9180327868853" y="1106.8524590163936" type="line"/>
      <point x="281.2459016393443" y="1106.8524590163936" type="line"/>
    </contour>
  </outline>
</glyph>
<glyph name="Lslash" format="2">
  <advance width="1015.295081967213"/>
  <unicode hex="0141"/>
  <anchor x="390.2622950819672" y="0.0" name="bottom"/>
  <anchor x="701.2622950819673" y="1462.0" name="top"/>
  <outline>
    <contour>
      <point x="70.04918032786885" y="0.0" type="line"/>
      <point x="844.9180327868852" y="0.0" type="line"/>
      <point x="888.327868852459" y="204.72131147540986" type="line"/>
      <point x="350.13114754098365" y="204.72131147540986" type="line"/>
      <point x="441.70491803278696" y="641.1475409836065" type="line"/>
      <point x="762.1803278688525" y="819.8524590163935" type="line"/>
      <point x="679.7049180327868" y="973.8032786885245" type="line"/>
      <point x="489.09836065573774" y="867.3770491803278" type="line"/>
      <point x="616.1639344262296" y="1462.0" type="line"/>
      <point x="379.4918032786885" y="1462.0" type="line"/>
      <point x="222.344262295082" y="719.6065573770492" type="line"/>
      <point x="10.262295081967212" y="601.7213114754098" type="line"/>
      <point x="91.08196721311475" y="445.983606557377" type="line"/>
      <point x="175.83606557377047" y="493.81967213114757" type="line"/>
    </contour>
  </outline>
</glyph>
<glyph name="lslash" format="2">
  <advance width="590.8524590163935"/>
  <unicode hex="0142"/>
  <anchor x="177.98360655737704" y="0.0" name="bottom"/>
  <anchor x="509.09836065573774" y="1556.0" name="top"/>
  <outline>
    <contour>
      <point x="58.540983606557376" y="0.0" type="line"/>
      <point x="290.88524590163934" y="0.0" type="line"/>
      <point x="436.13114754098365" y="679.5573770491803" type="line"/>
      <point x="657.0983606557378" y="805.672131147541" type="line"/>
      <point x="578.4098360655738" y="957.9508196721312" type="line"/>
      <point x="483.7540983606558" y="903.1147540983607" type="line"/>
      <point x="621.4426229508197" y="1556.0" type="line"/>
      <point x="389.65573770491807" y="1556.0" type="line"/>
      <point x="218.54098360655738" y="756.8852459016393" type="line"/>
      <point x="3.3442622950819647" y="632.5409836065575" type="line"/>
      <point x="83.04918032786885" y="479.70491803278685" type="line"/>
      <point x="172.0327868852459" y="532.2131147540983" type="line"/>
    </contour>
  </outline>
</glyph>
<glyph name="Eng" format="2">
  <advance width="1491.377049180328"/>
  <unicode hex="014A"/>
  <anchor x="542.3770491803278" y="-406.0327868852459" name="bottom"/>
  <anchor x="940.8032786885246" y="1462.0" name="top"/>
  <outline>
    <contour>
      <point x="721.4262295081968" y="-406.0327868852459" type="curve" smooth="yes"/>
      <point x="961.0" y="-406.0327868852459"/>
      <point x="1132.72131147541" y="-285.29508196721315"/>
      <point x="1192.377049180328" y="-4.440892098500626e-16" type="curve" smooth="yes"/>
      <point x="1501.377049180328" y="1462.0" type="line"/>
      <point x="1282.0" y="1462.0" type="line"/>
      <point x="1132.606557377049" y="773.672131147541" type="line" smooth="yes"/>
      <point x="1102.4918032786884" y="636.8688524590164"/>
      <point x="1075.377049180328" y="462.672131147541"/>
      <point x="1059.032786885246" y="360.5081967213115" type="curve"/>
      <point x="1051.2622950819673" y="360.5081967213115" type="line"/>
      <point x="632.9180327868852" y="1462.0" type="line"/>
      <point x="378.1639344262295" y="1462.0" type="line"/>
      <point x="69.1639344262295" y="0.0" type="line"/>
      <point x="286.75409836065575" y="0.0" type="line"/>
      <point x="444.5737704918033" y="747.639344262295" type="line"/>
      <point x="475.8032786885246" y="892.2131147540983"/>
      <point x="504.672131147541" y="1094.5081967213116"/>
      <point x="514.8032786885246" y="1165.0819672131147" type="curve"/>
      <point x="522.8032786885246" y="1165.0819672131147" type="line"/>
      <point x="968.1147540983607" y="0.0" type="line"/>
      <point x="929.5737704918032" y="-150.27868852459017"/>
      <point x="839.3114754098361" y="-207.7377049180328"/>
      <point x="707.4754098360656" y="-207.7377049180328" type="curve" smooth="yes"/>
      <point x="649.9180327868852" y="-207.7377049180328"/>
      <point x="598.2622950819672" y="-198.85245901639342"/>
      <point x="553.7213114754098" y="-186.85245901639342" type="curve"/>
      <point x="550.3770491803278" y="-381.4754098360656" type="line"/>
      <point x="585.5737704918033" y="-396.0327868852459"/>
      <point x="648.5737704918033" y="-406.0327868852459"/>
    </contour>
  </outline>
</glyph>
<glyph name="eng" format="2">
  <advance width="1208.5737704918033"/>
  <unicode hex="014B"/>
  <anchor x="382.7377049180328" y="-492.0" name="bottom"/>
  <anchor x="722.5081967213115" y="1106.8524590163936" name="top"/>
  <anchor x="1285.4590163934427" y="1106.8524590163936" name="topright"/>
  <outline>
    <contour>
      <point x="541.4262295081967" y="-492.0" type="curve" smooth="yes"/>
      <point x="766.672131147541" y="-492.0"/>
      <point x="863.5245901639345" y="-347.8360655737705"/>
      <point x="907.4098360655737" y="-140.9672131147541" type="curve" smooth="yes"/>
      <point x="1076.0000000000002" y="654.2786885245902" type="line" smooth="yes"/>
      <point x="1088.8852459016393" y="718.3770491803278"/>
      <point x="1098.4426229508197" y="776.9180327868852"/>
      <point x="1098.4426229508197" y="834.2786885245902" type="curve" smooth="yes"/>
      <point x="1098.4426229508197" y="1019.5737704918033"/>
      <point x="995.3114754098361" y="1127.2950819672133"/>
      <point x="816.688524590164" y="1127.2950819672133" type="curve" smooth="yes"/>
      <point x="648.983606557377" y="1127.2950819672133"/>
      <point x="535.4262295081967" y="1016.688524590164"/>
      <point x="453.8852459016394" y="902.0819672131147" type="curve"/>
      <point x="444.77049180327873" y="902.0819672131147" type="line"/>
      <point x="466.327868852459" y="1106.8524590163936" type="line"/>
      <point x="283.4754098360656" y="1106.8524590163936" type="line"/>
      <point x="48.147540983606554" y="0.0" type="line"/>
      <point x="282.26229508196724" y="0.0" type="line"/>
      <point x="381.3770491803279" y="468.57377049180326" type="line" smooth="yes"/>
      <point x="446.311475409836" y="774.688524590164"/>
      <point x="596.2622950819673" y="935.1311475409835"/>
      <point x="734.3770491803278" y="935.1311475409835" type="curve" smooth="yes"/>
      <point x="822.5409836065573" y="935.1311475409835"/>
      <point x="863.5573770491802" y="887.7704918032787"/>
      <point x="863.5573770491802" y="803.7704918032787" type="curve" smooth="yes"/>
      <point x="863.5573770491802" y="767.983606557377"/>
      <point x="856.4426229508197" y="726.983606557377"/>
      <point x="844.7704918032787" y="672.5081967213115" type="curve" smooth="yes"/>
      <point x="678.5081967213115" y="-111.11475409836066" type="line" smooth="yes"/>
      <point x="652.2786885245902" y="-239.03278688524588"/>
      <point x="591.8524590163934" y="-299.5081967213115"/>
      <point x="509.8524590163934" y="-299.5081967213115" type="curve" smooth="yes"/>
      <point x="467.95081967213116" y="-299.5081967213115"/>
      <point x="432.72131147540983" y="-291.27868852459017"/>
      <point x="393.6229508196721" y="-277.39344262295083" type="curve"/>
      <point x="393.6229508196721" y="-469.2295081967213" type="line"/>
      <point x="430.72131147540983" y="-482.11475409836066"/>
      <point x="485.2295081967213" y="-492.0"/>
    </contour>
  </outline>
</glyph>
<glyph name="OE" format="2">
  <advance width="1797.0655737704917"/>
  <unicode hex="0152"/>
  <anchor x="782.1475409836066" y="0.0" name="bottom"/>
  <anchor x="1093.1475409836066" y="1462.0" name="top"/>
  <outline>
    <contour>
      <point x="679.3770491803278" y="-20.0" type="curve" smooth="yes"/>
      <point x="739.5901639344262" y="-20.0"/>
      <point x="796.5737704918033" y="-12.0"/>
      <point x="848.2295081967212" y="0.0" type="curve"/>
      <point x="1564.7540983606557" y="0.0" type="line"/>
      <point x="1607.7213114754097" y="203.6065573770492" type="line"/>
      <point x="1068.4098360655737" y="203.6065573770492" type="line"/>
      <point x="1165.1311475409834" y="661.4262295081967" type="line"/>
      <point x="1668.327868852459" y="661.4262295081967" type="line"/>
      <point x="1711.065573770492" y="863.0327868852459" type="line"/>
      <point x="1207.8688524590166" y="863.0327868852459" type="line"/>
      <point x="1292.590163934426" y="1259.27868852459" type="line"/>
      <point x="1831.9016393442623" y="1259.27868852459" type="line"/>
      <point x="1873.7540983606557" y="1462.0" type="line"/>
      <point x="1114.9180327868853" y="1462.0" type="line"/>
      <point x="1054.573770491803" y="1479.8852459016393"/>
      <point x="990.7704918032787" y="1485.0"/>
      <point x="891.4262295081967" y="1485.0" type="curve" smooth="yes"/>
      <point x="399.0" y="1485.0"/>
      <point x="136.37704918032787" y="1025.327868852459"/>
      <point x="136.37704918032787" y="542.5737704918033" type="curve" smooth="yes"/>
      <point x="136.37704918032787" y="198.7704918032787"/>
      <point x="327.1639344262295" y="-20.0"/>
    </contour>
    <contour>
      <point x="692.4590163934425" y="184.81967213114757" type="curve" smooth="yes"/>
      <point x="498.45901639344265" y="184.81967213114757"/>
      <point x="382.72131147540983" y="314.688524590164"/>
      <point x="382.72131147540983" y="544.8032786885246" type="curve" smooth="yes"/>
      <point x="382.72131147540983" y="947.7868852459017"/>
      <point x="578.4262295081967" y="1280.5081967213116"/>
      <point x="873.1147540983607" y="1280.5081967213116" type="curve" smooth="yes"/>
      <point x="943.5737704918032" y="1280.5081967213116"/>
      <point x="1005.3606557377049" y="1270.2950819672133"/>
      <point x="1052.8196721311476" y="1250.4262295081967" type="curve"/>
      <point x="832.0655737704918" y="209.5737704918033" type="line"/>
      <point x="789.7540983606557" y="192.59016393442624"/>
      <point x="742.1147540983607" y="184.81967213114757"/>
    </contour>
  </outline>
</glyph>
<glyph name="oe" format="2">
  <advance width="1788.1639344262296"/>
  <unicode hex="0153"/>
  <anchor x="776.1967213114754" y="0.0" name="bottom"/>
  <anchor x="1011.9672131147541" y="1106.8524590163936" name="top"/>
  <outline>
    <contour>
      <point x="498.0" y="-17.770491803278688" type="curve" smooth="yes"/>
      <point x="668.688524590164" y="-17.770491803278688"/>
      <point x="788.6229508196722" y="53.39344262295082"/>
      <point x="873.7377049180328" y="165.1311475409836" type="curve"/>
      <point x="936.7213114754098" y="41.49180327868852"/>
      <point x="1065.2622950819673" y="-20.0"/>
      <point x="1225.311475409836" y="-20.0" type="curve" smooth="yes"/>
      <point x="1363.573770491803" y="-20.0"/>
      <point x="1468.8852459016393" y="5.770491803278689"/>
      <point x="1581.426229508197" y="59.868852459016395" type="curve"/>
      <point x="1581.4262295081967" y="248.40983606557378" type="line"/>
      <point x="1462.6885245901638" y="193.65573770491807"/>
      <point x="1378.4590163934424" y="163.52459016393442"/>
      <point x="1269.8196721311474" y="163.52459016393442" type="curve" smooth="yes"/>
      <point x="1119.9672131147543" y="163.52459016393442"/>
      <point x="1043.9508196721313" y="254.01639344262298"/>
      <point x="1043.9508196721313" y="400.7704918032787" type="curve" smooth="yes"/>
      <point x="1043.9508196721313" y="420.2295081967213"/>
      <point x="1045.0655737704917" y="440.81967213114757"/>
      <point x="1047.0655737704917" y="461.27868852459017" type="curve"/>
      <point x="1093.606557377049" y="461.27868852459017" type="line" smooth="yes"/>
      <point x="1537.0819672131147" y="461.27868852459017"/>
      <point x="1731.032786885246" y="625.3114754098361"/>
      <point x="1731.032786885246" y="849.6065573770492" type="curve" smooth="yes"/>
      <point x="1731.032786885246" y="1025.377049180328"/>
      <point x="1606.032786885246" y="1127.295081967213"/>
      <point x="1397.2786885245903" y="1127.295081967213" type="curve" smooth="yes"/>
      <point x="1231.0819672131147" y="1127.295081967213"/>
      <point x="1094.5081967213116" y="1053.032786885246"/>
      <point x="998.2786885245902" y="931.0655737704918" type="curve"/>
      <point x="938.9672131147541" y="1047.0"/>
      <point x="835.1967213114754" y="1123.950819672131"/>
      <point x="661.8688524590164" y="1123.950819672131" type="curve" smooth="yes"/>
      <point x="281.0163934426229" y="1123.950819672131"/>
      <point x="94.45901639344262" y="771.0983606557377"/>
      <point x="94.45901639344262" y="409.5409836065574" type="curve" smooth="yes"/>
      <point x="94.45901639344262" y="143.2295081967213"/>
      <point x="254.0" y="-17.770491803278688"/>
    </contour>
    <contour>
      <point x="521.7213114754098" y="173.72131147540983" type="curve" smooth="yes"/>
      <point x="400.1967213114754" y="173.72131147540983"/>
      <point x="330.5737704918033" y="257.32786885245906"/>
      <point x="330.5737704918033" y="411.77049180327873" type="curve" smooth="yes"/>
      <point x="330.5737704918033" y="665.6065573770491"/>
      <point x="443.6885245901639" y="932.016393442623"/>
      <point x="647.2295081967213" y="932.016393442623" type="curve" smooth="yes"/>
      <point x="778.6557377049181" y="932.016393442623"/>
      <point x="835.9344262295082" y="838.5409836065573"/>
      <point x="835.9344262295082" y="703.2459016393443" type="curve" smooth="yes"/>
      <point x="835.9344262295082" y="414.86885245901635"/>
      <point x="725.8688524590164" y="173.72131147540983"/>
    </contour>
    <contour>
      <point x="1073.3770491803277" y="632.5081967213115" type="line"/>
      <point x="1122.426229508197" y="832.9672131147541"/>
      <point x="1253.4590163934427" y="948.1967213114754"/>
      <point x="1388.1967213114754" y="948.1967213114754" type="curve" smooth="yes"/>
      <point x="1463.7868852459017" y="948.1967213114754"/>
      <point x="1505.016393442623" y="906.0491803278688"/>
      <point x="1505.016393442623" y="842.0491803278688" type="curve" smooth="yes"/>
      <point x="1505.016393442623" y="702.5737704918033"/>
      <point x="1343.8032786885246" y="632.5081967213115"/>
      <point x="1104.44262295082" y="632.5081967213115" type="curve" smooth="yes"/>
    </contour>
  </outline>
</glyph>
<glyph name="Tbar" format="2">
  <advance width="1053.0"/>
  <unicode hex="0166"/>
  <anchor x="409.8360655737705" y="0.0" name="bottom"/>
  <anchor x="721.3934426229508" y="1462.0" name="top"/>
  <outline>
    <contour>
      <point x="291.08196721311475" y="0.0" type="line"/>
      <point x="529.1967213114755" y="0.0" type="line"/>
      <point x="663.1147540983607" y="637.2459016393442" type="line"/>
      <point x="927.7704918032787" y="637.2459016393442" type="line"/>
      <point x="968.8360655737705" y="832.7213114754098" type="line"/>
      <point x="704.295081967213" y="832.7213114754098" type="line"/>
      <point x="795.4590163934427" y="1257.5081967213114" type="line"/>
      <point x="1175.7704918032787" y="1257.5081967213114" type="line"/>
      <point x="1217.9508196721313" y="1462.0" type="line"/>
      <point x="220.77049180327867" y="1462.0" type="line"/>
      <point x="176.91803278688525" y="1257.5081967213114" type="line"/>
      <point x="556.7868852459015" y="1257.5081967213114" type="line"/>
      <point x="464.6229508196721" y="832.7213114754098" type="line"/>
      <point x="210.96721311475412" y="832.7213114754098" type="line"/>
      <point x="168.22950819672133" y="637.2459016393442" type="line"/>
      <point x="425.55737704918033" y="637.2459016393442" type="line"/>
    </contour>
  </outline>
</glyph>
<glyph name="tbar" format="2">
  <advance width="750.8196721311475"/>
  <unicode hex="0167"/>
  <anchor x="257.5245901639344" y="0.0" name="bottom"/>
  <anchor x="545.4098360655738" y="1351.5409836065573" name="top"/>
  <outline>
    <contour>
      <point x="392.72131147540983" y="-20.0" type="curve" smooth="yes"/>
      <point x="474.29508196721315" y="-20.0"/>
      <point x="559.6065573770492" y="0.8852459016393448"/>
      <point x="606.327868852459" y="23.52459016393443" type="curve"/>
      <point x="606.327868852459" y="200.0327868852459" type="line"/>
      <point x="549.344262295082" y="180.81967213114757"/>
      <point x="505.45901639344265" y="169.49180327868854"/>
      <point x="453.8032786885246" y="169.49180327868854" type="curve" smooth="yes"/>
      <point x="386.8688524590164" y="169.49180327868854"/>
      <point x="354.09836065573774" y="206.09836065573774"/>
      <point x="354.09836065573774" y="265.2295081967213" type="curve" smooth="yes"/>
      <point x="354.09836065573774" y="292.27868852459017"/>
      <point x="360.55737704918033" y="327.7704918032787"/>
      <point x="366.78688524590166" y="356.6885245901639" type="curve" smooth="yes"/>
      <point x="405.59016393442624" y="542.5901639344262" type="line"/>
      <point x="645.6065573770493" y="542.5901639344262" type="line"/>
      <point x="678.8032786885245" y="705.4754098360656" type="line"/>
      <point x="440.78688524590166" y="705.4754098360656" type="line"/>
      <point x="488.4754098360656" y="929.1311475409836" type="line"/>
      <point x="766.5737704918033" y="929.1311475409836" type="line"/>
      <point x="804.3114754098361" y="1106.8524590163936" type="line"/>
      <point x="525.2131147540983" y="1106.8524590163936" type="line"/>
      <point x="577.5573770491803" y="1351.5409836065573" type="line"/>
      <point x="432.60655737704917" y="1351.5409836065573" type="line"/>
      <point x="303.39344262295083" y="1120.0" type="line"/>
      <point x="113.52459016393443" y="1039.344262295082" type="line"/>
      <point x="91.77049180327869" y="929.1311475409836" type="line"/>
      <point x="253.80327868852459" y="929.1311475409836" type="line"/>
      <point x="206.11475409836066" y="705.4754098360656" type="line"/>
      <point x="70.88524590163935" y="705.4754098360656" type="line"/>
      <point x="36.57377049180328" y="542.5901639344262" type="line"/>
      <point x="171.8032786885246" y="542.5901639344262" type="line"/>
      <point x="133.22950819672133" y="358.3606557377049" type="line" smooth="yes"/>
      <point x="123.22950819672131" y="310.1147540983606"/>
      <point x="117.88524590163934" y="264.42622950819674"/>
      <point x="117.88524590163934" y="227.40983606557376" type="curve" smooth="yes"/>
      <point x="117.88524590163934" y="41.885245901639344"/>
      <point x="231.88524590163937" y="-20.0"/>
    </contour>
  </outline>
</glyph>
<glyph name="longs" format="2">
  <advance width="647.7213114754098"/>
  <unicode hex="017F"/>
  <anchor x="102.31147540983608" y="-492.0" name="bottom"/>
  <anchor x="540.7540983606557" y="1567.0" name="top"/>
  <outline>
    <contour>
      <point x="-104.88524590163934" y="-492.0" type="curve" smooth="yes"/>
      <point x="117.57377049180329" y="-492.0"/>
      <point x="218.2131147540984" y="-342.72131147540983"/>
      <point x="264.55737704918033" y="-125.45901639344261" type="curve" smooth="yes"/>
      <point x="543.344262295082" y="1192.2622950819673" type="line" smooth="yes"/>
      <point x="570.7049180327868" y="1325.0819672131147"/>
      <point x="624.0655737704918" y="1377.393442622951"/>
      <point x="717.9016393442622" y="1377.393442622951" type="curve" smooth="yes"/>
      <point x="768.672131147541" y="1377.393442622951"/>
      <point x="813.5737704918033" y="1363.3934426229507"/>
      <point x="852.0163934426229" y="1348.065573770492" type="curve"/>
      <point x="914.1803278688524" y="1523.5737704918033" type="line"/>
      <point x="859.327868852459" y="1548.0"/>
      <point x="780.7704918032788" y="1567.0"/>
      <point x="701.032786885246" y="1567.0" type="curve" smooth="yes"/>
      <point x="490.95081967213116" y="1567.0"/>
      <point x="369.88524590163934" y="1478.5737704918033"/>
      <point x="310.7704918032787" y="1202.0" type="curve" smooth="yes"/>
      <point x="36.540983606557376" y="-94.3934426229508" type="line" smooth="yes"/>
      <point x="8.196721311475411" y="-234.57377049180326"/>
      <point x="-55.68852459016394" y="-299.5081967213115"/>
      <point x="-138.80327868852459" y="-299.5081967213115" type="curve" smooth="yes"/>
      <point x="-180.03278688524588" y="-299.5081967213115"/>
      <point x="-214.14754098360658" y="-291.27868852459017"/>
      <point x="-252.68852459016395" y="-277.39344262295083" type="curve"/>
      <point x="-252.68852459016395" y="-469.2295081967213" type="line"/>
      <point x="-216.14754098360655" y="-482.11475409836066"/>
      <point x="-161.19672131147541" y="-492.0"/>
    </contour>
  </outline>
</glyph>
<glyph name="uni0180" format="2">
  <advance width="1200.6065573770493"/>
  <unicode hex="0180"/>
  <anchor x="483.6393442622951" y="0.0" name="bottom"/>
  <anchor x="814.3114754098361" y="1556.0" name="top"/>
  <outline>
    <contour>
      <point x="577.1147540983607" y="-20.0" type="curve" smooth="yes"/>
      <point x="902.032786885246" y="-20.0"/>
      <point x="1104.0327868852457" y="355.0655737704918"/>
      <point x="1104.0327868852457" y="738.5737704918033" type="curve" smooth="yes"/>
      <point x="1104.0327868852457" y="997.4098360655737"/>
      <point x="969.4262295081967" y="1116.8852459016393"/>
      <point x="796.8360655737705" y="1116.8852459016393" type="curve" smooth="yes"/>
      <point x="654.4590163934427" y="1116.8852459016393"/>
      <point x="556.2950819672132" y="1030.377049180328"/>
      <point x="469.8032786885246" y="926.6393442622951" type="curve"/>
      <point x="461.80327868852464" y="926.6393442622951" type="line"/>
      <point x="475.55737704918033" y="959.4426229508197"/>
      <point x="513.2622950819672" y="1104.8524590163934"/>
      <point x="539.8360655737705" y="1219.9672131147543" type="curve"/>
      <point x="893.0327868852459" y="1219.9672131147543" type="line"/>
      <point x="927.3442622950819" y="1383.295081967213" type="line"/>
      <point x="574.4754098360656" y="1383.295081967213" type="line"/>
      <point x="611.7049180327868" y="1556.0" type="line"/>
      <point x="378.1475409836066" y="1556.0" type="line"/>
      <point x="340.91803278688525" y="1383.295081967213" type="line"/>
      <point x="197.47540983606558" y="1383.295081967213" type="line"/>
      <point x="163.1639344262295" y="1219.9672131147543" type="line"/>
      <point x="306.60655737704917" y="1219.9672131147543" type="line"/>
      <point x="48.147540983606554" y="0.0" type="line"/>
      <point x="226.19672131147541" y="0.0" type="line"/>
      <point x="289.2131147540984" y="156.93442622950818" type="line"/>
      <point x="298.327868852459" y="156.93442622950818" type="line"/>
      <point x="343.983606557377" y="57.819672131147534"/>
      <point x="432.2131147540984" y="-20.0"/>
    </contour>
    <contour>
      <point x="546.7377049180328" y="170.60655737704917" type="curve" smooth="yes"/>
      <point x="428.4098360655738" y="170.60655737704917"/>
      <point x="368.72131147540983" y="251.75409836065575"/>
      <point x="368.72131147540983" y="371.6885245901639" type="curve" smooth="yes"/>
      <point x="368.72131147540983" y="623.0983606557377"/>
      <point x="524.1967213114754" y="925.8360655737704"/>
      <point x="711.5081967213115" y="925.8360655737704" type="curve" smooth="yes"/>
      <point x="814.5573770491802" y="925.8360655737704"/>
      <point x="866.4754098360655" y="862.9016393442623"/>
      <point x="866.4754098360655" y="733.4918032786886" type="curve" smooth="yes"/>
      <point x="866.4754098360655" y="457.91803278688525"/>
      <point x="734.3114754098361" y="170.60655737704917"/>
    </contour>
  </outline>
</glyph>
